<ttFont>
<head>
        <!-- Most of this table will be recalculated by the compiler -->
        <tableVersion value="1.0"/>
        <fontRevision value="1.002"/>
        <checkSumAdjustment value="0x8b6deb6c"/>
        <magicNumber value="0x5f0f3cf5"/>
        <flags value="00000000 00000011"/>
        <unitsPerEm value="1000"/>
        <created value="Fri Jan 15 17:27:16 2016"/>
        <modified value="Fri Jan 15 22:27:17 2016"/>
        <xMin value="-1773"/>
        <yMin value="-319"/>
        <xMax value="708"/>
        <yMax value="1270"/>
        <macStyle value="00000000 00000000"/>
        <lowestRecPPEM value="3"/>
        <fontDirectionHint value="2"/>
        <indexToLocFormat value="0"/>
        <glyphDataFormat value="0"/>
    </head>
                    <CharString index="0">
                        rmoveto
10 78 -96 callsubr
-176 92 -99 341 -2 hvcurveto
-192 495 -78 callsubr
                    </CharString>
                    <CharString index="1">
                        230 6 85 59 73 vvcurveto
52 -51 45 -142 21 vhcurveto
183 135 -5 59 rlineto
-299 -63 hlineto
216 1 rlineto
-3 vlineto
-178 -133 -1 -37 rlineto
150 -15 56 -29 -35 vvcurveto
-38 -63 -25 -186 -6 vhcurveto
return
                    </CharString>
                    <CharString index="2">
                        -101 callsubr
-47 callsubr
215 15 97 60 80 vvcurveto
return
                    </CharString>
                    <CharString index="3">
                        -105 callsubr
endchar
                    </CharString>
                    <CharString index="4">
                        rmoveto
hintmask 00111100
-66 callsubr
hintmask 01011100
-90 callsubr
hintmask 10011100
-10 callgsubr
hintmask 00111100
-98 callsubr
                    </CharString>
                    <CharString index="5">
                        97 hlineto
16 130 24 262 14 296 rrcurveto
-87 hlineto
-6 -136 -17 -366 -7 -67 rrcurveto
-4 hlineto
-33 122 -34 122 -32 121 rrcurveto
-55 hlineto
-32 -120 -27 -110 -36 -135 rrcurveto
-5 hlineto
-7 67 -20 366 -5 136 rrcurveto
-92 hlineto
15 -296 22 -262 17 -130 rrcurveto
97 hlineto
97 363 rlineto
endchar
                    </CharString>
                    <CharString index="6">
                        rmoveto
60 -57 51 -181 15 vhcurveto
9 106 rlineto
209 hlineto
6 63 rlineto
-276 hlineto
-16 -220 rlineto
176 -11 61 -28 -37 vvcurveto
return
                    </CharString>
                    <CharString index="7">
                        rmoveto
57 54 -196 160 rlineto
-4 hlineto
-196 -169 46 -44 146 124 rlineto
return
                    </CharString>
                    <CharString index="8">
                        -84 callsubr
hintmask 01011111
56 callgsubr
hintmask 00111111
-102 callgsubr
hintmask 10011111
-43 callsubr
hintmask 01011111
-25 callgsubr
                    </CharString>
                    <CharString index="9">
                        -177 614 -95 callgsubr
                    </CharString>
                    <CharString index="10">
                        6 62 rlineto
-126 395 hlineto
-71 -6 rlineto
-67 vlineto
-134 -17 2 -54 132 7 rlineto
-258 -140 -62 vlineto
return
                    </CharString>
                    <CharString index="11">
                        -262 7 -82 48 -9 128 rlinecurve
371 10 rlineto
179 20 -75 120 -149 hhcurveto
-141 -116 -127 -166 return
                    </CharString>
                    <CharString index="12">
                        rmoveto
300 15 75 116 188 vvcurveto
64 -1 297 -1 43 vhcurveto
16 -54 -52 9 -53 hhcurveto
-155 -135 -108 -176 -143 88 -87 117 64 52 24 29 39 hvcurveto
-2 -153 -35 -32 -256 -19 rrcurveto
172 224 rmoveto
-85 -64 59 120 120 73 65 95 34 33 -6 -11 35 hvcurveto
-311 vlineto
-21 -36 -43 -15 -42 hhcurveto
endchar
                    </CharString>
                    <CharString index="13">
                        rmoveto
-61 46 -102 94 -56 60 -67 -75 rcurveline
68 -55 116 -71 75 -39 rrcurveto
return
                    </CharString>
                    <CharString index="14">
                        rmoveto
-48 callgsubr
-86 callgsubr
endchar
                    </CharString>
                    <CharString index="15">
                        64 -237 vlineto
-92 callgsubr
return
                    </CharString>
                    <CharString index="16">
                        rmoveto
-43 callgsubr
hintmask 11011000
-29 callgsubr
hintmask 11100100
-23 callsubr
hintmask 11011000
-83 callgsubr
hintmask 11100100
-87 callgsubr
                    </CharString>
                    <CharString index="17">
                        -72 -231 -65 -230 -63 -229 rrcurveto
93 hlineto
18 70 19 71 19 70 rrcurveto
231 hlineto
return
                    </CharString>
                    <CharString index="18">
                        rmoveto
-49 callsubr
-83 callsubr
return
                    </CharString>
                    <CharString index="19">
                        rmoveto
116 75 96 141 137 -64 85 -114 -116 -75 -97 -139 -138 65 -85 113 hvcurveto
6 398 rmoveto
73 39 -65 -108 -102 -36 -61 -74 -73 -39 64 108 103 36 61 74 hvcurveto
endchar
                    </CharString>
                    <CharString index="20">
                        rmoveto
hintmask 0010101110000000
84 -59 callgsubr
hintmask 1000011110000000
-81 callsubr
hintmask 1001001110000000
-72 callgsubr
                    </CharString>
                    <CharString index="21">
                        3 -13 callsubr
-94 -151 hlineto
return
                    </CharString>
                    <CharString index="22">
                        rmoveto
hintmask 00101011
84 -59 callgsubr
hintmask 10000111
-81 callsubr
hintmask 10010011
-72 callgsubr
                    </CharString>
                    <CharString index="23">
                        rmoveto
-74 callsubr
-32 -43 -56 -25 -55 hhcurveto
return
                    </CharString>
                    <CharString index="24">
                        -46 -47 111 -71 hhcurveto
-56 -51 -60 -94 -39 hvcurveto
50 -23 rlineto
65 30 28 37 28 47 46 -111 71 hhcurveto
return
                    </CharString>
                    <CharString index="25">
                        rmoveto
-2 89 1 107 142 vvcurveto
-87 hlineto
-101 2 -103 2 -74 vhcurveto
-219 -15 -71 108 183 vvcurveto
153 54 113 296 -2 vhcurveto
-6 90 rlineto
-337 -12 -102 -162 -197 vvcurveto
-241 142 -148 327 70 vhcurveto
return
                    </CharString>
                    <CharString index="26">
                        -191 2 -142 2 -99 vhcurveto
-29 -42 -44 -19 -51 hhcurveto
-68 -40 36 105 hvcurveto
342 vlineto
return
                    </CharString>
                    <CharString index="27">
                        -56 callsubr
151.5 -56 callsubr
return
                    </CharString>
                    <CharString index="28">
                        -6 -102 -5 -4 hhcurveto
23 -64 7 -72 -37 -77 rrcurveto
endchar
                    </CharString>
                    <CharString index="29">
                        rmoveto
91 43 -66 -103 1 hvcurveto
-286 -8 rlineto
116 6 56 61 89 hhcurveto
endchar
                    </CharString>
                    <CharString index="30">
                        rmoveto
-1 -86 rlineto
319 -17 119 112 105 -70 callsubr
-66 -90 -56 -251 21 vhcurveto
return
                    </CharString>
                    <CharString index="31">
                        -329 234 280 70 -280 226 324 79 -418 -688 return
                    </CharString>
                    <CharString index="32">
                        rmoveto
50 20 -57 -110 -1 hvcurveto
-149 -3 rlineto
118 3 26 52 51 hhcurveto
hintmask 1010011110000000
-229 -409 rmoveto
-39 -26 27 57 67 43 31 93 -1 hvcurveto
-47 4 -42 12 -36 vhcurveto
-34 -21 -30 -22 -36 hhcurveto
hintmask 0101011110000000
364 -73 rmoveto
8 76 -184 4 -38 49 -1 126 rlinecurve
232 6 rlineto
186 13 -50 111 -102 hhcurveto
-60 -45 -34 -61 -28 hvcurveto
hintmask 1010101110000000
-32 64 -67 22 -130 7 -8 -78 rcurveline
161 -9 35 -29 3 -127 rrcurveto
-149 -5 -72 -62 -110 vvcurveto
-87 48 -50 70 64 49 40 45 30 vhcurveto
hintmask 0101011110000000
39 -54 75 -29 139 -1 rrcurveto
endchar
                    </CharString>
                    <CharString index="33">
                        -67 -44 -41 callsubr
-53 1 -40 2 -36 vhcurveto
return
                    </CharString>
                    <CharString index="34">
                        rmoveto
195 168 -45 45 -147 -125 return
                    </CharString>
                    <CharString index="35">
                        -74 callgsubr
endchar
                    </CharString>
                    <CharString index="36">
                        -61 138 -63 158 -54 139 -92 -6 rcurveline
54 -133 104 -253 63 -138 10 -2 rcurveline
-38 -89 -31 -19 -139 -21 rrcurveto
endchar
                    </CharString>
                    <CharString index="37">
                        165 -342 47 118 vvcurveto
57 63 44 240 -16 vhcurveto
-6 85 rlineto
-283 16 -110 -101 -99 -160 342 -43 -126 vvcurveto
return
                    </CharString>
                    <CharString index="38">
                        -47 callgsubr
rlineto
305 -18 97 87 88 -16 callsubr
return
                    </CharString>
                    <CharString index="39">
                        660 -107 callgsubr
return
                    </CharString>
                    <CharString index="40">
                        rmoveto
184 54 95 103 42 34 -15 -31 26 vhcurveto
-230 -421 rlineto
-19 47 -10 63 78 vvcurveto
163 -289 rmoveto
-42 -34 16 30 -27 hvcurveto
232 422 rlineto
19 -47 10 -63 -79 vvcurveto
-184 -55 -95 -103 vhcurveto
-15 -77 -46 callgsubr
hintmask 10011100
-1 112 -22 87 -42 58 44 80 rcurveline
hintmask 01101100
-60 31 -32 -62 rlineto
26 -35 -44 13 -50 -38 callgsubr
-114 24 -87 43 -59 hvcurveto
-43 -78 rlineto
hintmask 10101100
59 -31 32 61 rlineto
-25 36 43 -13 49 hhcurveto
endchar
                    </CharString>
                    <CharString index="41">
                        94 8 -40 callgsubr
rlinecurve
-131 hlineto
return
                    </CharString>
                    <CharString index="42">
                        -293 -99 callgsubr
                    </CharString>
                    <CharString index="43">
                        rmoveto
-62 callsubr
-205 100 -155 351 24 vhcurveto
endchar
                    </CharString>
                    <CharString index="44">
                        -35 callsubr
hintmask 10111000
-27 callgsubr
hintmask 11011000
-15 callsubr
endchar
                    </CharString>
                    <CharString index="45">
                        -287 -13 -76 96 185 vvcurveto
158 56 101 300 3 vhcurveto
-5 90 rlineto
-338 -11 -109 -164 -190 vvcurveto
return
                    </CharString>
                    <CharString index="46">
                        rmoveto
50 131 69 129 85 124 rrcurveto
62 -329 vlineto
-6 -64 rlineto
257 hlineto
3 -5 return
                    </CharString>
                    <CharString index="47">
                        -112 -14 -83 -44 -52 -55 -2 25 -5 58 -1 10 rrcurveto
-211 hlineto
-6 -64 137 -9 3 -108 1 -127 2 -167 rlinecurve
-144 -69 hlineto
return
                    </CharString>
                    <CharString index="48">
                        46 -14 61 70 21 88 -9 74 rlinecurve
return
                    </CharString>
                    <CharString index="49">
                        229 vlineto
hintmask 11010000
-3 callsubr
hintmask 10110000
-22 callsubr
                    </CharString>
                    <CharString index="50">
                        14 77 57 51 139 50 -25 61 rcurveline
-174 -63 -84 -101 -125 vvcurveto
return
                    </CharString>
                    <CharString index="51">
                        92.5 return
                    </CharString>
                    <CharString index="52">
                        -687 93 251 vlineto
140 4 rlineto
-140 360 rmoveto
167 25 72 -59 -99 vvcurveto
-71 -37 -52 -52 -36 vhcurveto
-150 -4 rlineto
return
                    </CharString>
                    <CharString index="53">
                        17 -21 25 58 callgsubr
207 69 330 80 return
                    </CharString>
                    <CharString index="54">
                        -6 126 -2 177 238 vvcurveto
-91 hlineto
return
                    </CharString>
                    <CharString index="55">
                        62 254.5 137.5 return
                    </CharString>
                    <CharString index="56">
                        -13 -53 callgsubr
return
                    </CharString>
                    <CharString index="57">
                        71 179 57 162 46 134 rrcurveto
-87 hlineto
-29 -76 -77 -246 -42 -110 rrcurveto
-10 hlineto
return
                    </CharString>
                    <CharString index="58">
                        56 51 60 94 39 hvcurveto
-51 23 rlineto
-65 -29 -28 -37 -28 return
                    </CharString>
                    <CharString index="59">
                        rmoveto
hintmask 00111111
-66 callsubr
hintmask 01011111
-90 callsubr
hintmask 10011111
-10 callgsubr
hintmask 00111111
-98 callsubr
                    </CharString>
                    <CharString index="60">
                        -46 -66 -27 -182 -13 vhcurveto
5 -68 rlineto
return
                    </CharString>
                    <CharString index="61">
                        -163 hlineto
2 35 52 199 16 56 -79 6 rcurveline
return
                    </CharString>
                    <CharString index="62">
                        7 80 -354 -2 344 390 rlineto
76 -438 vlineto
-7 -80 342 2 -345 -389 rlineto
-77 vlineto
endchar
                    </CharString>
                    <CharString index="63">
                        797 -94 callsubr
return
                    </CharString>
                    <CharString index="64">
                        -87 68 -54 98 85 65 39 41 43 vhcurveto
return
                    </CharString>
                    <CharString index="65">
                        -52 callsubr
hstem
return
                    </CharString>
                    <CharString index="66">
                        32 58 74 64 43 198 -21 hvcurveto
return
                    </CharString>
                    <CharString index="67">
                        rmoveto
140 117 118 180 return
                    </CharString>
                    <CharString index="68">
                        rmoveto
6 -338 -113 hlineto
36 113 36 114 35 111 rrcurveto
6 -609 rmoveto
271 hlineto
7 79 rlineto
-197 234 162 70 -162 226 192 79 -335 hlineto
-76 -228 -78 -231 -71 -229 rrcurveto
91 hlineto
20 66 21 67 21 68 rrcurveto
134 hlineto
endchar
                    </CharString>
                    <CharString index="69">
                        -42 callsubr
296 71 return
                    </CharString>
                    <CharString index="70">
                        rmoveto
175 63 84 100 126 vvcurveto
115 -71 62 -101 -93 -79 -62 -91 return
                    </CharString>
                    <CharString index="71">
                        629 95 callgsubr
-32 -20 hstemhm
90 446 hintmask 11010000
390 629 rmoveto
hintmask 10110000
-49 callsubr
hhcurveto
hintmask 11010000
-83 callsubr
endchar
                    </CharString>
                    <CharString index="72">
                        rmoveto
68 41 -32 callsubr
-77 -59 -35 -38 -45 vhcurveto
return
                    </CharString>
                    <CharString index="73">
                        -18 callgsubr
-401 -307 -44 callgsubr
return
                    </CharString>
                    <CharString index="74">
                        rmoveto
188 244 5 91 -189 246 -67 -52 188 -241 -191 -233 rlineto
return
                    </CharString>
                    <CharString index="75">
                        -6 callgsubr
133 -64 56 -98 return
                    </CharString>
                    <CharString index="76">
                        -21 538 -20 23 61 callgsubr
return
                    </CharString>
                    <CharString index="77">
                        -147 125 -57 -54 return
                    </CharString>
                    <CharString index="78">
                        100 15 -164 297 rlineto
66 48 50 63 89 vvcurveto
141 -107 91 -317 -46 vhcurveto
return
                    </CharString>
                    <CharString index="79">
                        -54 callsubr
60 callsubr
return
                    </CharString>
                    <CharString index="80">
                        3 -522 rlineto
-4 hlineto
-249 522 rlineto
-98 -688 87 hlineto
return
                    </CharString>
                    <CharString index="81">
                        178 -23 callgsubr
return
                    </CharString>
                    <CharString index="82">
                        rmoveto
-371 -79 371 hlineto
return
                    </CharString>
                    <CharString index="83">
                        653 -94 callsubr
return
                    </CharString>
                    <CharString index="84">
                        17 callgsubr
37 callsubr
return
                    </CharString>
                    <CharString index="85">
                        -173 373 -100 -4 223 -458 rlineto
-228 vlineto
endchar
                    </CharString>
                    <CharString index="86">
                        hintmask 11011000
518 -9 1 callgsubr
hintmask 11101000
30 callgsubr
hintmask 11011000
74 callsubr
return
                    </CharString>
                    <CharString index="87">
                        -51 callsubr
25 callsubr
return
                    </CharString>
                    <CharString index="88">
                        rmoveto
hintmask 01011100
35 callgsubr
-690 vlineto
hintmask 10101100
35 callsubr
-94 -15 rmoveto
54 callgsubr
542 vlineto
54 callsubr
endchar
                    </CharString>
                    <CharString index="89">
                        -31 callgsubr
hstem
87 callgsubr
return
                    </CharString>
                    <CharString index="90">
                        -28 callsubr
hintmask 00111100
return
                    </CharString>
                    <CharString index="91">
                        139 -306 25 90 vvcurveto
43 60 38 223 -20 vhcurveto
return
                    </CharString>
                    <CharString index="92">
                        190 -3 142 -2 99 vhcurveto
29 42 44 19 53 hhcurveto
return
                    </CharString>
                    <CharString index="93">
                        17 callsubr
179 70 -67 return
                    </CharString>
                    <CharString index="94">
                        151 rlineto
return
                    </CharString>
                    <CharString index="95">
                        632 83 callsubr
146 -80 callsubr
vstem
481 632 -89 callgsubr
endchar
                    </CharString>
                    <CharString index="96">
                        rmoveto
hintmask 01110000
44 callgsubr
hintmask 10110000
-65 callgsubr
endchar
                    </CharString>
                    <CharString index="97">
                        196 -159 rlineto
return
                    </CharString>
                    <CharString index="98">
                        rmoveto
240 197 96 163 161 vvcurveto
157 -95 160 -237 196 vhcurveto
-62 -59 rlineto
222 -175 82 -143 -140 vvcurveto
-141 -81 -141 -227 -178 vhcurveto
endchar
                    </CharString>
                    <CharString index="99">
                        776 -52 callgsubr
return
                    </CharString>
                    <CharString index="100">
                        627 74 hstem
103 420 vstem
309 627 -104 callgsubr
endchar
                    </CharString>
                    <CharString index="101">
                        480 472 rmoveto
-92 callsubr
return
                    </CharString>
                    <CharString index="102">
                        7 -21 hstem
365 81 vstem
261 -14 rmoveto
-4 callgsubr
47 -47 53 -115 55 vhcurveto
endchar
                    </CharString>
                    <CharString index="103">
                        0 8 -2 3 -4 -4 -2 -3 57 callgsubr
0 -9 2 -3 4 4 2 3 57 callgsubr
return
                    </CharString>
                    <CharString index="104">
                        222 459 rlineto
-97 hlineto
-169 -371 rlineto
return
                    </CharString>
                    <CharString index="105">
                        37 callgsubr
9 callgsubr
return
                    </CharString>
                    <CharString index="106">
                        hstem
-26 callsubr
vstem
return
                    </CharString>
                    <CharString index="107">
                        64.5 return
                    </CharString>
                    <CharString index="108">
                        -16 callgsubr
239 92 return
                    </CharString>
                    <CharString index="109">
                        52 168 59 hstem
140 69 203 72 vstem
225 return
                    </CharString>
                    <CharString index="110">
                        8 69 rlineto
-184 hlineto
-1 128 -2 106 -1 94 rrcurveto
return
                    </CharString>
                    <CharString index="111">
                        60 167 51 hstem
141 70 204 70 vstem
312 return
                    </CharString>
                    <CharString index="112">
                        -244 56 194 -21 29 -21 166 56 return
                    </CharString>
                    <CharString index="113">
                        -307 232 hstem
267 93 vstem
241 -65 callsubr
                    </CharString>
                    <CharString index="114">
                        -87 -120 -68 -122 -50 -126 return
                    </CharString>
                    <CharString index="115">
                        hstem
68 92 306 91 vstem
return
                    </CharString>
                    <CharString index="116">
                        619 238 hstem
187 286 vstem
187 -68 callsubr
endchar
                    </CharString>
                    <CharString index="117">
                        21 -21 688 -20 22 -20 hstemhm
266 94 hintmask 10110000
return
                    </CharString>
                    <CharString index="118">
                        632 -52 callgsubr
return
                    </CharString>
                    <CharString index="119">
                        613 279 hstem
261 88 vstem
233 -28 callgsubr
endchar
                    </CharString>
                    <CharString index="120">
                        67 320.5 -3 callgsubr
return
                    </CharString>
                    <CharString index="121">
                        168 -8 rlineto
-633 -177 -69 vlineto
return
                    </CharString>
                    <CharString index="122">
                        rmoveto
184 22 53 51 73 193 rrcurveto
return
                    </CharString>
                    <CharString index="123">
                        -51 47 -33 54 -29 vhcurveto
return
                    </CharString>
                    <CharString index="124">
                        hstemhm
143 72 -64 74 return
                    </CharString>
                    <CharString index="125">
                        778 -20 hstem
159 286 vstem
445 -24 callsubr
endchar
                    </CharString>
                    <CharString index="126">
                        -67 callgsubr
66 callgsubr
return
                    </CharString>
                    <CharString index="127">
                        38 callsubr
8 callsubr
return
                    </CharString>
                    <CharString index="128">
                        100 callsubr
286 88 vstem
return
                    </CharString>
                    <CharString index="129">
                        rmoveto
-87 -62 67 138 138 76 74 101 28 30 -6 -10 31 hvcurveto
-151 1 -110 2 -94 vhcurveto
-27 -33 -41 -19 -46 hhcurveto
return
                    </CharString>
                    <CharString index="130">
                        rmoveto
212 79 -514 hlineto
-7 -79 rlineto
215 -609 94 hlineto
return
                    </CharString>
                    <CharString index="131">
                        -67 callgsubr
88 56 callsubr
return
                    </CharString>
                    <CharString index="132">
                        92 callgsubr
241 91 return
                    </CharString>
                    <CharString index="133">
                        69 callsubr
hstem
392 74 vstem
480 return
                    </CharString>
                    <CharString index="134">
                        85.5 return
                    </CharString>
                    <CharString index="135">
                        97 14 -209 276 69 81 65 87 62 89 rlinecurve
-92 7 -58 -85 -58 -76 -64 -75 rlinecurve
-84 -2 rlineto
475 vlineto
return
                    </CharString>
                    <CharString index="136">
                        31 callgsubr
hstemhm
105 91 243 91 hintmask 11011000
return
                    </CharString>
                    <CharString index="137">
                        15 callgsubr
hintmask 10110000
-8 -65 rlineto
hintmask 11010000
14 callsubr
return
                    </CharString>
                    <CharString index="138">
                        136 16 68 43 56 vvcurveto
return
                    </CharString>
                    <CharString index="139">
                        36 callsubr
hstemhm
54 515 hintmask 10110000
return
                    </CharString>
                    <CharString index="140">
                        -9 76 407 70 151 50 callsubr
203 90 return
                    </CharString>
                    <CharString index="141">
                        47 callgsubr
67 callgsubr
return
                    </CharString>
                    <CharString index="142">
                        309 -46 153 135 270 vvcurveto
return
                    </CharString>
                    <CharString index="143">
                        -176 -21 741 61 callgsubr
return
                    </CharString>
                    <CharString index="144">
                        -64 62 -45 98 vhcurveto
return
                    </CharString>
                    <CharString index="145">
                        -16 75 425 75 return
                    </CharString>
                    <CharString index="146">
                        -94 10 -35 17 27 vvcurveto
26 32 34 113 53 vhcurveto
return
                    </CharString>
                    <CharString index="147">
                        rmoveto
53 callgsubr
52 callsubr
return
                    </CharString>
                    <CharString index="148">
                        102 13 -235 346 219 336 rlineto
-100 hlineto
-191 -302 rlineto
-75 302 -94 hlineto
return
                    </CharString>
                    <CharString index="149">
                        25 callsubr
hintmask 1000011110000000
return
                    </CharString>
                    <CharString index="150">
                        -171 -21 234 73 364 77 return
                    </CharString>
                    <CharString index="151">
                        79 -10 -20 hstemhm
101 92 276 94 return
                    </CharString>
                    <CharString index="152">
                        893 -25 callsubr
return
                    </CharString>
                    <CharString index="153">
                        60.5 return
                    </CharString>
                    <CharString index="154">
                        -89 callgsubr
hintmask 11110010
return
                    </CharString>
                    <CharString index="155">
                        rmoveto
61 63 -257 229 263 227 -60 63 -271 -245 -5 -91 rlineto
endchar
                    </CharString>
                    <CharString index="156">
                        86 5 rlineto
-6 124 -3 172 244 vvcurveto
return
                    </CharString>
                    <CharString index="157">
                        -20 28 -20 hstemhm
return
                    </CharString>
                    <CharString index="158">
                        43 callgsubr
103 61 return
                    </CharString>
                    <CharString index="159">
                        0 -9 -7 -7 -9 -9 -7 6 57 callgsubr
return
                    </CharString>
                    <CharString index="160">
                        16 callgsubr
hintmask 10011111
return
                    </CharString>
                    <CharString index="161">
                        199 24 77 -90 -207 vvcurveto
return
                    </CharString>
                    <CharString index="162">
                        -7 82 536 82 hstem
101 96 return
                    </CharString>
                    <CharString index="163">
                        151 hstemhm
return
                    </CharString>
                    <CharString index="164">
                        rmoveto
360 hlineto
8 73 rlineto
-281 822 276 74 -363 hlineto
endchar
                    </CharString>
                    <CharString index="165">
                        rmoveto
-4 -74 rlineto
364 970 -361 -75 275 -821 hlineto
endchar
                    </CharString>
                    <CharString index="166">
                        -3 66 callsubr
endchar
                    </CharString>
                    <CharString index="167">
                        hstemhm
47 531 return
                    </CharString>
                    <CharString index="168">
                        -17 77 -48 -21 637 77 -8 -20 hstemhm
57 95 321 94 hintmask 10101100
return
                    </CharString>
                    <CharString index="169">
                        -16 75 -40 -21 487 74 -14 -20 hstemhm
68 91 309 89 hintmask 10101100
return
                    </CharString>
                    <CharString index="170">
                        -56 callsubr
24.5 94 33 -56 callsubr
return
                    </CharString>
                    <CharString index="171">
                        -7 79 -55 -21 470 86 return
                    </CharString>
                    <CharString index="172">
                        8 79 rlineto
-333 return
                    </CharString>
                    <CharString index="173">
                        532 rlineto
5 hlineto
return
                    </CharString>
                    <CharString index="174">
                        77 callgsubr
103 61 103 return
                    </CharString>
                    <CharString index="175">
                        64 hstem
152 335 vstem
283 return
                    </CharString>
                    <CharString index="176">
                        64 320 64 return
                    </CharString>
                    <CharString index="177">
                        vstem
551 hmoveto
27 callgsubr
return
                    </CharString>
                    <CharString index="178">
                        0 79 122 70 42 70 226 79 hstem
298 81 vstem
return
                    </CharString>
                    <CharString index="179">
                        55 callgsubr
-2 -130 rlineto
hintmask 11100000
return
                    </CharString>
                    <CharString index="180">
                        -62 106 -54 -58 vvcurveto
-49 -87 -45 -200 -56 vhcurveto
endchar
                    </CharString>
                    <CharString index="181">
                        -134 79 -52 236 3 vhcurveto
return
                    </CharString>
                    <CharString index="182">
                        88 688 -87 hlineto
return
                    </CharString>
                    <CharString index="183">
                        5 callgsubr
hintmask 11010000
return
                    </CharString>
                    <CharString index="184">
                        10 hlineto
0 6 -1 3 -4 -3 -2 -2 57 callgsubr
return
                    </CharString>
                    <CharString index="185">
                        -6 2 -3 5 4 2 2 4 1 vhcurveto
5 hlineto
return
                    </CharString>
                    <CharString index="186">
                        75 callgsubr
158 56.5 return
                    </CharString>
                    <CharString index="187">
                        113 97 -103 -182 -184 -96 -102 -117 return
                    </CharString>
                    <CharString index="188">
                        hintmask 010000000000000000000000000000000000000000000000
return
                    </CharString>
                    <CharString index="189">
                        -170 -21 30 -21 169 return
                    </CharString>
                    <CharString index="190">
                        151 hstem
return
                    </CharString>
                    <CharString index="191">
                        75 219 50 callsubr
107 91 268 return
                    </CharString>
                    <CharString index="192">
                        0 79 386 79 return
                    </CharString>
                    <CharString index="193">
                        83 5 rlineto
return
                    </CharString>
                    <CharString index="194">
                        hstemhm
81 90 return
                    </CharString>
                    <CharString index="195">
                        rmoveto
9 73 rlineto
-94 10 -36 17 27 vvcurveto
return
                    </CharString>
                    <CharString index="196">
                        21 -21 609 79 hstem
266 94 vstem
return
                    </CharString>
                    <CharString index="197">
                        hstemhm
262 81 -80 86 13 90 -84 87 return
                    </CharString>
                    <CharString index="198">
                        77 hstem
93 438 vstem
return
                    </CharString>
                    <CharString index="199">
                        -53 -52 119 -87 hhcurveto
-65 -45 -59 return
                    </CharString>
                    <CharString index="200">
                        -243 60 167 51 273 61 return
                    </CharString>
                    <CharString index="201">
                        1034 hstem
130 90 vstem
466 return
                    </CharString>
                    <CharString index="202">
                        54 vstem
53 337 rmoveto
-206 return
                    </CharString>
                    <CharString index="203">
                        vvcurveto
-54 56 -38 150 -12 vhcurveto
return
                    </CharString>
                    <CharString index="204">
                        55 -39 151 -11 vhcurveto
endchar
                    </CharString>
                    <CharString index="205">
                        hmoveto
5 133 rlineto
return
                    </CharString>
                    <CharString index="206">
                        132.5 return
                    </CharString>
                    <CharString index="207">
                        hstem
80 90 return
                    </CharString>
                <CharString name=".notdef">
                    443 -200 50 900 50 hstem
5 54 432 54 vstem
5 -200 rmoveto
540 1000 -540 hlineto
77 -50 rmoveto
386 hlineto
-193 -390 rlineto
216 316 rmoveto
-752 vlineto
-186 376 rlineto
-246 -376 rmoveto
752 vlineto
186 -376 rlineto
30 -60 rmoveto
193 -390 rlineto
-386 hlineto
endchar
                </CharString>
                <CharString name="A">
                    -28 callsubr
hintmask 10011100
484 -4 -103 callsubr
                </CharString>
                <CharString name="AE">
                    71 callsubr
292 609 -39 callsubr
                </CharString>
                <CharString name="AEacute">
                    71 callsubr
245 -85 callgsubr
47 -195 -39 callsubr
                </CharString>
                <CharString name="Aacute">
                    -17 callsubr
195 -85 callgsubr
hintmask 10011100
289 -808 -103 callsubr
                </CharString>
                <CharString name="Abreve">
                    -54 callsubr
81 74 60 callsubr
hintmask 00111110
310 -70 callgsubr
hintmask 10011110
174 -775 -82 callgsubr
                </CharString>
                <CharString name="Acircumflex">
                    -17 callsubr
452 -49 callgsubr
hintmask 10011100
179 -895 -103 callsubr
                </CharString>
                <CharString name="Adieresis">
                    -54 callsubr
86 56 callsubr
144 -80 callsubr
hintmask 00111111
479 776 -89 callgsubr
hintmask 10011111
340 -780 -48 callsubr
                </CharString>
                <CharString name="Agrave">
                    -17 callsubr
423 -44 callsubr
hintmask 10011100
88 -761 -103 callsubr
                </CharString>
                <CharString name="Amacron">
                    -54 callsubr
124 79 60 callsubr
hintmask 00111110
496 45 callsubr
hintmask 10011110
-12 -818 -82 callgsubr
                </CharString>
                <CharString name="Aogonek">
                    -236 73 184 58 callgsubr
22 -21 206 69 330 80 hstemhm
347 85 hintmask 10011110
553 -236 88 callsubr
hintmask 10101110
26 32 34 114 53 vhcurveto
-40 callgsubr
rrcurveto
-131 hlineto
hintmask 11001110
-90 callsubr
hintmask 10011110
18 -69 19 -68 18 -69 rrcurveto
-97 -52 -38 -43 -42 vvcurveto
-54 56 -39 150 -11 vhcurveto
-246 846 -95 callgsubr
                </CharString>
                <CharString name="Aring">
                    -54 callsubr
62 235 60 callsubr
hintmask 00111110
309 987 -62 callgsubr
hintmask 10011110
175 -991 -82 callgsubr
                </CharString>
                <CharString name="Aringacute">
                    -17 callsubr
195 1073 -107 callgsubr
114 -86 -62 callgsubr
hintmask 10011100
175 -991 -103 callsubr
                </CharString>
                <CharString name="Atilde">
                    -54 callsubr
83 95 callgsubr
60 callsubr
hintmask 00111111
396 773 -89 callsubr
hintmask 10011111
88 -777 -48 callsubr
                </CharString>
                <CharString name="B">
                    -10 76 -45 -21 311 68 243 75 -9 -20 hstemhm
112 92 240 90 -69 92 hintmask 10110101
557 196 rmoveto
-1 94 -59 51 -94 19 rrcurveto
hintmask 01101110
76 27 55 54 88 vvcurveto
151 -164 38 -258 -30 vhcurveto
-688 vlineto
hintmask 10110101
253 -34 193 53 -1 177 rrcurveto
-353 422 rmoveto
hintmask 10110110
147 16 93 -30 -97 vvcurveto
-92 -63 -40 -177 4 vhcurveto
hintmask 10110101
-307 vmoveto
239 vlineto
173 6 88 -22 -104 vvcurveto
-111 -99 -30 -162 22 vhcurveto
endchar
                </CharString>
                <CharString name="C">
                    69 callgsubr
539 77 -64 callsubr
                </CharString>
                <CharString name="Cacute">
                    69 callgsubr
237 -85 callgsubr
302 -727 -64 callsubr
                </CharString>
                <CharString name="Ccaron">
                    69 callgsubr
363 -51 callgsubr
181 -683 -64 callsubr
                </CharString>
                <CharString name="Ccedilla">
                    -7 84 -81 81 -73 -21 45 -21 600 90 hstemhm
80 96 185 81 hintmask 10001110
442 -125 rmoveto
hintmask 00011110
40 -35 45 -82 47 vhcurveto
hintmask 01001110
56 -12 68 -5 82 6 rrcurveto
hintmask 10001110
8 81 rlineto
-62 callsubr
hintmask 00101110
-142 48 -119 147 -51 vhcurveto
-18 -37 rlineto
-17 callgsubr
7 -71 rlineto
hintmask 10001110
31 callsubr
endchar
                </CharString>
                <CharString name="Cdotaccent">
                    17 -21 611 90 79 83 callsubr
80 96 99 callsubr
94 vstem
400 -8 callsubr
232 -699 -64 callsubr
                </CharString>
                <CharString name="D">
                    62 callgsubr
563 358 -19 callsubr
                </CharString>
                <CharString name="Dcaron">
                    62 callgsubr
311 767 -90 callgsubr
257 -409 -19 callsubr
                </CharString>
                <CharString name="Dcroat">
                    -55 callgsubr
                </CharString>
                <CharString name="E">
                    -18 callsubr
vstem
546 79 -76 callgsubr
                </CharString>
                <CharString name="Eacute">
                    -18 callsubr
vstem
217 -85 callgsubr
329 -725 -76 callgsubr
                </CharString>
                <CharString name="Ebreve">
                    -31 callgsubr
83 74 hstem
87 callgsubr
vstem
333 -70 callgsubr
213 -692 -76 callgsubr
                </CharString>
                <CharString name="Ecaron">
                    -18 callsubr
vstem
343 -51 callgsubr
208 -681 -76 callgsubr
                </CharString>
                <CharString name="Ecircumflex">
                    -18 callsubr
vstem
474 -49 callgsubr
219 -812 -76 callgsubr
                </CharString>
                <CharString name="Edieresis">
                    -31 callgsubr
88 56 callsubr
87 callgsubr
-50 -80 callsubr
hintmask 11111010
502 776 rmoveto
-86 callsubr
hintmask 11110110
-73 callgsubr
379 -697 rmoveto
hintmask 11111010
-81 callgsubr
                </CharString>
                <CharString name="Edotaccent">
                    -31 callgsubr
88 83 callsubr
87 callgsubr
99 callgsubr
94 vstem
380 -8 callsubr
259 -697 -76 callgsubr
                </CharString>
                <CharString name="Egrave">
                    -18 callsubr
vstem
446 -44 callsubr
127 -678 -76 callgsubr
                </CharString>
                <CharString name="Emacron">
                    -31 callgsubr
126 79 hstem
87 callgsubr
vstem
519 45 callsubr
27 -735 -76 callgsubr
                </CharString>
                <CharString name="Eogonek">
                    -18 callsubr
91 85 vstem
522 -167 rmoveto
39 callsubr
8 79 rlineto
-76 callsubr
315 hlineto
-94 -52 -36 -42 -42 74 callgsubr
endchar
                </CharString>
                <CharString name="Eth">
                    -55 callgsubr
                </CharString>
                <CharString name="Euro">
                    215 68 -59 61 107 62 hstemhm
144 84 hintmask 01110000
546 53 rmoveto
-190 27 -81 54 -31 90 rrcurveto
234 hlineto
4 61 rlineto
-251 hlineto
-2 19 -1 20 22 vvcurveto
16 0 16 1 14 vhcurveto
254 hlineto
4 62 rlineto
-248 hlineto
25 94 76 47 198 30 -15 88 rcurveline
-237 -45 -97 -86 -32 -122 rrcurveto
-82 -68 71 hlineto
hintmask 10110000
-1 -16 -1 -17 -17 vvcurveto
-20 1 -20 2 -19 vhcurveto
-72 -68 84 hlineto
36 -130 106 -82 232 -26 rrcurveto
endchar
                </CharString>
                <CharString name="F">
                    21 -21 299 73 237 79 hstem
130 94 vstem
508 299 rmoveto
73 -284 237 329 79 -423 -688 94 299 vlineto
endchar
                </CharString>
                <CharString name="G">
                    86 callgsubr
hstem
67 95 286 87 vstem
536 7 -82 callsubr
endchar
                </CharString>
                <CharString name="Gbreve">
                    86 callgsubr
74 74 hstem
67 95 286 87 vstem
330 -70 callgsubr
206 -764 -82 callsubr
endchar
                </CharString>
                <CharString name="Gcommaaccent">
                    86 callgsubr
hstem
67 95 129 93 64 87 vstem
536 7 -82 callsubr
-271 -310 -99 callgsubr
                </CharString>
                <CharString name="Gdotaccent">
                    86 callgsubr
79 83 callsubr
67 95 124.5 94 67.5 87 vstem
378 -8 callsubr
251 -769 -82 callsubr
endchar
                </CharString>
                <CharString name="H">
                    21 -21 312 73 303 -20 hstem
95 94 246 95 vstem
435 hmoveto
95 688 -95 -303 -246 303 -94 -688 94 312 246 hlineto
endchar
                </CharString>
                <CharString name="Hbar">
                    21 -21 297 72 123 66 -63 60 -60 193 hstemhm
95 94 246 95 hintmask 11010110
435 369 rmoveto
-246 126 246 hlineto
-495 vmoveto
95 hlineto
hintmask 11100110
492 78 66 -78 vlineto
hintmask 11001110
130 -95 vlineto
hintmask 11010110
-133 -246 vlineto
hintmask 11001110
133 -94 vlineto
hintmask 11100110
-130 -78 -66 78 -492 94 297 246 vlineto
endchar
                </CharString>
                <CharString name="I">
                    34 callsubr
359 615 -79 callgsubr
                </CharString>
                <CharString name="Iacute">
                    34 callsubr
198 -85 callgsubr
161 -189 -79 callgsubr
                </CharString>
                <CharString name="Ibreve">
                    47 callgsubr
83 74 67 callgsubr
314 -70 callgsubr
45 -156 -79 callgsubr
                </CharString>
                <CharString name="Icircumflex">
                    34 callsubr
455 -49 callgsubr
51 -276 -79 callgsubr
                </CharString>
                <CharString name="Idieresis">
                    47 callgsubr
88 56 callsubr
148 63 callsubr
hintmask 11101100
483 776 rmoveto
-86 callsubr
hintmask 11111100
-73 callgsubr
hintmask 11101100
211 -161 -79 callgsubr
                </CharString>
                <CharString name="Idotaccent">
                    47 callgsubr
88 56 callsubr
265 94 -88.5 94 hintmask 11101000
362 -8 callsubr
hintmask 11110000
90 -161 -79 callgsubr
                </CharString>
                <CharString name="Igrave">
                    34 callsubr
427 -44 callsubr
-41 -142 -79 callgsubr
                </CharString>
                <CharString name="Imacron">
                    47 callgsubr
126 79 67 callgsubr
500 45 callsubr
-141 -199 -79 callgsubr
                </CharString>
                <CharString name="Iogonek">
                    -237 73 164 74 541 73 hstemhm
185 85 -5 94 hintmask 11101000
399 -164 rmoveto
hintmask 11110000
-94 9 -35 18 29 vvcurveto
26 20 30 64 52 vhcurveto
173 hlineto
7 74 rlineto
hintmask 11101000
-175 541 -36 callgsubr
hlineto
hintmask 11110000
-170 -74 180 hlineto
-64 -50 -26 -39 -40 vvcurveto
-58 97 callsubr
                </CharString>
                <CharString name="J">
                    -11 83 541 75 hstem
383 94 vstem
146 688 rmoveto
-75 237 -389 vlineto
-132 -34 -30 -245 10 vhcurveto
-83 vlineto
283 -7 90 74 168 vvcurveto
464 vlineto
endchar
                </CharString>
                <CharString name="K">
                    71 callgsubr
hintmask 10011100
100 callgsubr
hintmask 00111100
41 callsubr
hintmask 01011100
-688 94 310 70 vlineto
endchar
                </CharString>
                <CharString name="Kcommaaccent">
                    71 callgsubr
72 93 hintmask 10011110
100 callgsubr
hintmask 00111110
41 callsubr
hintmask 01011110
-688 94 310 70 vlineto
-24 -610 -99 callgsubr
                </CharString>
                <CharString name="L">
                    46 callgsubr
70 callsubr
endchar
                </CharString>
                <CharString name="Lacute">
                    46 callgsubr
vstem
226 -85 callgsubr
325 -804 rmoveto
27 callgsubr
endchar
                </CharString>
                <CharString name="Lcaron">
                    0 79 609 -20 110 65 callgsubr
218 88 vstem
416 513 -50 callgsubr
135 -513 rmoveto
27 callgsubr
endchar
                </CharString>
                <CharString name="Lcommaaccent">
                    46 callgsubr
77 93 70 callsubr
144 -65 callsubr
                </CharString>
                <CharString name="Ldot">
                    0 79 216 121 272 65 callgsubr
206.5 103.5 70 callsubr
400 295 rmoveto
6 121 rlineto
-103 hlineto
-7 -121 rlineto
endchar
                </CharString>
                <CharString name="Lslash">
                    46 callgsubr
vstem
551 hmoveto
65 callsubr
296 hlineto
167 86 -15 63 -152 -78 rlineto
242 -93 -290 vlineto
-91 -47 15 -64 76 39 rlineto
-326 vlineto
endchar
                </CharString>
                <CharString name="M">
                    21 -21 120 112 300 156 hstem
80 83 294 86 vstem
440 688 rmoveto
0 -109 -398 -15 -58 vhcurveto
-5 hlineto
-16 58 -110 398 0 vvcurveto
-105 -688 85 hlineto
-4 66 callsubr
114 -412 rlineto
63 hlineto
112 412 rlineto
4 hlineto
-4 -532 rlineto
88 688 hlineto
endchar
                </CharString>
                <CharString name="N">
                    -21 callgsubr
442 hmoveto
-33 callgsubr
                </CharString>
                <CharString name="NUL">
                    -107 endchar
                </CharString>
                <CharString name="Nacute">
                    -21 callgsubr
195 -85 callgsubr
247 -804 rmoveto
-33 callgsubr
                </CharString>
                <CharString name="Ncaron">
                    -21 callgsubr
321 -51 callgsubr
126 -760 rmoveto
-33 callgsubr
                </CharString>
                <CharString name="Ncommaaccent">
                    -19 callgsubr
91.5 93 79.5 27 callsubr
hintmask 01011110
442 hmoveto
75 callsubr
hintmask 10011110
-27 callsubr
hintmask 01101110
-3 66 callsubr
62 -825 -99 callgsubr
                </CharString>
                <CharString name="Ntilde">
                    -1 callgsubr
105 95 callgsubr
hstemhm
95 27 callsubr
264 27 callsubr
hintmask 01011111
396 773 -89 callsubr
46 -773 rmoveto
75 callsubr
hintmask 10011111
-27 callsubr
hintmask 01101111
59 callsubr
                </CharString>
                <CharString name="O">
                    -2 callgsubr
300 -17 -106 callgsubr
                </CharString>
                <CharString name="OE">
                    -31 callgsubr
hstem
48 93 165 82 vstem
141 346 rmoveto
184 52 77 113 1 vhcurveto
-528 vlineto
-115 -50 78 188 hvcurveto
432 -267 rmoveto
-185 234 151 70 -151 226 181 79 -236 hlineto
-192 -93 -129 -228 -229 90 -102 193 hvcurveto
236 hlineto
endchar
                </CharString>
                <CharString name="Oacute">
                    -2 callgsubr
200 812 -107 callgsubr
100 -829 -106 callgsubr
                </CharString>
                <CharString name="Obreve">
                    38 callgsubr
74 74 8 callgsubr
315 779 -104 callgsubr
-15 -796 -106 callgsubr
                </CharString>
                <CharString name="Ocircumflex">
                    -2 callgsubr
457 774 -100 callsubr
-10 -916 -106 callgsubr
                </CharString>
                <CharString name="Odieresis">
                    38 callgsubr
79 56 callsubr
57 96 -3 -80 callsubr
-15.5 96 hintmask 11101100
485 784 47 callsubr
150 -801 -106 callgsubr
                </CharString>
                <CharString name="Ograve">
                    -2 callgsubr
428 805 -94 callsubr
-101 -782 -106 callgsubr
                </CharString>
                <CharString name="Ohungarumlaut">
                    -2 callgsubr
151 802 -88 callgsubr
-82 -818 -106 callgsubr
                </CharString>
                <CharString name="Omacron">
                    38 callgsubr
117 79 8 callgsubr
502 901 -25 callsubr
-202 -839 -106 callgsubr
                </CharString>
                <CharString name="Omega">
                    0 74 546 83 hstem
85 87 280 89 vstem
261 6 rmoveto
-60 162 -29 134 102 vvcurveto
136 50 80 91 90 49 -80 -138 -102 -27 -134 -60 -160 vhcurveto
1 -6 rlineto
202 74 -110 hlineto
56 130 27 117 98 vvcurveto
170 -78 114 -146 -148 -84 -114 -172 -97 27 -117 54 -129 vhcurveto
-108 -74 201 hlineto
endchar
                </CharString>
                <CharString name="Oslash">
                    61 callsubr
152 349 -67 callsubr
                </CharString>
                <CharString name="Oslashacute">
                    61 callsubr
196 812 -107 callgsubr
-44 -463 -67 callsubr
                </CharString>
                <CharString name="Otilde">
                    38 callgsubr
76 95 callgsubr
8 callgsubr
401 781 -89 callsubr
-101 -798 -106 callgsubr
                </CharString>
                <CharString name="P">
                    21 -21 222 82 316 78 -11 -20 hstemhm
116 93 263 92 hintmask 11101100
209 hmoveto
222 vlineto
212 15 143 77 163 vvcurveto
hintmask 11011100
169 -151 85 -297 -44 vhcurveto
-687 vlineto
hintmask 11101100
356 459 rmoveto
-125 -94 -43 -169 13 vhcurveto
311 vlineto
177 23 86 -62 -117 vvcurveto
endchar
                </CharString>
                <CharString name="Q">
                    -10 71 -55 -21 26 -21 637 78 hstemhm
57 96 318 96 hintmask 00111100
503 -150 rmoveto
27 77 -169 62 rlineto
1 vlineto
128 30 79 129 -1 211 rrcurveto
-71 callgsubr
hvcurveto
hintmask 01011100
-206 77 -121 134 -17 vhcurveto
-17 -46 rlineto
58 688 rmoveto
107 55 -99 -189 hvcurveto
hintmask 10011100
-183 -52 -95 -104 -107 -55 99 189 vhcurveto
hintmask 01011100
183 52 95 104 vhcurveto
endchar
                </CharString>
                <CharString name="R">
                    1 callsubr
hintmask 10011011
481 -11 -64 callgsubr
                </CharString>
                <CharString name="R_p">
                    82 callsubr
75 -51 -21 27 58 callgsubr
28 -21 248.5 0 callsubr
163 73 -11 -20 97 75 -10 -20 hstemhm
49 75 96 74 52 75 99 73 hintmask 0100100101011111
240 -4 rmoveto
hintmask 0100001101011111
75 11 -79 296 rlineto
36 44 22 66 89 vvcurveto
141 -59 84 -186 -40 vhcurveto
hintmask 0100010101101111
-687 75 254 vlineto
50 3 rlineto
-50 365 rmoveto
68 14 28 -47 -104 vvcurveto
-65 -14 -58 -21 -41 vhcurveto
-61 -2 rlineto
hintmask 0110000110011111
333 -257 rmoveto
-13 -12 2 7 -11 hvcurveto
177 -2 116 -1 94 vhcurveto
15 15 16 10 17 hhcurveto
38 16 -65 -146 -148 -16 -62 -47 hvcurveto
-36 -244 rmoveto
hintmask 0101000101011111
172 vlineto
hintmask 0110000110011111
-2 9 8 -1 9 hhcurveto
93 53 95 219 159 -29 96 -66 -34 -30 -23 -25 -20 hvcurveto
hintmask 1010000101011111
-3 37 -69 -5 rlineto
3 -113 1 -169 -260 vvcurveto
-189 vlineto
endchar
                </CharString>
                <CharString name="Racute">
                    1 callsubr
hintmask 00111011
184 813 -107 callgsubr
hintmask 10011011
297 -824 -64 callgsubr
                </CharString>
                <CharString name="Rcaron">
                    1 callsubr
hintmask 00111011
310 769 -90 callgsubr
hintmask 10011011
176 -780 -64 callgsubr
                </CharString>
                <CharString name="Rcommaaccent">
                    -16 callgsubr
97 93 49 92 hintmask 1001101110000000
481 -11 rmoveto
hintmask 0011011110000000
-29 callsubr
hintmask 0101101110000000
-55 callsubr
71 -623 -99 callgsubr
                </CharString>
                <CharString name="S">
                    80 callgsubr
102 79 -77 callsubr
endchar
                </CharString>
                <CharString name="Sacute">
                    80 callgsubr
216 808 -107 callgsubr
-114 -729 -77 callsubr
endchar
                </CharString>
                <CharString name="Scaron">
                    80 callgsubr
341 764 -90 callgsubr
-234 -685 -77 callsubr
endchar
                </CharString>
                <CharString name="Scedilla">
                    -7 82 -54 -21 611 82 hstemhm
101 96 129 81 36 96 hintmask 10111100
203 -249 rmoveto
31 callsubr
hintmask 01111100
41 -36 45 -84 48 vhcurveto
180 26 72 86 81 -70 callsubr
hintmask 10111100
-66 -90 -56 -251 21 vhcurveto
-1 -86 48 -3 43 1 40 3 rlinecurve
-10 -20 rlineto
-17 callgsubr
endchar
                </CharString>
                <CharString name="Scommaaccent">
                    55 callsubr
73 93 80 96 vstem
102 79 -77 callsubr
142 -384 -99 callgsubr
                </CharString>
                <CharString name="T">
                    89 callsubr
360 609 23 callsubr
endchar
                </CharString>
                <CharString name="Tcaron">
                    89 callsubr
319 -51 callgsubr
46 -151 23 callsubr
endchar
                </CharString>
                <CharString name="Tcommaaccent">
                    21 -21 609 79 hstemhm
266 94 -90 93 hintmask 11100000
360 609 23 callsubr
-116 -293 rmoveto
hintmask 11010000
-59 callsubr
hintmask 11100000
-79 callsubr
                </CharString>
                <CharString name="Thorn">
                    0 198 -177 -21 115 83 305 76 -76 185 hstemhm
116 94 264 93 hintmask 01101110
210 hmoveto
115 vlineto
213 15 144 75 161 vvcurveto
hintmask 01110110
150 -124 81 -233 -18 vhcurveto
hintmask 01101110
109 -94 -688 vlineto
358 348 rmoveto
hintmask 10001110
-120 -95 -41 -169 11 vhcurveto
301 vlineto
hintmask 01101110
174 21 90 -59 -113 vvcurveto
endchar
                </CharString>
                <CharString name="U">
                    -2 callsubr
307 -17 -100 callgsubr
                </CharString>
                <CharString name="Uacute">
                    -2 callsubr
196 -85 callgsubr
111 -821 -100 callgsubr
                </CharString>
                <CharString name="Ubreve">
                    37 callgsubr
103 74 9 callgsubr
311 -70 callgsubr
-4 -788 -100 callgsubr
                </CharString>
                <CharString name="Ucircumflex">
                    -2 callsubr
453 -49 callgsubr
1 -908 -100 callgsubr
                </CharString>
                <CharString name="Udieresis">
                    37 callgsubr
108 56 callsubr
90 94 -38 -80 callsubr
-42.5 94 hintmask 11101100
481 776 47 callsubr
161 -793 -100 callgsubr
                </CharString>
                <CharString name="Ugrave">
                    -2 callsubr
424 -44 callsubr
-90 -774 -100 callgsubr
                </CharString>
                <CharString name="Uhungarumlaut">
                    -2 callsubr
147 794 -88 callgsubr
-71 -810 -100 callgsubr
                </CharString>
                <CharString name="Umacron">
                    37 callgsubr
146 79 9 callgsubr
498 45 callsubr
-191 -831 -100 callgsubr
                </CharString>
                <CharString name="Uogonek">
                    -18 82 624 -20 hstemhm
90 94 23 85 148 94 vstemhm
413 -240 rmoveto
9 73 rlineto
-95 10 -35 18 28 vvcurveto
31 35 28 95 62 vhcurveto
79 51 33 61 105 vvcurveto
-42 callgsubr
vhcurveto
hintmask 11101000
-81 -50 52 113 hvcurveto
459 -94 -466 vlineto
-148 75 -85 134 -7 vhcurveto
hintmask 11111000
-69 -43 -23 -37 -38 96 callsubr
endchar
                </CharString>
                <CharString name="Uring">
                    37 callgsubr
84 235 9 callgsubr
311 987 -62 callgsubr
-4 -1004 -100 callgsubr
                </CharString>
                <CharString name="V">
                    -1 84 602 7 -4 -20 24 -20 hstemhm
49 526 hintmask 10011000
379 -1 rmoveto
hintmask 10101000
71 231 65 229 60 229 rrcurveto
-92 hlineto
-51 -202 -55 -201 -58 -202 rrcurveto
-10 hlineto
hintmask 10011000
-58 202 -55 205 -52 202 rrcurveto
hintmask 11001000
-95 -7 61 -230 65 -225 71 -231 rlinecurve
endchar
                </CharString>
                <CharString name="W">
                    11 callgsubr
411 hmoveto
-102 callsubr
                </CharString>
                <CharString name="Wacute">
                    11 callgsubr
200 -85 callgsubr
211 -804 rmoveto
-102 callsubr
                </CharString>
                <CharString name="Wcircumflex">
                    11 callgsubr
457 -49 callgsubr
101 -891 rmoveto
-102 callsubr
                </CharString>
                <CharString name="Wdieresis">
                    0 119 569 -20 108 56 callsubr
63 92 -5 -80 callsubr
-11.5 87 hintmask 11101100
485 776 -89 callgsubr
261 -776 rmoveto
hintmask 11110010
-102 callsubr
                </CharString>
                <CharString name="Wgrave">
                    11 callgsubr
428 -44 callsubr
10 -757 rmoveto
-102 callsubr
                </CharString>
                <CharString name="X">
                    18 -21 24 -21 24 -21 682 7 -4 -20 24 -20 hstemhm
51 526 hintmask 10000110
474 -3 rmoveto
hintmask 00101010
102 6 -204 341 205 344 rlineto
-101 hlineto
-158 -281 rlineto
hintmask 00100110
-165 285 rlineto
hintmask 01010010
-102 -7 204 -341 -203 -344 rlineto
99 hlineto
159 280 rlineto
endchar
                </CharString>
                <CharString name="Y">
                    10 callsubr
360 hmoveto
-58 callsubr
                </CharString>
                <CharString name="Yacute">
                    10 callsubr
199 806 -107 callgsubr
161 -806 rmoveto
-58 callsubr
                </CharString>
                <CharString name="Ycircumflex">
                    10 callsubr
456 768 -100 callsubr
51 -893 rmoveto
-58 callsubr
                </CharString>
                <CharString name="Ydieresis">
                    21 -21 688 -20 22 -20 108 56 callsubr
149 63 callsubr
hintmask 10110110
484 778 rmoveto
-86 callsubr
hintmask 10111110
-73 callgsubr
hintmask 11010110
211 -778 rmoveto
229 vlineto
-3 callsubr
hintmask 10110110
-22 callsubr
                </CharString>
                <CharString name="Ygrave">
                    10 callsubr
427 799 -94 callsubr
-40 -759 rmoveto
-58 callsubr
                </CharString>
                <CharString name="Z">
                    59 callgsubr
541 hmoveto
-45 callgsubr
                </CharString>
                <CharString name="Zacute">
                    59 callgsubr
209 -85 callgsubr
332 -804 rmoveto
-45 callgsubr
                </CharString>
                <CharString name="Zcaron">
                    59 callgsubr
335 -51 callgsubr
211 -760 rmoveto
-45 callgsubr
                </CharString>
                <CharString name="Zdotaccent">
                    0 81 526 81 88 83 callsubr
280.5 94 vstem
372 -8 callsubr
262 -776 rmoveto
-45 callgsubr
                </CharString>
                <CharString name="a">
                    -24 callgsubr
282 59 -98 callgsubr
                </CharString>
                <CharString name="aacute">
                    -24 callgsubr
194 664 -107 callgsubr
88 -605 -98 callgsubr
                </CharString>
                <CharString name="abreve">
                    -54 callgsubr
77 74 53 callsubr
310 631 -104 callgsubr
-28 -572 -99 callsubr
                </CharString>
                <CharString name="acircumflex">
                    -24 callgsubr
451 626 -100 callsubr
-22 -692 -98 callgsubr
                </CharString>
                <CharString name="acute">
                    9 callsubr
                </CharString>
                <CharString name="acute.cap">
                    9 callsubr
                </CharString>
                <CharString name="adieresis">
                    -54 callgsubr
82 151 87 callsubr
-27 -80 callsubr
-47.5 90 hintmask 1001110110000000
479 636 -89 callgsubr
138 -577 rmoveto
hintmask 1001111001000000
-74 callsubr
hintmask 1001110110000000
-32 -43 -56 -25 -55 hhcurveto
hintmask 0101110101000000
56 callgsubr
hintmask 0011111001000000
-102 callgsubr
hintmask 1001111001000000
-43 callsubr
hintmask 0101110101000000
-25 callgsubr
                </CharString>
                <CharString name="ae">
                    18 callgsubr
424 475 -75 callsubr
                </CharString>
                <CharString name="aeacute">
                    18 callgsubr
196 -68 callsubr
228 -185 -75 callsubr
                </CharString>
                <CharString name="agrave">
                    -54 callgsubr
228 -20 53 callsubr
423 657 -94 callsubr
-114 -558 -99 callsubr
                </CharString>
                <CharString name="amacron">
                    -54 callgsubr
120 79 53 callsubr
496 753 -25 callsubr
-214 -615 -99 callsubr
                </CharString>
                <CharString name="ampersand">
                    -13 75 555 84 hstemhm
48 88 -6 90 hintmask 11100000
581 43 rmoveto
-45 55 -41 48 -37 42 37 65 35 89 25 98 -79 9 rcurveline
-16 -75 -22 -73 -26 -59 rrcurveto
hintmask 11010000
-132 151 -60 64 58 vvcurveto
60 46 50 180 -8 vhcurveto
-6 84 rlineto
-236 4 -74 -100 -96 vvcurveto
-47 23 -44 44 -58 vhcurveto
hintmask 11100000
-98 -62 -51 -71 -83 vvcurveto
-88 56 -69 105 70 71 37 85 58 vhcurveto
31 -37 33 -41 36 -46 rrcurveto
-280 77 rmoveto
-61 -31 43 58 52 31 54 64 47 hvcurveto
36 -42 44 -51 54 -63 rrcurveto
-67 -43 -47 -31 -47 hhcurveto
endchar
                </CharString>
                <CharString name="aogonek">
                    -14 73 -36 -21 248 61 165 78 87 callsubr
129 85 48 90 hintmask 10111110
506 -238 88 callsubr
hintmask 01111110
26 32 34 114 53 vhcurveto
-103 callgsubr
hintmask 10111110
-87 65 -54 94 84 68 52 55 46 vhcurveto
2 -23 5 -38 2 -21 rrcurveto
-106 -56 -41 -45 -44 96 callsubr
-231 297 rmoveto
-63 -41 -41 callsubr
-44 1 -28 1 -30 vhcurveto
-48 -42 -61 -36 -57 hhcurveto
endchar
                </CharString>
                <CharString name="approxequal">
                    110 77 43 76 42 76 42 77 hstem
67 486 vstem
409 348 rmoveto
63 39 55 111 42 hvcurveto
-57 23 rlineto
-65 -28 -25 -48 -32 92 callsubr
-113 -42 hvcurveto
55 -23 rlineto
68 30 27 50 32 56 54 -118 88 hhcurveto
-238 vmoveto
63 39 56 112 42 hvcurveto
-56 23 rlineto
-66 -28 -25 -48 -33 92 callsubr
-112 -42 hvcurveto
56 -23 rlineto
68 30 26 50 33 55 54 -120 88 hhcurveto
endchar
                </CharString>
                <CharString name="aring">
                    -54 callgsubr
58 235 53 callsubr
309 847 -62 callgsubr
-27 -788 -99 callsubr
                </CharString>
                <CharString name="aringacute">
                    -24 callgsubr
194 936 -107 callgsubr
115 -89 -62 callgsubr
-27 -788 -98 callgsubr
                </CharString>
                <CharString name="asciicircum">
                    551 -20 hstem
68 493 vstem
493 174 rmoveto
68 48 -243 329 -18 -3 -232 -327 63 -47 178 256 rlineto
endchar
                </CharString>
                <CharString name="asciitilde">
                    217 84 75 84 hstem
47 531 vstem
422 217 rmoveto
67 46 75 135 43 hvcurveto
-61 23 rlineto
-86 -31 -27 -63 -35 -56 -73 159 -90 hhcurveto
-67 -50 -78 -132 -41 hvcurveto
61 -23 rlineto
86 29 28 63 34 58 75 -159 90 hhcurveto
endchar
                </CharString>
                <CharString name="asterisk">
                    305 463 hstem
82 476 vstem
413 305 rmoveto
51 31 -69 156 163 59 -14 57 -171 -17 -6 172 -61 5 -37 -169 -163 48 -24 -55 149 -87 -95 -140 45 -39 127 113 rlineto
endchar
                </CharString>
                <CharString name="asterisk.alt">
                    283 491 hstemhm
277 42.5 -13 42.5 hintmask 10100000
349 609 rmoveto
44 150 -85 15 -3 -157 rlineto
-43 -17 rmoveto
-108 113 -55 -66 133 -82 rlineto
169 -29 rmoveto
151 38 -29 81 -138 -75 rlineto
-160 -60 rmoveto
-151 -38 29 -80 138 75 rlineto
123 -20 rmoveto
109 -113 55 65 -133 83 rlineto
hintmask 11000000
-118 -44 rmoveto
-45 -150 86 -15 3 157 rlineto
endchar
                </CharString>
                <CharString name="at">
                    -174 73 166 72 320 75 152 74 hstem
62 77 104 82 145 80 vstem
505 -168 rmoveto
72 vlineto
-295 -35 -71 152 262 vvcurveto
267 96 134 120 73 34 -52 -100 7 vhcurveto
-134 6 -92 -87 -177 vvcurveto
-128 54 -81 74 44 30 21 36 31 vhcurveto
1 -18 2 -21 1 -10 76 9 rcurveline
-3 102 -3 97 218 vvcurveto
167 -57 92 -129 -174 -128 -190 -296 -289 103 -195 340 44 vhcurveto
-105 305 rmoveto
-49 -26 53 100 118 32 68 113 -24 hvcurveto
-280 vlineto
-20 -20 -22 -15 -28 hhcurveto
endchar
                </CharString>
                <CharString name="atilde">
                    -54 callgsubr
79 95 callgsubr
16 callgsubr
hintmask 1001111110000000
395 633 -89 callsubr
-113 -574 -84 callsubr
hintmask 0101111110000000
56 callgsubr
hintmask 0011111110000000
-102 callgsubr
hintmask 1001111110000000
-43 callsubr
hintmask 0101111110000000
-25 callgsubr
                </CharString>
                <CharString name="b">
                    -13 78 417 84 callsubr
90 hintmask 11011100
266 -13 rmoveto
152 138 117 193 159 -86 101 -117 -64 -52 -28 -34 -39 hvcurveto
289 vlineto
hintmask 11101100
-91 -8 rlineto
-761 vlineto
hintmask 11011100
-19 49 54 -9 56 hhcurveto
32 78 rmoveto
-33 -33 6 12 -34 hvcurveto
356 vlineto
26 35 43 17 42 hhcurveto
86 62 -73 -135 -138 -70 -71 -98 hvcurveto
endchar
                </CharString>
                <CharString name="backslash">
                    -201 1005 hstem
11 598 vstem
90 804 rmoveto
-79 -34 514 -971 84 25 rlineto
endchar
                </CharString>
                <CharString name="bar">
                    781 -20 hstem
271 85 vstem
271 781 rmoveto
-983 85 991 vlineto
endchar
                </CharString>
                <CharString name="braceleft">
                    254 70 callgsubr
-232 -58 callgsubr
                </CharString>
                <CharString name="braceleft.cap">
                    307 70 callgsubr
-179 -58 callgsubr
                </CharString>
                <CharString name="braceright">
                    256 65 90 callsubr
hintmask 10010000
111 -231 rmoveto
hintmask 10001000
255 81 89 77 77 vvcurveto
hintmask 11010000
63 callgsubr
hintmask 10110000
-121 8 -54 34 42 vvcurveto
hintmask 10010000
32 callgsubr
hintmask 10110000
-43 36 -44 92 -23 vhcurveto
hintmask 11010000
-93 -26 -36 -46 -41 vvcurveto
hintmask 10001000
73 callsubr
                </CharString>
                <CharString name="braceright.cap">
                    308 65 412 -20 90 callsubr
hintmask 11001000
111 -179 rmoveto
hintmask 11000100
255 81 89 77 77 vvcurveto
hintmask 11101000
63 callgsubr
hintmask 11011000
-121 8 -54 34 42 vvcurveto
hintmask 11001000
32 callgsubr
hintmask 11011000
-43 36 -44 92 -23 vhcurveto
hintmask 11101000
-93 -26 -36 -46 -41 vvcurveto
hintmask 11000100
73 callsubr
                </CharString>
                <CharString name="bracketleft">
                    -198 84 callgsubr
-198 57 callsubr
                </CharString>
                <CharString name="bracketleft.cap">
                    -145 84 callgsubr
-145 57 callsubr
                </CharString>
                <CharString name="bracketright">
                    -198 90 callgsubr
-124 58 callsubr
                </CharString>
                <CharString name="bracketright.cap">
                    -146 90 callgsubr
-72 58 callsubr
                </CharString>
                <CharString name="breve">
                    -7 callsubr
                </CharString>
                <CharString name="breve.cap">
                    -7 callsubr
                </CharString>
                <CharString name="bullet">
                    190 281 hstem
168 288 vstem
456 333 rmoveto
81 -60 57 -82 -81 -65 -55 -86 -82 61 -58 82 81 64 56 87 vhcurveto
endchar
                </CharString>
                <CharString name="bullet.alt">
                    210 241 hstem
193 237.5 vstem
429 210 rmoveto
3 241 rlineto
-238 hlineto
-2 -241 rlineto
endchar
                </CharString>
                <CharString name="c">
                    64 callsubr
hstemhm
95 90 hintmask 10110000
95 263 -11 callsubr
                </CharString>
                <CharString name="cacute">
                    64 callsubr
hstemhm
95 90 hintmask 10110000
225 -68 callsubr
-130 -397 -11 callsubr
                </CharString>
                <CharString name="caron">
                    -11 callgsubr
                </CharString>
                <CharString name="caron.alt">
                    12 callsubr
                </CharString>
                <CharString name="caron.alt.cap">
                    12 callsubr
                </CharString>
                <CharString name="caron.cap">
                    -11 callgsubr
                </CharString>
                <CharString name="ccaron">
                    64 callsubr
152 60 callgsubr
95 90 hintmask 10110110
350 4 callgsubr
hintmask 10111010
-30 callsubr
rlineto
hintmask 10110110
-10 callsubr
-250 -353 rmoveto
hintmask 01110110
44 callgsubr
hintmask 10110110
-65 callgsubr
endchar
                </CharString>
                <CharString name="ccedilla">
                    -7 79 -76 76 -51 -21 466 86 hstemhm
95 90 188 81 hintmask 10011100
454 -129 rmoveto
hintmask 00111100
39 -33 44 -79 46 vhcurveto
hintmask 01011100
50 -7 58 -2 68 5 rrcurveto
hintmask 10011100
-65 callgsubr
-117 46 -97 144 -38 vhcurveto
-16 -32 rlineto
-4 callgsubr
endchar
                </CharString>
                <CharString name="cdotaccent">
                    64 callsubr
80 56 callsubr
95 90 111.5 94 hintmask 10111100
388 11 callsubr
-200 -369 rmoveto
hintmask 01111100
44 callgsubr
hintmask 10111100
-65 callgsubr
endchar
                </CharString>
                <CharString name="cedilla">
                    -5 callsubr
                </CharString>
                <CharString name="cedilla.cap">
                    -5 callsubr
                </CharString>
                <CharString name="cent">
                    38 77 338 85 150 -20 hstem
91 86 vstem
177 301 rmoveto
69 35 61 132 19 vhcurveto
-40 -303 rlineto
-91 31 -36 53 70 vvcurveto
323 -263 rmoveto
10 77 -55 2 -48 6 -40 8 rlinecurve
40 325 34 1 39 -1 44 -3 rlinecurve
11 85 -41 2 -37 -1 -34 -2 rlinecurve
20 -13 callsubr
-79 hlineto
-19 -159 rlineto
-196 -32 -58 -103 -104 vvcurveto
-99 51 -81 145 -42 vhcurveto
-22 -162 rlineto
79 hlineto
17 145 41 -7 46 -4 52 -2 rlinecurve
endchar
                </CharString>
                <CharString name="check.1">
                    -27 786 -783.5 120.5 hstemhm
83 490 hintmask 10100000
573 729 rmoveto
-93 30 rlineto
hintmask 01100000
-76 -196 -65 -224 -50 -243 rrcurveto
-5 hlineto
-122 298 -79 -34 166 -387 80 5 rlineto
hintmask 10100000
65 270 81 252 98 229 rrcurveto
endchar
                </CharString>
                <CharString name="check.2">
                    7 -21 27 -21 36 -21 555 -20 hstemhm
103 452 hintmask 01011000
400 -8 rmoveto
87 20 -151 291 219 424 -90 34 -176 -389 -93 190 -84 -30 128 -240 rlineto
hintmask 00111000
-137 -285 rlineto
hintmask 10011000
59 -21 124 240 rlineto
endchar
                </CharString>
                <CharString name="circumflex">
                    7 callgsubr
                </CharString>
                <CharString name="circumflex.cap">
                    7 callgsubr
                </CharString>
                <CharString name="colon">
                    0 129 236 130 hstemhm
242.5 76 callgsubr
-125 133 hintmask 11010000
383 365 72 callsubr
123 -365 rmoveto
6 129 rlineto
-134 hlineto
-5 -129 rlineto
endchar
                </CharString>
                <CharString name="colon.alt">
                    96 130 236 130 hstemhm
247.5 99 callsubr
-129 133 hintmask 11010000
383 462 72 callsubr
129 -366 55 callgsubr
-1 -130 rlineto
endchar
                </CharString>
                <CharString name="colonmonetary">
                    25 78 478 83 hstemhm
78 82 118.5 66.5 15 63.5 1.5 0 callsubr
hintmask 01110100
377 124 rmoveto
-31 7 -27 7 -23 10 35 402 rcurveline
26 8 28 6 32 5 rrcurveto
-257 -223 rmoveto
82 30 62 86 40 vhcurveto
-32 -357 rlineto
-59 38 -25 55 80 vvcurveto
hintmask 11111000
194 -428 rmoveto
65 hlineto
9 117 rlineto
hintmask 11110100
30 -4 31 -3 34 -3 16 78 rcurveline
-40 3 -36 4 -33 5 40 460 rcurveline
29 3 31 2 34 1 -4 83 rcurveline
-27 -1 -25 -2 -24 -2 11 110 rcurveline
-65 hlineto
-10 -119 -29 -4 -27 -6 -25 -7 rlinecurve
12 136 rlineto
-66 hlineto
-13 -159 rlineto
-143 -60 -51 -102 -116 vvcurveto
-115 45 -78 103 -49 vhcurveto
-18 -172 rlineto
hintmask 01111000
67 hlineto
13 147 24 -7 26 -7 28 -6 rlinecurve
endchar
                </CharString>
                <CharString name="comma">
                    -169 -21 hstem
278 102 vstem
217 -190 rmoveto
47 -15 96 90 47 125 -42 127 rlinecurve
-125 -7 57 -123 -8 -111 -72 -86 rlinecurve
endchar
                </CharString>
                <CharString name="commaaccent">
                    6 callsubr
                </CharString>
                <CharString name="commaaccent.cap">
                    6 callsubr
                </CharString>
                <CharString name="commaaccent.rot">
                    628 232 hstem
257 93 vstem
375 846 51 callgsubr
endchar
                </CharString>
                <CharString name="copyright">
                    8 51 100 61 249 66 95 50 hstem
54 55 94 65 248 54 vstem
570 349 rmoveto
207 -104 124 -143 -150 -119 -136 -204 -212 112 -120 150 144 110 125 216 vhcurveto
-461 -6 rmoveto
177 90 110 121 115 81 -108 -177 -185 -82 -101 -114 -120 -91 101 183 vhcurveto
289 -123 rmoveto
-103 -5 -27 45 89 vvcurveto
72 17 46 110 2 vhcurveto
-5 66 rlineto
-140 -10 -47 -83 -99 vvcurveto
-112 46 -82 142 10 vhcurveto
endchar
                </CharString>
                <CharString name="d">
                    48 callgsubr
hintmask 1001001110000000
308 62 22 callsubr
hintmask 0101001110000000
130 -65 rmoveto
hintmask 0011001110000000
49 callsubr
242 vlineto
hintmask 1000110110000000
-90 -8 rlineto
-222 vlineto
hintmask 1001001110000000
29 callgsubr
                </CharString>
                <CharString name="dagger">
                    521.5 73 -69 73 hstemhm
270.5 77 -76.5 87 hintmask 10100000
339 141 rmoveto
17 382 190 -3 5 73 rlineto
hintmask 10010000
93 callgsubr
hintmask 01010000
-176 vlineto
-186 3 -4 -73 rlineto
hintmask 01100000
190 -3 -1 -404 14 -8 rlineto
endchar
                </CharString>
                <CharString name="daggerdbl">
                    300.5 70 -65 70 149 70 -66 70 hstemhm
270 74 -73.5 82.5 -82 87 hintmask 01101000
340 84 rmoveto
hintmask 10101000
8 218 191 -3 5 70 rlineto
hintmask 10100100
-194 3 6 154 190 -3 5 70 rlineto
hintmask 01100010
93 callgsubr
hintmask 01010010
-176 vlineto
-186 3 -4 -70 rlineto
hintmask 01010100
190 -3 -1 -153 -192 3 -4 -70 rlineto
hintmask 01101000
196 -3 rlineto
-241 vlineto
14 -8 rlineto
endchar
                </CharString>
                <CharString name="dcaron">
                    48 callgsubr
104 88 hintmask 1001001111000000
591 -28 callgsubr
-283 -565 22 callsubr
hintmask 0101001111000000
130 -65 rmoveto
hintmask 0011001111000000
49 callsubr
242 vlineto
hintmask 1000110111000000
-90 -8 rlineto
-222 vlineto
hintmask 1001001111000000
29 callgsubr
                </CharString>
                <CharString name="dcroat">
                    -13 75 -44 -21 26 -21 476 76 -3 -20 111 59 80 -20 hstemhm
69 90 265 91 hintmask 1001011110000000
308 62 rmoveto
-87 -62 67 138 137 76 74 101 28 29 -6 -9 31 hvcurveto
1 -152 1 -109 2 -95 rrcurveto
-26 -34 -41 -19 -45 hhcurveto
hintmask 0101011110000000
130 -65 rmoveto
hintmask 0010111110000000
49 callsubr
99 77 60 -77 80 vlineto
-91 -8 rlineto
-72 -146 -59 146 -91 vlineto
hintmask 1001011110000000
2 -16 -16 1 -16 hhcurveto
-166 -141 -112 -198 -161 87 -96 117 66 54 31 36 39 hvcurveto
endchar
                </CharString>
                <CharString name="degree">
                    347 68 266 69 hstem
117 75 241 74 vstem
507 553 rmoveto
121 -81 76 -107 -107 -95 -81 -125 -121 82 -76 106 107 95 81 125 vhcurveto
-74 -1 rmoveto
-83 -1 -52 -54 -69 hhcurveto
-71 -50 57 76 2 hvcurveto
81 52 52 69 72 49 -56 -73 -1 vhcurveto
endchar
                </CharString>
                <CharString name="dieresis">
                    -12 callsubr
                </CharString>
                <CharString name="dieresis.cap">
                    -12 callsubr
                </CharString>
                <CharString name="divide">
                    74 104 109 77 108 105 hstem
261.5 101.5 vstem
362 472 rmoveto
2 105 rlineto
-102 hlineto
-1 -105 rlineto
289 -108 rmoveto
-475 -77 474 hlineto
-187 -213 rmoveto
1 104 rlineto
-101 hlineto
-2 -104 rlineto
endchar
                </CharString>
                <CharString name="dollar">
                    31 77 470 70 -70 203 -201 76 125 -20 hstemhm
106 96 234 95 hintmask 10011110
202 515 rmoveto
37 38 26 95 2 vhcurveto
-31 -172 -58 36 -45 34 1 37 rlinecurve
234 -332 rmoveto
-40 -41 -30 -94 -5 vhcurveto
33 184 57 -36 46 -34 -1 -39 rlinecurve
-159 -276 rmoveto
20 124 rlineto
166 15 68 69 73 vvcurveto
1 77 -91 58 -86 53 rrcurveto
hintmask 10100110
37 202 36 -2 41 -5 48 -8 rlinecurve
hintmask 11001110
10 85 -40 5 -36 3 -34 1 rlinecurve
25 123 -81 1 rlineto
hintmask 10011110
-22 -125 -166 -10 -66 -69 -1 -72 rlinecurve
-75 91 -56 86 -51 vhcurveto
-39 -215 -40 1 -47 6 -55 9 rlinecurve
-17 -86 49 -6 45 -3 40 -1 rlinecurve
-24 -121 rlineto
endchar
                </CharString>
                <CharString name="dotaccent">
                    26 callgsubr
                </CharString>
                <CharString name="dotaccent.cap">
                    26 callgsubr
                </CharString>
                <CharString name="dotlessi">
                    19 callsubr
577 hmoveto
-61 callgsubr
                </CharString>
                <CharString name="e">
                    -13 callgsubr
21 callsubr
513 -13 -107 callsubr
                </CharString>
                <CharString name="eacute">
                    -13 callgsubr
21 callsubr
207 668 -107 callgsubr
306 -681 -107 callsubr
                </CharString>
                <CharString name="ebreve">
                    -13 callgsubr
78 74 21 callsubr
322 635 -104 callgsubr
191 -648 -107 callsubr
                </CharString>
                <CharString name="ecaron">
                    -13 callgsubr
155 -20 91 -20 21 callsubr
333 624 -90 callgsubr
185 -637 -107 callsubr
                </CharString>
                <CharString name="ecircumflex">
                    -13 callgsubr
21 callsubr
464 630 -100 callsubr
196 -768 -107 callsubr
                </CharString>
                <CharString name="edieresis">
                    -13 callgsubr
83 56 callsubr
80 90 -13 -80 callsubr
-37.5 88 hintmask 11110110
492 640 -89 callgsubr
hintmask 11111001
356 -653 -107 callsubr
                </CharString>
                <CharString name="edotaccent">
                    -13 callgsubr
83 151 100 callsubr
108.5 94 83.5 88 vstem
370 640 -52 callgsubr
236 -653 -107 callsubr
                </CharString>
                <CharString name="egrave">
                    -13 callgsubr
229 -20 21 callsubr
435 661 -94 callsubr
105 -634 -107 callsubr
                </CharString>
                <CharString name="eight">
                    -13 71 572 72 hstemhm
86 87 -76 88 256 86 -76 89 hintmask 11100100
300 -13 rmoveto
146 94 81 104 87 -77 53 -83 46 hvcurveto
hintmask 11011000
91 44 56 56 84 vvcurveto
97 -90 63 -116 -144 -80 -90 -88 -80 66 -53 75 -44 vhcurveto
hintmask 11100100
-93 -48 -59 -64 -83 vvcurveto
-101 90 -64 124 vhcurveto
hintmask 11011000
-115 548 rmoveto
50 43 45 85 84 44 -44 -61 -58 -42 -47 -69 -35 vhcurveto
-77 42 -68 42 66 vvcurveto
hintmask 11100100
127 -477 rmoveto
-91 -48 47 67 58 41 52 73 36 hvcurveto
84 -47 80 -43 -68 vvcurveto
-59 -54 -43 -85 vhcurveto
endchar
                </CharString>
                <CharString name="eight.den">
                    -244 56 194 -21 29 -21 166 20 callgsubr
hintmask 10111001
303 -244 rmoveto
-43 callgsubr
hintmask 10110110
-60 callgsubr
vhcurveto
hintmask 11010101
16 callsubr
hintmask 10111001
-23 callsubr
hintmask 10110110
-83 callgsubr
hintmask 10111001
-87 callgsubr
                </CharString>
                <CharString name="eight.inf">
                    -178 10 callgsubr
-178 -91 callsubr
                </CharString>
                <CharString name="eight.num">
                    461 56 173 -20 28 -20 186 20 callgsubr
hintmask 10111001
303 461 rmoveto
-43 callgsubr
hintmask 11010110
-29 callgsubr
hintmask 11011001
17 callgsubr
hintmask 10111001
37 callsubr
hintmask 10110110
-83 callgsubr
hintmask 11011001
-87 callgsubr
                </CharString>
                <CharString name="eight.small">
                    -11 10 callgsubr
-11 -91 callsubr
                </CharString>
                <CharString name="eight.sup">
                    350 10 callgsubr
350 -91 callsubr
                </CharString>
                <CharString name="ellipsis">
                    0 133 hstem
53.5 110 93 110 93.5 109.5 vstem
567 98 callsubr
-109 hlineto
-6 -133 rlineto
-93 98 callsubr
-110 hlineto
-5 -133 rlineto
-93 98 callsubr
-110 hlineto
-5 -133 rlineto
endchar
                </CharString>
                <CharString name="emacron">
                    -13 callgsubr
121 79 21 callsubr
509 757 -25 callsubr
4 -691 -107 callsubr
                </CharString>
                <CharString name="emdash">
                    291 69 hstem
68 493 vstem
561 360 rmoveto
-493 -69 487 hlineto
endchar
                </CharString>
                <CharString name="endash">
                    291 69 hstem
89 452 vstem
541 360 rmoveto
-452 -69 444 hlineto
endchar
                </CharString>
                <CharString name="eogonek">
                    -238 73 163 67 -54 -21 263 56 173 75 hstemhm
80 90 111 85 90 88 hintmask 11011111
487 -238 rmoveto
8 73 rlineto
-94 9 -35 19 26 vvcurveto
hintmask 10111111
24 32 32 115 45 vhcurveto
hintmask 11011111
10 75 -96 callsubr
-165 86 -96 255 -5 hvcurveto
-101 -48 -39 -43 -43 vvcurveto
-51 55 -40 151 -11 vhcurveto
-166 720 -78 callsubr
                </CharString>
                <CharString name="equal">
                    168 77 169 91 callsubr
531 491 82 callgsubr
1 -169 82 callgsubr
endchar
                </CharString>
                <CharString name="eth">
                    -14 75 377 71 185 -20 112 -20 hstem
69 89 307 87 vstem
301 -14 rmoveto
134 117 100 193 140 -53 122 -113 111 hvcurveto
103 52 -21 54 -127 -64 -38 31 -42 31 -48 30 rlinecurve
-57 -57 40 -24 35 -25 32 -26 rlinecurve
-122 -61 23 -53 146 74 35 -34 29 -35 23 -36 rlinecurve
-165 19 -163 -94 -193 vvcurveto
-159 104 -96 128 vhcurveto
11 75 rmoveto
-89 -65 74 117 143 98 85 185 -62 hvcurveto
16 -48 8 -48 -51 vvcurveto
-137 -60 -73 -93 vhcurveto
endchar
                </CharString>
                <CharString name="exclam">
                    0 123 hstem
246.5 127 vstem
346 260 rmoveto
2 95 28 295 5 101 rrcurveto
-116 hlineto
2 -101 19 -295 -95 vvcurveto
86 -260 rmoveto
3 123 rlineto
-127 hlineto
-3 -123 rlineto
endchar
                </CharString>
                <CharString name="exclamdown">
                    566 123 hstem
252 127 vstem
253 689 rmoveto
-2 -123 rlineto
127 hlineto
2 123 rlineto
-101 -260 rmoveto
-3 -96 -27 -295 -5 -100 rrcurveto
116 hlineto
-2 100 -20 295 96 vvcurveto
endchar
                </CharString>
                <CharString name="f">
                    0 69 392 70 167 88 hstem
245 91 vstem
531 69 rmoveto
-195 392 206 70 -206 13 hlineto
115 28 29 213 10 vhcurveto
-6 88 -249 -13 -76 -98 -1 -144 rlinecurve
-147 hlineto
-8 -70 rlineto
155 -392 -149 -69 427 hlineto
endchar
                </CharString>
                <CharString name="five">
                    8 -21 621.5 79.5 hstem
76 callgsubr
81 230.5 85 vstem
530 228 rmoveto
90 -76 76 -246 27 vhcurveto
13 188 280 -1 8 80 rlineto
-365 hlineto
-21 -330 rlineto
243 -19 79 -52 -63 vvcurveto
-82 -88 -48 -251 -23 vhcurveto
6 -84 rlineto
290 22 128 96 123 vvcurveto
endchar
                </CharString>
                <CharString name="five.den">
                    -245 68 183 -21 157 13 callgsubr
-90 -104 callsubr
                </CharString>
                <CharString name="five.inf">
                    -179 42 callgsubr
-24 -104 callsubr
                </CharString>
                <CharString name="five.num">
                    460 68 162 51 106 63 hstem
178 64.5 164.5 69 vstem
-18 callgsubr
endchar
                </CharString>
                <CharString name="five.small">
                    -12 68 -47 -21 230 51 106 63 hstemhm
-26 callsubr
hintmask 01111100
476 143 -101 callsubr
hintmask 10111100
-47 callsubr
hintmask 01111100
215 15 97 60 80 vvcurveto
endchar
                </CharString>
                <CharString name="five.sup">
                    349 42 callgsubr
504 -104 callsubr
                </CharString>
                <CharString name="fiveeighths">
                    40 callgsubr
91 68 162 51 106 63 17 callsubr
-47 0 callsubr
161.5 70 -67 69 -69 75 hintmask 1011111100101000
-34 callsubr
hintmask 1011111110000100
25 callgsubr
hintmask 1011111101010000
-60 callgsubr
vhcurveto
hintmask 1101111101001000
16 callsubr
hintmask 1011111110001000
17 callgsubr
hintmask 1011111110000100
37 callsubr
hintmask 1011111101010000
-83 callgsubr
hintmask 1011111110000100
-87 callgsubr
                </CharString>
                <CharString name="fivesixths">
                    93 callsubr
91 68 162 51 106 63 hstemhm
141 70 -33 -23 callgsubr
-61 70 hintmask 1111110110000000
-34 callsubr
hintmask 1110011001000000
237 -612 -101 callgsubr
                </CharString>
                <CharString name="four">
                    21 -21 142 79 469 -20 26 -20 hstemhm
98 71 236 85 hintmask 11011100
566 142 rmoveto
8 79 rlineto
-84 251 hlineto
-85 -10 rlineto
-241 -236 vlineto
hintmask 11101100
5 62 71 305 24 102 rrcurveto
hintmask 11011100
-97 6 -51 -205 -26 -217 3 -132 rlinecurve
307 -142 85 142 hlineto
endchar
                </CharString>
                <CharString name="four.den">
                    -143.5 0 callgsubr
-144 -93 callsubr
                </CharString>
                <CharString name="four.inf">
                    -77.5 0 callgsubr
-78 -93 callsubr
                </CharString>
                <CharString name="four.num">
                    561.5 0 callgsubr
561 -93 callsubr
                </CharString>
                <CharString name="four.small">
                    0 150 -60.5 46 callsubr
hstemhm
50 callgsubr
hintmask 01010000
501 89 rmoveto
hintmask 10110000
-48 callgsubr
-46 callsubr
hintmask 01110000
-41 callgsubr
hintmask 10010000
-1 -90 rlineto
70 hlineto
hintmask 01010000
-1 90 rlineto
endchar
                </CharString>
                <CharString name="four.sup">
                    450.5 0 callgsubr
450 -93 callsubr
                </CharString>
                <CharString name="fourfifths">
                    51 callsubr
192.5 46 callsubr
hstemhm
152 62 -36 0 callsubr
76 callgsubr
68 -37 69 hintmask 1111101100000000
501 561 rmoveto
-48 callgsubr
hintmask 1111110100000000
-86 callgsubr
-369 -254 -44 callgsubr
hintmask 1111101010000000
-78 callgsubr
                </CharString>
                <CharString name="fraction">
                    -178 1015 hstem
45 527 vstem
121 -178 rmoveto
451 983 -77 32 -450 -982 rlineto
endchar
                </CharString>
                <CharString name="fraction.afrc">
                    308 61 hstem
75 474 vstem
75 308 -44 callgsubr
endchar
                </CharString>
                <CharString name="g">
                    43 callsubr
hstem
71 90 270 91 vstem
147 -192 -95 callsubr
                </CharString>
                <CharString name="gbreve">
                    43 callsubr
78 74 hstem
71 90 270 91 vstem
325 634 -104 callgsubr
-178 -826 -95 callsubr
                </CharString>
                <CharString name="gcommaaccent">
                    43 callsubr
hstem
71 90 108 93 69 91 vstem
387 853 51 callgsubr
-240 -1045 -95 callsubr
                </CharString>
                <CharString name="gdotaccent">
                    43 callsubr
83 83 callsubr
71 90 120.5 94 75 callgsubr
91 vstem
373 639 -52 callgsubr
-133 -831 -95 callsubr
                </CharString>
                <CharString name="germandbls">
                    -7 78 -71 71 636 78 hstemhm
99 90 107 88 24 91 -9 90 hintmask 10111010
384 394 rmoveto
hintmask 01111100
62 115 51 124 vvcurveto
75 -51 79 -117 -150 -82 -116 -158 vhcurveto
-511 90 531 vlineto
116 40 60 82 66 31 -46 -48 vhcurveto
-88 -112 -57 -85 vvcurveto
hintmask 10111010
-122 194 -33 -82 vvcurveto
-49 -54 -38 -136 16 vhcurveto
-4 -82 rlineto
214 -12 70 87 84 127 -196 38 77 vvcurveto
endchar
                </CharString>
                <CharString name="grave">
                    18 callsubr
                </CharString>
                <CharString name="grave.cap">
                    18 callsubr
                </CharString>
                <CharString name="greater">
                    -25 694 hstem
440 84 vstem
154 -25 rmoveto
370 311 rlineto
77 vlineto
-364 306 -52 -65 332 -274 rlineto
-11 vlineto
-337 -280 rlineto
endchar
                </CharString>
                <CharString name="greaterequal">
                    16 77 hstem
431 94 vstem
431 397 rmoveto
-8 vlineto
-320 -169 30 -71 385 204 -2 73 -375 234 -37 -68 rlineto
-21 -499 rmoveto
-77 443 77 vlineto
endchar
                </CharString>
                <CharString name="guillemotleft">
                    562 -20 hstem
54 524 vstem
243 -19 -9 callgsubr
                </CharString>
                <CharString name="guillemotleft.cap">
                    52 581 hstem
54 524 vstem
243 52 -9 callgsubr
                </CharString>
                <CharString name="guillemotright">
                    562 -20 hstem
47 524 vstem
378 -19 -12 callgsubr
                </CharString>
                <CharString name="guillemotright.cap">
                    52 581 hstem
47 524 vstem
378 52 -12 callgsubr
                </CharString>
                <CharString name="guilsinglleft">
                    563 -20 97 callgsubr
-19 48 callsubr
                </CharString>
                <CharString name="guilsinglleft.cap">
                    52 582 97 callgsubr
52 48 callsubr
                </CharString>
                <CharString name="guilsinglright">
                    563 -20 96 callgsubr
-19 39 callgsubr
                </CharString>
                <CharString name="guilsinglright.cap">
                    52 582 96 callgsubr
52 39 callgsubr
                </CharString>
                <CharString name="h">
                    21 -21 479 78 219 50 callsubr
104 91 244 91 hintmask 11011100
330 479 rmoveto
69 40 -32 callsubr
-72 -56 -31 -35 -45 vhcurveto
293 vlineto
hintmask 11101100
-91 -8 rlineto
-776 91 434 vlineto
hintmask 11011100
98 callgsubr
                </CharString>
                <CharString name="hbar">
                    21 -21 479 76 87 59 75 50 callsubr
104 91 244 91 hintmask 11101110
330 479 rmoveto
69 40 -6 callgsubr
132 -64 55 -98 -72 -56 -31 -35 -45 vhcurveto
153 146 59 -146 83 vlineto
hintmask 11110110
-91 -8 rlineto
-75 -77 -60 77 -641 91 434 vlineto
hintmask 11101110
98 callgsubr
                </CharString>
                <CharString name="hcoslug">
                    -100 75 5 10 -6 10 -4 11 -10 10 -9 7 0 12 -11 11 -7 15 -15 26 -25 26 -15 8 -8 15 -12 12 0 14 -9 10 -10 19 -9 11 2 8 -7 32 99 callgsubr
22.5 514 -20 hstemhm
87 64 10 16 -3 8 5 40 -35 12 -1 12 14 10 -2 10 -10 42 -31 9 -1 7 3 12 -6 11 9 40 -29 13 -9 10 0 12 -4 11 -2 12 -5 16 18 11 10 8 hintmask 000000100000000000010110000010000010000010010000
537 700 rmoveto
-450 hlineto
hintmask 100000000000000000011010000000100000001000000000
-800 450 vlineto
-300 396 rmoveto
-17 11 -11 17 -16 vhcurveto
9 13 5 12 12 vvcurveto
18 -9 11 -13 -12 -8 -9 -13 vhcurveto
49 -64 rmoveto
12 -12 9 -12 9 -11 15 25 3 18 -17 17 -7 -7 -10 -9 -14 -9 rrcurveto
-39 -93 rmoveto
12 9 3 6 8 hvcurveto
-21 27 -21 22 -14 13 rrcurveto
-8 -8 -4 -11 -11 vvcurveto
-23 17 -18 22 vhcurveto
91 34 rmoveto
-22 19 13 -9 15 hhcurveto
15 9 9 13 8 hvcurveto
5 -1 rlineto
-44 -1 -27 -27 -32 hhcurveto
-22 -17 8 26 -25 hvcurveto
-23 -21 -25 -11 -32 hhcurveto
-45 -36 30 40 31 21 24 40 13 hvcurveto
-16 17 -7 13 22 vvcurveto
32 31 32 51 46 25 -30 -26 -10 -2 -8 -5 -7 vhcurveto
20 15 -8 -20 2 hvcurveto
18 12 14 10 19 hhcurveto
21 16 -15 -24 -23 -16 -17 -21 -14 -12 7 12 -6 hvcurveto
-12 -7 -12 -10 -11 -15 rrcurveto
hintmask 000000000000000000010000000000000100000000000000
-72 -105 rmoveto
-8 10 -5 -10 vlineto
hintmask 000000000000000010000000000000000100000000000000
-15 vlineto
-3 1 -1 2 2 1 1 4 1 vhcurveto
4 -1 rlineto
-2 -7 -3 -3 -6 -6 -3 4 57 callgsubr
hintmask 000000000000000001000000000000010000000000000000
15 -5 5 5 7 vlineto
hintmask 000000000000000100000000100000000000000000000000
-75 -21 40 callsubr
64 callgsubr
22 hmoveto
-4 callsubr
hintmask 000000000000001000000000000000000000000100000000
132 -1 rmoveto
0 6 -2 4 -3 -5 -1 -5 57 callgsubr
0 -6 1 -4 5 3 2 4 57 callgsubr
64 callgsubr
-120 -9 rmoveto
4 hlineto
hintmask 000000000000000001000010000000000000000000000000
19 -4 5 vlineto
hintmask 000000000000000000010000000010000000000000000000
13 -6 hlineto
4 2 3 3 5 hhcurveto
7 2 -5 -6 hvcurveto
hintmask 000000000000000100000000000000010000000000000000
-14 5 -5 vlineto
hintmask 000000000010000000000000000010000000000000000000
-17 5 3 hlineto
hintmask 000000000000000001000000000010000000000000000000
13 vlineto
3 -1 3 -3 -3 -3 -3 -5 vhcurveto
-11 3 -5 vlineto
64 callgsubr
-16 hlineto
-71 5 rmoveto
6 hlineto
hintmask 000000000000000000100010000000000000000000000000
31 -6 5 vlineto
hintmask 000000000000000000010000001000000000000000000000
38 hlineto
hintmask 000000000000000001000000001000000000000000000000
-15 -5 vlineto
8 -2 -1 2 -6 hhcurveto
-8 hlineto
hintmask 000000000000000000100001000000000000000000000000
-14 3 vlineto
4 0 1 5 1 hvcurveto
5 hlineto
hintmask 000000000000000100000000100000000000000000000000
-17 -5 vlineto
5 -1 0 1 -4 hhcurveto
-3 hlineto
hintmask 000000000000000100000001000000000000000000000000
-12 7 -5 vlineto
64 callgsubr
-23 hlineto
hintmask 000000000000000010000000000000000100000000000000
133 10 rmoveto
5 hlineto
-4 3 3 -3 3 hhcurveto
3 1 2 1 hvcurveto
hintmask 000000000000000000100000000000000100000000000000
7 -18 -4 12 vvcurveto
4 4 5 7 3 3 -1 -3 2 vhcurveto
1 4 rlineto
5 -10 -5 hlineto
4 -3 -2 1 -3 hhcurveto
-2 -2 -1 -2 hvcurveto
hintmask 000000000010000000000000000000000000100000000000
-5 18 2 -11 vvcurveto
-5 -3 -4 -7 -5 -3 2 2 -2 vhcurveto
-1 -3 rlineto
-5 hlineto
hintmask 000000000000000000100000000000000000100000000000
38 38 rmoveto
-5 5 hlineto
hintmask 000000000000000000010000000000000000000100000000
14 hlineto
hintmask 000000000000000000100000000000000000000100000000
-20 vlineto
4 1 4 3 4 hhcurveto
hintmask 000000000100000000000000000000000000000010000000
7 0 5 -6 0 -9 0 -7 -3 -9 0 flex1
-6 -3 2 4 -2 hvcurveto
-3 -6 rlineto
-4 hlineto
hintmask 100000000000000000010000000000000000000010000000
39 -6 rmoveto
3 3 2 4 hvcurveto
-3 7 -9 18 0 vvcurveto
-3 5 18 -5 -4 hlineto
7 -15 6 15 rlineto
-4 5 13 -5 -4 hlineto
hintmask 000000001000000000000000000000000000000010000000
-10 -24 rlineto
-7 -3 -4 -5 -6 hhcurveto
-6 -3 3 4 3 2 2 3 hvcurveto
hintmask 100000000000000000010000000000000000000010000000
5 1 -5 -2 -2 hvcurveto
hintmask 000000010000000000000000000000000000000000000000
45 -24 rmoveto
-6 -4 vlineto
-2 -4 -2 -3 -3 -3 rrcurveto
2 -2 2 -2 1 1 1 1 1 hflex1
3 -1 rlineto
-5 -1 -2 -4 -6 hhcurveto
hintmask 100000000000000000000000000000000000000001000000
-4 0 -2 2 -3 3 -3 -3 -4 -2 -6 flex1
-7 -5 4 6 6 4 3 6 2 hvcurveto
-3 3 -2 3 4 vvcurveto
hintmask 000000000001000000000000000000000000000000100000
5 4 6 9 6 4 -4 -5 -5 -3 -2 -5 -3 vhcurveto
2 -2 4 -5 3 -3 2 2 2 3 1 2 rrcurveto
-5 6 hlineto
hintmask 000000000100000000000000000000000010000000000000
-114 4 rmoveto
11 4 hlineto
-3 -2 2 2 2 1 1 0 hvcurveto
0 -1 1 -2 -2 -2 -2 -6 vhcurveto
hintmask 100000000000000000000000000000000000000000010000
132 -13 rmoveto
hintmask 000100000000000000000000000000000000000000010000
15 9 8 11 vhcurveto
hintmask 000100000000000000000000000000000000000000000000
5 4 -2 -3 3 hvcurveto
4 6 vlineto
-16 -6 vlineto
hintmask 000000100000000000000000000000000000000000000000
9 -3 -2 3 -6 hhcurveto
-6 -4 -5 -12 hvcurveto
81 callsubr
-11 4 -6 8 vhcurveto
hintmask 000010000000000000000000000000000000000000000000
6 3 6 6 1 hvcurveto
6 hlineto
hintmask 100000000000000000000000000000000000000000000000
-10 -1 -6 -7 -11 hhcurveto
hintmask 100000000000000000000000000000000000000000010000
-13 -8 7 14 hvcurveto
hintmask 000000100000000000000000000000000000000000100000
-29 4 rmoveto
2 1 2 3 3 vvcurveto
3 -2 2 -3 -2 -2 -1 -3 -2 2 -3 3 -3 vhcurveto
hintmask 010000000000000000000000000000000000010000000000
-68 -11 rmoveto
78 callsubr
hintmask 100000000000000000000000000000000000010000000000
-6 -1 -4 -5 -8 hhcurveto
-10 -6 6 9 hvcurveto
hintmask 000000000010000000000000000000000000010000000000
10 7 6 8 11 4 -7 -10 -1 vhcurveto
hintmask 010000000000000000000000000001000000000000000000
-89 hmoveto
78 callsubr
81 callgsubr
-6 -1 -4 -5 -8 hhcurveto
hintmask 100000000000000000000000010000000000000000000000
-10 -6 6 9 hvcurveto
hintmask 000000000010000000000000010000000000000000000000
10 7 6 8 vhcurveto
hintmask 000000000010000000000000000000001000000000000000
11 4 -7 -10 -1 hvcurveto
hintmask 010000000000000000000010000001000000000000000000
-63 2 40 callsubr
252 hmoveto
81 callsubr
53 callgsubr
hintmask 010000000000000000000010000001000000000000000000
52 callsubr
hintmask 000001000000000000000000000001000000010000000000
-138 2 rmoveto
77 callsubr
-70 hmoveto
77 callsubr
hintmask 010000000000000000000000000100000000000000000000
-22 -2 rmoveto
-4 callsubr
81 callsubr
252 hmoveto
-4 callsubr
81 callgsubr
-208 -10 rmoveto
4 hlineto
hintmask 000001000000000000000000000000001000000000000000
19 -5 5 5 1 vlineto
hintmask 000000000000010000000000000000001000000000000000
10 7 4 6 4 2 -1 -1 2 vhcurveto
8 2 rlineto
hintmask 010000000000000000000000000000000000100000000000
-39 4 -5 vlineto
hintmask 100000000000000000000000000000000010000000000000
-17 5 4 hlineto
hintmask 000001000000000000000000000000000010000000000000
19 -11 vlineto
hintmask 010000000000000000000000000000000010000000000000
-19 4 -5 vlineto
81 callgsubr
-17 hlineto
hintmask 100000000000000000000000000000000001000000000000
69 5 rmoveto
4 hlineto
hintmask 000001000000000000000000000000000001000000000000
19 -4 5 vlineto
hintmask 000000000010000000000000000000000000000001000000
13 -6 hlineto
5 2 3 2 4 hhcurveto
4 2 -2 -4 -3 -2 -2 -3 -2 -3 1 3 hvcurveto
1 vlineto
-1 -3 -3 -4 -1 hvcurveto
hintmask 010000000000000000000000000000000000000001000000
-12 6 -5 vlineto
hintmask 100000000000000000000000000000000001000000000000
-19 hlineto
hintmask 100000000000000000000010000000000000000000000000
-183 5 rmoveto
6 hlineto
hintmask 000000100000000000000010000000000000000000000000
31 -6 5 vlineto
hintmask 000000000000100000000001000000000000000000000000
21 -5 -5 hlineto
hintmask 000000100000000000000001000000000000000000000000
-12 16 12 -5 5 vlineto
hintmask 000000000000100000000000000100000000000000000000
21 -5 -6 hlineto
hintmask 010000000000000000000000000100000000000000000000
-31 6 -5 vlineto
hintmask 100000000000000000000001000000000000000000000000
-21 5 5 hlineto
hintmask 001000000000000000000001000000000000000000000000
14 -16 vlineto
hintmask 010000000000000000000001000000000000000000000000
-14 5 -5 vlineto
hintmask 100000000000000000000010000000000000000000000000
-21 hlineto
hintmask 100000000000000000000000000000000000000000100000
234 7 rmoveto
-2 2 -4 5 -4 4 rrcurveto
-2 -2 -1 -2 -3 vvcurveto
-4 3 -3 4 2 2 1 2 2 vhcurveto
111 -2 rmoveto
0 -3 -2 -3 -4 -4 -2 3 57 callgsubr
0 3 2 3 4 4 2 -3 57 callgsubr
endchar
                </CharString>
                <CharString name="hungarumlaut">
                    -26 callgsubr
                </CharString>
                <CharString name="hungarumlaut.cap">
                    -26 callgsubr
                </CharString>
                <CharString name="hyphen">
                    286 78 hstem
139 352 vstem
491 364 rmoveto
-352 -78 346 hlineto
endchar
                </CharString>
                <CharString name="i">
                    24 callsubr
286.5 94.5 -91 91 hintmask 11110000
72 callgsubr
294 -632 rmoveto
7 69 rlineto
hintmask 11101000
-72 callsubr
                </CharString>
                <CharString name="iacute">
                    19 callsubr
219 -68 callsubr
358 -660 rmoveto
-61 callgsubr
                </CharString>
                <CharString name="ibreve">
                    -67 callgsubr
83 74 66 callgsubr
335 627 -104 callgsubr
242 -627 rmoveto
-61 callgsubr
                </CharString>
                <CharString name="icircumflex">
                    19 callsubr
476 -35 callgsubr
248 -747 rmoveto
-61 callgsubr
                </CharString>
                <CharString name="idieresis">
                    24 callsubr
169 -56 callsubr
28.5 91 32 -56 callsubr
hintmask 11101100
504 632 rmoveto
-86 callsubr
hintmask 11111100
-73 callgsubr
408 -632 rmoveto
7 69 rlineto
hintmask 11101100
-72 callsubr
                </CharString>
                <CharString name="igrave">
                    -67 callgsubr
234 -20 66 callgsubr
448 -24 callsubr
156 -613 rmoveto
-61 callgsubr
                </CharString>
                <CharString name="imacron">
                    -67 callgsubr
126 79 66 callgsubr
521 749 -25 callsubr
56 -670 rmoveto
-61 callgsubr
                </CharString>
                <CharString name="iogonek">
                    24 callsubr
197 85 4.5 94.5 -91 91 hintmask 11101000
72 callgsubr
128 -799 rmoveto
hintmask 11110100
-94 10 -35 18 29 vvcurveto
26 22 31 72 53 vhcurveto
201 hlineto
7 69 rlineto
hintmask 11100100
-74 callgsubr
hintmask 11110100
209 hlineto
-70 -51 -28 -41 -41 vvcurveto
-56 55 -39 151 -12 vhcurveto
endchar
                </CharString>
                <CharString name="j">
                    -194 86 583 69 88 56 callsubr
332 93.5 -87.5 91 hintmask 11110000
422 632 rmoveto
7 -13 callsubr
-95 hlineto
-4 -151 rlineto
-223 -88 rmoveto
-7 -64 rlineto
hintmask 11101000
238 -10 rlineto
-433 vlineto
-109 -34 -27 -242 -9 vhcurveto
-3 -86 rlineto
282 9 88 80 160 vvcurveto
489 vlineto
endchar
                </CharString>
                <CharString name="k">
                    41 callgsubr
hintmask 1001010110000000
100 callgsubr
hintmask 0011100110000000
28 callsubr
hintmask 0101011010000000
79 callgsubr
endchar
                </CharString>
                <CharString name="kcommaaccent">
                    41 callgsubr
84 93 hintmask 1001010111000000
100 callgsubr
hintmask 0011100111000000
28 callsubr
hintmask 0101011011000000
79 callgsubr
-23 -544 -99 callgsubr
                </CharString>
                <CharString name="l">
                    0 69 637 69 -65 -20 hstemhm
270 91 19 callgsubr
endchar
                </CharString>
                <CharString name="lacute">
                    76 callsubr
200 891 -107 callgsubr
331 -891 rmoveto
30 callsubr
endchar
                </CharString>
                <CharString name="lcaron">
                    5 callgsubr
157 88 hintmask 11011000
490 -28 callgsubr
41 -627 rmoveto
15 callgsubr
hintmask 10111000
-8 -65 rlineto
hintmask 11011000
14 callsubr
endchar
                </CharString>
                <CharString name="lcommaaccent">
                    5 callgsubr
-85 93 19 callgsubr
hintmask 11001000
157 -65 callsubr
                </CharString>
                <CharString name="ldot">
                    0 69 225 122 290 69 -65 -20 hstemhm
270 91 208.5 102 hintmask 11101100
531 hmoveto
15 callgsubr
hintmask 11011100
-8 -65 rlineto
hintmask 11101100
14 callsubr
575 294 rmoveto
7 122 rlineto
-102 hlineto
-7 -122 rlineto
endchar
                </CharString>
                <CharString name="less">
                    -24 693 hstem
102 84 vstem
468 669 rmoveto
-366 -306 rlineto
-77 vlineto
369 -310 52 64 -337 279 rlineto
11 vlineto
332 275 rlineto
endchar
                </CharString>
                <CharString name="lessequal">
                    16 77 hstem
100 94 vstem
194 397 rmoveto
319 195 -37 68 -375 -234 -2 -73 384 -204 31 71 -320 169 rlineto
340 -296 rmoveto
-443 -77 443 hlineto
endchar
                </CharString>
                <CharString name="lslash">
                    76 callsubr
531 hmoveto
8 69 rlineto
-178 326 hlineto
136 70 -15 62 -121 -63 rlineto
311 -251 vlineto
hintmask 10110000
-8 -65 rlineto
hintmask 11010000
168 -8 rlineto
-285 vlineto
-143 -74 15 -62 128 66 rlineto
-278 -177 -69 vlineto
endchar
                </CharString>
                <CharString name="m">
                    31 callgsubr
hstemhm
70 85 127 70 124 86 hintmask 11011100
231 479 rmoveto
37 14 -21 -55 hvcurveto
-403 70 437 vlineto
3 0 4 2 vvcurveto
22 23 25 11 24 hhcurveto
38 14 -21 -56 hvcurveto
-402 86 435 vlineto
81 -34 41 -61 -48 -41 -27 -32 -31 vhcurveto
38 -12 -28 21 -42 hhcurveto
-45 -42 -27 -34 -31 hvcurveto
hintmask 10111100
-4 50 -79 -5 rlineto
4 21 callgsubr
85 hlineto
hintmask 11011100
192 -2 148 -2 99 vhcurveto
26 26 30 14 24 hhcurveto
endchar
                </CharString>
                <CharString name="macron">
                    49 callgsubr
                </CharString>
                <CharString name="macron.cap">
                    49 callgsubr
                </CharString>
                <CharString name="minus">
                    287 91 callsubr
531 364 82 callgsubr
endchar
                </CharString>
                <CharString name="mu">
                    82 callsubr
-53 callgsubr
25 callsubr
hintmask 0110000111000000
187 -182 rmoveto
-4 201 rlineto
-22 23 33 -10 38 hhcurveto
69 53 34 39 40 hvcurveto
hintmask 0101000111000000
6 -62 rlineto
hintmask 0100101011000000
83 -59 callgsubr
hintmask 0110000111000000
-191 2 -143 2 -99 vhcurveto
-29 -42 -44 -18 -52 hhcurveto
-67 -40 34 96 hvcurveto
353 vlineto
hintmask 1010010011000000
-91 -6 rlineto
-732 vlineto
endchar
                </CharString>
                <CharString name="multiply">
                    544 61 callgsubr
hstemhm
92 440 hintmask 01100000
475 102 rmoveto
57 56 -164 167 rlineto
hintmask 10100000
160 163 -55 56 -160 -163 rlineto
hintmask 01100000
-163 166 -58 -57 164 -167 -159 -162 55 -54 159 161 rlineto
endchar
                </CharString>
                <CharString name="n">
                    29 callsubr
330 479 -63 callsubr
                </CharString>
                <CharString name="nacute">
                    29 callsubr
197 673 -107 callgsubr
133 -194 -63 callsubr
                </CharString>
                <CharString name="naira">
                    0 151 36 62 181 62 35 161 hstem
113 74.5 261 99 callgsubr
vstem
187 527 rmoveto
6 hlineto
130 -278 rlineto
-135 hlineto
255 -98 rmoveto
-129 279 rlineto
134 hlineto
1 -279 rlineto
-9 -151 rmoveto
80 187 75 73 -75 158 75 74 -75 196 -73 hlineto
1 -196 rlineto
-163 hlineto
-91 196 rlineto
-81 -196 -76 -74 76 -158 -76 -73 76 -187 76 hlineto
-1 187 rlineto
164 hlineto
endchar
                </CharString>
                <CharString name="ncaron">
                    29 callsubr
323 629 -90 callgsubr
12 -150 -63 callsubr
                </CharString>
                <CharString name="ncommaaccent">
                    31 callgsubr
hstemhm
105 91 94 93 56 91 hintmask 11011100
330 479 -35 callsubr
hintmask 10111100
-27 callgsubr
hintmask 11011100
-15 callsubr
-66 -772 -99 callgsubr
                </CharString>
                <CharString name="nine">
                    270 66 290 74 hstem
81 85 290 86 vstem
200 -24 rmoveto
235 110 107 155 192 vvcurveto
175 -94 92 -134 -124 -109 -89 -144 -196 211 -64 156 133 vhcurveto
-23 -116 -80 -92 -183 -78 rrcurveto
4 423 rmoveto
93 62 56 77 87 64 -65 -138 -8 0 -7 -1 -8 vhcurveto
-138 -111 -151 37 151 vvcurveto
endchar
                </CharString>
                <CharString name="nine.den">
                    -169 -21 125 52 18 -21 171 59 hstemhm
140 69 203 72 hintmask 11011100
225 -252 -37 callsubr
vhcurveto
hintmask 10111100
-32 callgsubr
hintmask 11011100
-57 callgsubr
                </CharString>
                <CharString name="nine.inf">
                    -165 -21 187 2 callsubr
-186 -84 callgsubr
                </CharString>
                <CharString name="nine.num">
                    640 2 callsubr
453 -84 callgsubr
                </CharString>
                <CharString name="nine.small">
                    168 2 callsubr
-19 -84 callgsubr
                </CharString>
                <CharString name="nine.sup">
                    529 2 callsubr
342 -84 callgsubr
                </CharString>
                <CharString name="notequal">
                    28 -21 161 77 169 91 callsubr
530 168 rmoveto
1 77 rlineto
-211 hlineto
62 169 rlineto
148 hlineto
1 77 rlineto
-120 hlineto
50 137 -69 22 -58 -159 rlineto
-241 -77 212 hlineto
-62 -169 rlineto
-150 -77 122 hlineto
-51 -139 69 -22 59 161 rlineto
endchar
                </CharString>
                <CharString name="ntilde">
                    31 callgsubr
116 95 callgsubr
hstemhm
105 91 243 91 hintmask 11011110
398 642 -89 callsubr
-68 -163 -35 callsubr
hintmask 10111110
-27 callgsubr
hintmask 11011110
-15 callsubr
endchar
                </CharString>
                <CharString name="numbersign">
                    21 -21 193 77 151 76 191 -20 hstem
178.5 65 137 65 vstem
373 270 rmoveto
-137 hlineto
15 -13 callsubr
137 hlineto
-42 -421 rmoveto
65 hlineto
19 193 rlineto
111 hlineto
8 77 rlineto
-111 hlineto
15 -13 callsubr
110 hlineto
9 76 rlineto
-111 hlineto
19 191 rlineto
-66 hlineto
-19 -191 rlineto
-136 hlineto
19 191 rlineto
-65 hlineto
-19 -191 rlineto
-110 hlineto
-8 -76 rlineto
110 hlineto
-15 -151 rlineto
-109 hlineto
-9 -77 rlineto
110 hlineto
-19 -193 rlineto
65 hlineto
19 193 rlineto
137 hlineto
endchar
                </CharString>
                <CharString name="numero">
                    20 -21 22 -21 122 67 54 69 312 69 -5 -20 hstemhm
50 72.5 120 72.5 37 71 -63 224 -61 70 hintmask 0111101110100000
463 243 rmoveto
75 55 86 151 143 -44 70 -68 -73 -56 -86 -149 -145 45 -70 66 hvcurveto
hintmask 1011011110100000
-218 -243 rmoveto
70 -1 rlineto
689 -75 vlineto
5 -455 rlineto
-3 hlineto
-117 455 rlineto
-75 hlineto
hintmask 0111101110100000
-688 75 vlineto
-5 489 rlineto
2 hlineto
353 -177 rmoveto
-30 -22 57 103 97 18 55 29 30 23 -56 -103 -97 -18 -56 -30 hvcurveto
hintmask 0111101101000000
109 -190 rmoveto
67 -224 -67 vlineto
endchar
                </CharString>
                <CharString name="o">
                    20 callsubr
300 -16 -105 callgsubr
                </CharString>
                <CharString name="oacute">
                    20 callsubr
196 665 -107 callgsubr
104 -681 -105 callgsubr
                </CharString>
                <CharString name="obreve">
                    38 callsubr
73 74 8 callsubr
312 632 -104 callgsubr
-12 -648 -105 callgsubr
                </CharString>
                <CharString name="ocircumflex">
                    20 callsubr
453 627 -100 callsubr
-6 -768 -105 callgsubr
                </CharString>
                <CharString name="odieresis">
                    38 callsubr
78 56 callsubr
68 92 -14 -80 callsubr
-16.5 91 hintmask 11101100
481 637 47 callsubr
154 -653 -105 callgsubr
                </CharString>
                <CharString name="oe">
                    -8 74 -73 75 185.5 56 167.5 74 hstemhm
42 90 155 77 135 79 hintmask 01111110
433 477 rmoveto
51 15 -59 -106 hvcurveto
-135 -5 rlineto
119 4 25 51 40 hhcurveto
hintmask 10111110
-218 -411 rmoveto
-56 -27 67 147 138 29 59 46 49 31 -74 -138 -133 -26 -66 -46 hvcurveto
hintmask 01111110
347 -73 rmoveto
9 75 -165 5 -38 48 -4 130 rlinecurve
214 5 rlineto
187 12 -40 108 -101 hhcurveto
-52 -42 -32 -56 -27 hvcurveto
59 -24 -39 29 -51 hhcurveto
-103 -69 -106 -186 hvcurveto
hintmask 10111110
-180 60 -87 95 57 44 38 66 28 vhcurveto
hintmask 01111110
35 -66 71 -36 130 -1 rrcurveto
endchar
                </CharString>
                <CharString name="ogonek">
                    -5 callgsubr
                </CharString>
                <CharString name="ogonek.cap">
                    -5 callgsubr
                </CharString>
                <CharString name="ograve">
                    38 callsubr
224 -20 8 callsubr
425 658 -94 callsubr
-98 -634 -105 callgsubr
                </CharString>
                <CharString name="ohungarumlaut">
                    20 callsubr
147 655 -88 callgsubr
-78 -670 -105 callgsubr
                </CharString>
                <CharString name="omacron">
                    38 callsubr
116 79 8 callsubr
498 754 -25 callsubr
-198 -691 -105 callgsubr
                </CharString>
                <CharString name="one">
                    0 77 466 169 -7 -20 27 -20 hstemhm
297 88 hintmask 10011000
547 hmoveto
7 77 rlineto
-169 635 hlineto
hintmask 10101000
-88 -7 rlineto
hintmask 11001000
-79 vlineto
-177 -22 1 -65 176 8 rlineto
-470 -190 -77 vlineto
endchar
                </CharString>
                <CharString name="one.den">
                    -233 -37 callgsubr
-233 -94 callgsubr
endchar
                </CharString>
                <CharString name="one.inf">
                    -167 -37 callgsubr
-167 -94 callgsubr
endchar
                </CharString>
                <CharString name="one.num">
                    472 62 254.5 137.5 hstem
296 71 vstem
-56 callgsubr
endchar
                </CharString>
                <CharString name="one.small">
                    0 -37 callgsubr
hmoveto
-97 callsubr
endchar
                </CharString>
                <CharString name="one.sup">
                    361 -37 callgsubr
361 -94 callgsubr
endchar
                </CharString>
                <CharString name="oneeighth">
                    -244 56 194 -21 29 -21 166 56 93 73 callgsubr
143 72 -64 74 71 71 37 70 -67 75 hintmask 1011111101010000
-91 callgsubr
25 callgsubr
hintmask 1011111011100000
-60 callgsubr
vhcurveto
hintmask 1101111011010000
16 callsubr
hintmask 1011111101010000
-23 callsubr
hintmask 1011111011100000
-83 callgsubr
hintmask 1011111101010000
-87 callgsubr
                </CharString>
                <CharString name="onefifth">
                    -245 68 183 -21 157 63 103 78 callgsubr
hstem
178 0 callsubr
53.5 71 40 69 vstem
-91 callgsubr
-78 callgsubr
                </CharString>
                <CharString name="onehalf">
                    -233 69 callsubr
93 73 callgsubr
296 71 25 74 hintmask 11111100
-91 callgsubr
405 -602 rmoveto
64 -237 vlineto
hintmask 11111110
-92 callgsubr
endchar
                </CharString>
                <CharString name="onequarter">
                    88 callgsubr
391 73 callgsubr
152 62 82 71 9 68 hintmask 11110100
-91 callgsubr
hintmask 11111110
426 -513 -93 callsubr
                </CharString>
                <CharString name="onesixth">
                    -243 60 167 51 273 78 callgsubr
hstem
141 70 85 71 48 70 vstem
-91 callgsubr
237 -612 -101 callgsubr
                </CharString>
                <CharString name="onethird">
                    67 callsubr
-38 callsubr
40 71 vstem
-91 callgsubr
88 -614 -97 callgsubr
                </CharString>
                <CharString name="ordfeminine">
                    129 62 81 59 137 51 108 68 hstem
131 76 195 76 vstem
287 331 rmoveto
-47 -33 18 44 55 49 31 146 -15 hvcurveto
1 -39 1 -29 1 -25 rrcurveto
-22 -33 -43 -18 -42 hhcurveto
128 -50 rmoveto
69 4 rlineto
-3 57 -3 57 88 vvcurveto
152 -68 48 -241 8 vhcurveto
-7 -68 177 -6 54 -19 8 -83 rlinecurve
-183 8 -87 -64 -85 vvcurveto
-66 57 -40 78 61 48 26 28 34 vhcurveto
2 -17 3 -21 1 -7 rrcurveto
-288 -90 rmoveto
-62 368 62 vlineto
endchar
                </CharString>
                <CharString name="ordmasculine">
                    129 62 81 63 300 61 hstem
115 76 243 76 vstem
115 478 rmoveto
-131 78 -75 108 115 94 88 132 128 -79 76 -109 -112 -95 -88 -130 vhcurveto
198 -143 rmoveto
-75 -47 51 104 93 45 52 75 76 47 -53 -102 -95 -46 -50 -75 hvcurveto
185 -206 rmoveto
62 -370 -62 vlineto
endchar
                </CharString>
                <CharString name="oslash">
                    62 callsubr
159 279 -66 callgsubr
                </CharString>
                <CharString name="oslashacute">
                    62 callsubr
196 665 -107 callgsubr
-37 -386 -66 callgsubr
                </CharString>
                <CharString name="otilde">
                    38 callsubr
75 95 callgsubr
8 callsubr
397 634 -89 callsubr
-97 -650 -105 callgsubr
                </CharString>
                <CharString name="p">
                    -170 -21 29 -21 170 78 -53 -21 491 75 -11 -20 hstemhm
109 90 267 90 hintmask 01101011
290 65 rmoveto
-31 -28 5 12 -32 hvcurveto
-1 159 -2 106 -2 89 rrcurveto
28 36 45 18 43 hhcurveto
85 63 -73 -135 -136 -78 -73 -98 hvcurveto
-91 -248 rmoveto
hintmask 01011011
174 vlineto
hintmask 01101011
-3 19 20 -1 19 hhcurveto
162 137 114 196 159 -87 101 -116 -68 -54 -31 -37 -40 hvcurveto
hintmask 10100111
-6 57 -83 -5 rlineto
5 -115 2 -165 -263 vvcurveto
-189 vlineto
endchar
                </CharString>
                <CharString name="paragraph">
                    112 73 428 86 hstemhm
60 85 134 77 -65 63 98 77 hintmask 11101100
452 185 rmoveto
-35 1 -33 4 -30 6 rrcurveto
413 vlineto
29 4 33 2 36 -2 rrcurveto
-307 -212 rmoveto
86 46 74 100 34 vhcurveto
-381 vlineto
-94 36 -52 68 83 vvcurveto
hintmask 11110100
211 -520 rmoveto
237 vlineto
-4 30 32 -2 34 hhcurveto
-212 vlineto
77 9 rlineto
790 vlineto
-301 2 -168 -130 -184 vvcurveto
-120 80 -92 139 -41 vhcurveto
-263 vlineto
endchar
                </CharString>
                <CharString name="parenleft">
                    -229 94 callsubr
805 -8 callgsubr
                </CharString>
                <CharString name="parenleft.cap">
                    -177 94 callsubr
857 -8 callgsubr
                </CharString>
                <CharString name="parenright">
                    -228 94 callgsubr
-228 -9 callsubr
                </CharString>
                <CharString name="parenright.cap">
                    -177 94 callgsubr
-177 -9 callsubr
                </CharString>
                <CharString name="percent">
                    4 58 callgsubr
713 -20 24 -20 hstemhm
62 202 98 202 hintmask 01011100
62 553 rmoveto
-88 40 -51 56 59 47 57 93 88 -40 52 -56 -61 -45 -58 -93 vhcurveto
hintmask 10101100
71 -570 rmoveto
420 682 -61 35 -420 -680 rlineto
hintmask 01011100
492 117 rmoveto
88 -40 51 -56 -59 -47 -57 -93 -88 40 -51 57 60 45 57 93 vhcurveto
endchar
                </CharString>
                <CharString name="period">
                    0 129 hstem
242.5 76 callgsubr
vstem
373 hmoveto
6 129 rlineto
-133 hlineto
-7 -129 rlineto
endchar
                </CharString>
                <CharString name="periodcentered">
                    274 130 hstem
246.5 76 callgsubr
vstem
379 274 55 callgsubr
-3 -130 rlineto
endchar
                </CharString>
                <CharString name="peso">
                    21 -21 201 81 126 75 -69 66 143 75 -11 -20 hstemhm
119 85 hintmask 11011010
204 480 rmoveto
139 vlineto
145 20 82 -56 13 -103 rrcurveto
-240 -198 rmoveto
132 240 vlineto
-15 -102 -84 -38 -135 8 rrcurveto
hintmask 11100110
390 126 rmoveto
75 -70 vlineto
-10 162 -140 86 -261 -44 rrcurveto
-204 -83 -75 83 -408 85 201 vlineto
172 13 121 64 27 130 rrcurveto
endchar
                </CharString>
                <CharString name="plus">
                    287 77 hstem
272 81 vstem
549 287 rmoveto
1 77 rlineto
-197 207 -81 -207 -197 -77 197 -208 81 208 hlineto
endchar
                </CharString>
                <CharString name="plusminus">
                    68 77 185 77 hstem
272 81 vstem
539 68 rmoveto
1 77 rlineto
-187 185 188 hlineto
1 77 rlineto
-189 198 -81 -198 -189 -77 189 -185 -187 -77 hlineto
endchar
                </CharString>
                <CharString name="published">
                    8 51 571 50 hstem
53 54 122 60 228 95 callsubr
100 -123 149 68 callgsubr
-147 -109 89 callgsubr
81 112 119 80 callsubr
-115 -82 105 176 vhcurveto
182 -181 rmoveto
101 vlineto
80 11 58 51 77 vvcurveto
95 -66 42 -132 -19 vhcurveto
-358 vlineto
endchar
                </CharString>
                <CharString name="q">
                    -169 -21 29 -21 168 76 417 78 hstemhm
69 90 269 90 hintmask 10111100
428 -190 rmoveto
hintmask 01111100
90 8 rlineto
710 vlineto
19 -49 -46 10 -55 hhcurveto
-155 -144 -116 -197 -159 86 -99 118 64 52 29 35 39 hvcurveto
-121 12 rmoveto
-87 -61 68 136 139 75 74 100 31 30 -6 -12 33 hvcurveto
-353 vlineto
-27 -34 -43 -19 -44 hhcurveto
endchar
                </CharString>
                <CharString name="question">
                    0 122 546 85 hstem
202 123.5 121.5 96 vstem
101 668 rmoveto
279 -18 67 -44 -53 vvcurveto
-79 -199 -61 -9 -158 vhcurveto
64 -2 rlineto
15 143 225 56 123 vvcurveto
87 -97 73 -335 18 vhcurveto
213 -753 rmoveto
3 122 rlineto
-124 hlineto
-2 -122 rlineto
endchar
                </CharString>
                <CharString name="questiondown">
                    566 122 hstem
82 96 121 123 vstem
301 688 rmoveto
-4 -122 rlineto
123 hlineto
4 122 rlineto
100 -668 rmoveto
-279 18 -67 45 52 vvcurveto
79 199 61 9 158 vhcurveto
-63 2 rlineto
-16 -143 -225 -56 -123 vvcurveto
-87 97 -73 335 -18 vhcurveto
endchar
                </CharString>
                <CharString name="quotedbl">
                    416 327 hstem
152 108 99 callsubr
108 vstem
456 416 rmoveto
46 284 -3 43 rlineto
-109 hlineto
5 -327 rlineto
-179 hmoveto
46 284 -4 43 rlineto
-109 hlineto
6 -327 rlineto
endchar
                </CharString>
                <CharString name="quotedblbase">
                    -170 -21 22 -21 hstemhm
172 100 137 101 hintmask 10110000
118 -191 rmoveto
45 -15 95 93 36 126 -36 124 rlinecurve
-122 -7 52 -121 -3 -112 -67 -88 rlinecurve
hintmask 01110000
235 1 rmoveto
45 -15 96 91 38 125 -34 126 rlinecurve
-123 -7 51 -120 -4 -113 -69 -87 rlinecurve
endchar
                </CharString>
                <CharString name="quotedblleft">
                    422 343 hstem
125 100 138 99 vstem
514 751 rmoveto
-45 14 -94 -93 -35 -125 37 -125 rlinecurve
121 8 -53 121 4 112 65 88 rlinecurve
-234 -1 rmoveto
-45 15 -95 -92 -37 -125 35 -126 rlinecurve
120 8 -50 120 5 113 67 87 rlinecurve
endchar
                </CharString>
                <CharString name="quotedblright">
                    399 344 hstem
175 99 138 101 vstem
122 414 rmoveto
46 -15 94 94 35 125 -37 125 rlinecurve
-121 -8 53 -121 -4 -112 -66 -88 rlinecurve
235 1 rmoveto
46 -15 95 92 37 125 -35 126 rlinecurve
-120 -8 50 -120 -6 -113 -67 -87 rlinecurve
endchar
                </CharString>
                <CharString name="quoteleft">
                    422 343 hstem
241 103 vstem
404 750 rmoveto
-49 15 -95 -91 -46 -125 43 -127 rlinecurve
123 8 -56 123 9 111 71 86 rlinecurve
endchar
                </CharString>
                <CharString name="quoteright">
                    400 344 hstem
295 103 vstem
236 415 rmoveto
48 -15 96 91 45 125 -43 128 rlinecurve
-122 -9 55 -123 -8 -111 -71 -86 rlinecurve
endchar
                </CharString>
                <CharString name="quotesinglbase">
                    -169 -21 hstem
291 103 vstem
230 -190 rmoveto
47 -15 97 92 46 125 -42 125 rlinecurve
-125 -7 57 -121 -7 -112 -73 -87 rlinecurve
endchar
                </CharString>
                <CharString name="quotesingle">
                    405 338 hstem
275.5 116.5 vstem
341 405 rmoveto
53 294 -4 44 rlineto
-117 hlineto
5 -338 rlineto
endchar
                </CharString>
                <CharString name="r">
                    14 callgsubr
-39 callgsubr
endchar
                </CharString>
                <CharString name="racute">
                    14 callgsubr
hintmask 11010000
222 669 -107 callgsubr
268 -669 rmoveto
-34 callgsubr
endchar
                </CharString>
                <CharString name="rcaron">
                    3 callgsubr
240 -20 hstemhm
225 89 hintmask 11011000
347 625 -90 callgsubr
148 -625 rmoveto
3 callsubr
hintmask 10111000
34 callgsubr
hintmask 11011000
-60 callsubr
endchar
                </CharString>
                <CharString name="rcommaaccent">
                    14 callgsubr
-60 93 -39 callgsubr
hintmask 11001000
147 -65 callsubr
                </CharString>
                <CharString name="registered">
                    216 46 184.5 165.5 90 47 hstem
48 50 125 53 251 51 vstem
578 490 rmoveto
160 -112 101 -151 -2 vhcurveto
-159 -2 -108 -110 -162 vvcurveto
-160 104 -99 158 151 117 112 162 vhcurveto
-51 -5 rmoveto
-141 -93 -82 -124 -123 -89 79 139 137 90 85 126 125 88 -77 -140 vhcurveto
-147 -129 rmoveto
56 7 -66 98 rlineto
28 20 24 27 29 vvcurveto
50 -57 40 -142 -20 vhcurveto
-249 53 88 vlineto
48 1 rlineto
endchar
                </CharString>
                <CharString name="registered.alt">
                    8 51 226 240 105 50 hstem
53 54 113 60 237 95 callsubr
101 -123 148 68 callgsubr
-146 -110 89 callgsubr
82 112 118 80 callsubr
-114 -83 105 176 vhcurveto
259 -184 rmoveto
64 7 -59 149 rlineto
25 27 19 39 41 vvcurveto
70 -48 55 -147 -26 vhcurveto
-357 60 123 vlineto
41 2 rlineto
endchar
                </CharString>
                <CharString name="ring">
                    12 callgsubr
                </CharString>
                <CharString name="ring.cap">
                    12 callgsubr
                </CharString>
                <CharString name="ruble">
                    0 199 -66 66 98 69 255 76 -10 -20 hstemhm
148 88 241 88 hintmask 01110110
477 499 rmoveto
-102 -75 -29 -166 -2 vhcurveto
252 vlineto
157 15 84 -42 -92 vvcurveto
-9 -366 rmoveto
7 66 rlineto
-239 100 hlineto
211 10 118 60 140 vvcurveto
hintmask 01101110
151 -147 63 -270 -36 vhcurveto
-321 -93 -69 93 -95 -93 -69 93 vlineto
hintmask 10110110
-133 88 vlineto
hintmask 01110110
133 vlineto
endchar
                </CharString>
                <CharString name="rupee">
                    -7 75 -51 58 callgsubr
28 -21 252.5 0 callsubr
227 -20 90 76 -10 -20 hstemhm
83 79 96 79 41 76 57 78 hintmask 0100111011110000
281 -4 rmoveto
hintmask 0001110111110000
76 11 -84 297 rlineto
37 45 27 64 89 vvcurveto
141 -63 84 -191 -40 vhcurveto
hintmask 0010111011110000
-687 79 258 vlineto
48 3 rlineto
-48 357 rmoveto
68 15 28 -45 -100 vvcurveto
-72 -15 -53 -23 -38 vhcurveto
-58 -2 rlineto
414 228 rmoveto
-142 14 -56 -81 -74 vvcurveto
hintmask 1000111011110000
-122 133 -56 -93 vvcurveto
-44 -30 -36 -100 9 vhcurveto
2 -75 rlineto
156 -12 50 84 77 123 -135 60 87 vvcurveto
42 26 33 98 -11 vhcurveto
endchar
                </CharString>
                <CharString name="rupeeindia">
                    4 -21 422 65 141 77 hstem
95 455 vstem
539 33 rmoveto
-152 118 -82 60 -90 28 128 26 79 63 19 77 rrcurveto
103 65 -100 hlineto
-10 60 -42 51 -71 30 rrcurveto
224 hlineto
5 77 rlineto
-446 hlineto
-6 -75 167 -17 74 -56 16 -70 rlinecurve
-255 -65 255 hlineto
-16 -69 -70 -51 -158 -12 -16 -67 rcurveline
140 -40 64 -48 168 -135 rrcurveto
endchar
                </CharString>
                <CharString name="s">
                    52 callgsubr
212 94 hintmask 10111000
492 548 rmoveto
hintmask 11011000
-69 callsubr
endchar
                </CharString>
                <CharString name="sacute">
                    52 callgsubr
212 94 hintmask 11011000
200 661 -107 callgsubr
hintmask 10111000
292 -113 rmoveto
hintmask 11011000
-69 callsubr
endchar
                </CharString>
                <CharString name="scaron">
                    -4 76 401 78 -3 -20 177 60 callgsubr
120 93 212 94 hintmask 11010111
325 617 -73 callsubr
rlineto
hintmask 11011011
-30 callsubr
rlineto
hintmask 11010111
-10 callsubr
hintmask 10110111
172 -69 rmoveto
hintmask 11010111
-69 callsubr
endchar
                </CharString>
                <CharString name="scedilla">
                    -5 77 -52 -21 474 78 -3 -20 hstemhm
120 93 125 81 6 94 hintmask 10101010
215 -249 rmoveto
hintmask 01101100
31 callsubr
41 -35 45 -85 47 vhcurveto
hintmask 01101010
163 20 57 67 67 -16 callsubr
hintmask 10011010
-4 80 rlineto
hintmask 10101010
-47 callgsubr
47 -3 43 0 37 2 rlinecurve
-10 -21 rlineto
hintmask 10101100
-17 callgsubr
endchar
                </CharString>
                <CharString name="schwa">
                    -13 75 173 56 188 78 hstem
81 88 286 90 vstem
288 -13 rmoveto
141 116 127 166 176 -92 99 -341 2 hvcurveto
-10 -78 262 -7 82 -48 9 -128 rlinecurve
-371 -10 rlineto
-179 -20 75 -120 149 hhcurveto
16 75 rmoveto
-91 -43 66 103 -1 hvcurveto
286 8 rlineto
-116 -6 -56 -61 -89 hhcurveto
endchar
                </CharString>
                <CharString name="scommaaccent">
                    52 callgsubr
52 93 67 94 hintmask 10111100
492 548 rmoveto
hintmask 11011100
-69 callsubr
-257 -773 -99 callgsubr
                </CharString>
                <CharString name="section">
                    -121 79 660 79 hstemhm
77 81 -35 93 192 93 -35 82 hintmask 11100100
158 305 rmoveto
34 44 33 59 22 vhcurveto
95 -40 110 -29 -54 vvcurveto
-34 -44 -33 -58 -22 vhcurveto
-96 40 -110 29 54 vvcurveto
hintmask 11101000
343 -254 rmoveto
45 -33 32 -46 26 vhcurveto
hintmask 11010100
71 31 55 49 58 136 -332 19 86 vvcurveto
43 61 52 234 -10 vhcurveto
-5 79 rlineto
-282 10 -101 -100 -83 vvcurveto
-44 34 -32 46 -26 vhcurveto
hintmask 11101000
-71 -31 -55 -48 -58 -137 331 -20 -86 vvcurveto
-42 -63 -53 -233 11 vhcurveto
-4 -79 rlineto
291 -10 102 100 82 vvcurveto
endchar
                </CharString>
                <CharString name="semicolon">
                    -169 -21 555 130 hstemhm
252 134 -102 104 hintmask 11100000
385 365 rmoveto
2 130 rlineto
-134 hlineto
-2 -130 rlineto
hintmask 11010000
-28 -555 rmoveto
48 -15 96 90 48 124 -42 127 rlinecurve
-126 -7 56 -122 -7 -111 -73 -86 rlinecurve
endchar
                </CharString>
                <CharString name="servicemark">
                    320 55 8 83 137 85 -50 54 hstemhm
47 58 76 59 54 79 callsubr
hintmask 11101111
414 383 2 callgsubr
hintmask 10011111
-304 -228 rmoveto
-55 vlineto
137 -1 55 54 53 83 -135 33 54 vvcurveto
27 29 18 88 -3 vhcurveto
-2 54 rlineto
-125 5 -48 -58 -49 -81 134 -32 -54 vvcurveto
-27 -34 -25 -99 4 vhcurveto
endchar
                </CharString>
                <CharString name="seven">
                    15 -21 31 -21 602 82 hstemhm
97 450 hintmask 10110000
265 -6 rmoveto
69 208 96 209 117 200 rrcurveto
77 -443 vlineto
-7 -82 rlineto
358 hlineto
3 -4 rlineto
hintmask 01110000
-119 -194 -97 -202 -70 -202 rrcurveto
endchar
                </CharString>
                <CharString name="seven.den">
                    141 68 callsubr
-241 -69 callgsubr
endchar
                </CharString>
                <CharString name="seven.inf">
                    207 68 callsubr
-175 -69 callgsubr
endchar
                </CharString>
                <CharString name="seven.num">
                    846 68 callsubr
464 -69 callgsubr
endchar
                </CharString>
                <CharString name="seven.small">
                    13 -21 30 -21 373 64 hstemhm
152 335 hintmask 10110000
283 -8 -61 callsubr
rlineto
hintmask 01110000
7 callsubr
rrcurveto
endchar
                </CharString>
                <CharString name="seven.sup">
                    735 68 callsubr
353 -69 callgsubr
endchar
                </CharString>
                <CharString name="seveneighths">
                    40 callgsubr
477 64 -14 callsubr
75 hintmask 1011111001000000
283 464 -69 callgsubr
-132 -165 -44 callgsubr
25 callgsubr
hintmask 1011110110000000
-60 callgsubr
vhcurveto
hintmask 1101110101000000
16 callsubr
hintmask 1011111001000000
-23 callsubr
hintmask 1011110110000000
-83 callgsubr
hintmask 1011111001000000
-87 callgsubr
                </CharString>
                <CharString name="six">
                    -12 74 291 66 hstem
84 86 289 86 vstem
312 -12 rmoveto
124 109 90 143 195 -211 66 -156 -132 hvcurveto
23 116 80 92 181 77 -38 78 rcurveline
-234 -111 -106 -155 -192 vvcurveto
-174 93 -93 135 vhcurveto
8 74 rmoveto
-86 -64 65 138 8 0 8 1 8 hvcurveto
139 111 149 -39 -149 vvcurveto
-94 -61 -56 -78 vhcurveto
endchar
                </CharString>
                <CharString name="six.den">
                    -243 4 callsubr
-243 -101 callgsubr
                </CharString>
                <CharString name="six.inf">
                    -177 4 callsubr
-177 -101 callgsubr
                </CharString>
                <CharString name="six.num">
                    462 60 167 -20 20 51 hstemhm
141 70 204 70 hintmask 10111000
312 462 rmoveto
93 80 61 91 hvcurveto
hintmask 11011000
6 callgsubr
vhcurveto
-57 callsubr
hintmask 10111000
-80 callgsubr
                </CharString>
                <CharString name="six.small">
                    -10 4 callsubr
-10 -101 callgsubr
                </CharString>
                <CharString name="six.sup">
                    351 4 callsubr
351 -101 callgsubr
                </CharString>
                <CharString name="slash">
                    -210 1017 hstem
18 593 vstem
533 807 rmoveto
-515 -985 80 -32 513 980 rlineto
endchar
                </CharString>
                <CharString name="space">
                    endchar
                </CharString>
                <CharString name="sterling">
                    0 77 228 70 240 91 0 -20 hstemhm
75 466 hintmask 11011000
534 78 rmoveto
-292 -2 25 229 rlineto
199 hlineto
6 70 rlineto
-197 hlineto
hintmask 11101000
21 195 29 34 216 11 -6 91 rcurveline
-264 -19 -60 -86 -26 -226 rrcurveto
-96 hlineto
-7 -70 rlineto
96 hlineto
-23 -229 -80 -1 rlineto
-75 459 vlineto
endchar
                </CharString>
                <CharString name="t">
                    33 callsubr
-21 callsubr
endchar
                </CharString>
                <CharString name="tcaron">
                    33 callsubr
136 88 hintmask 11011100
401 658 -50 callgsubr
117 -667 1 callgsubr
hintmask 11101100
30 callgsubr
hintmask 11011100
74 callsubr
endchar
                </CharString>
                <CharString name="tcommaaccent">
                    33 callsubr
20 93 -21 callsubr
hintmask 11011100
-231 -65 callsubr
                </CharString>
                <CharString name="thorn">
                    82 callsubr
78 -52 -21 490 84 callsubr
89 hintmask 0110101110000000
289 65 rmoveto
-31 -27 5 12 -33 hvcurveto
358 vlineto
25 36 41 17 42 hhcurveto
85 64 -73 -135 -136 -78 -73 -99 hvcurveto
-91 -247 rmoveto
hintmask 0101101110000000
174 vlineto
hintmask 0110101110000000
-4 21 21 -1 20 hhcurveto
158 137 115 195 159 -87 101 -116 -63 -51 -27 -34 -40 hvcurveto
288 vlineto
hintmask 1010110110000000
-91 -8 rlineto
-967 vlineto
endchar
                </CharString>
                <CharString name="three">
                    -13 84 538 79 hstem
447 87 vstem
113 -13 rmoveto
299 14 122 86 115 vvcurveto
80 -69 71 -201 34 vhcurveto
256 222 -6 79 rlineto
-400 -79 313 hlineto
-266 -231 rlineto
-43 vlineto
214 -24 72 -56 -60 vvcurveto
-67 -86 -44 -255 -13 vhcurveto
endchar
                </CharString>
                <CharString name="three.den">
                    -245 13 callsubr
-245 -97 callgsubr
                </CharString>
                <CharString name="three.inf">
                    -179 13 callsubr
-179 -97 callgsubr
                </CharString>
                <CharString name="three.num">
                    460 33 callgsubr
hstem
407 71 vstem
163 460 -97 callgsubr
                </CharString>
                <CharString name="three.small">
                    -12 13 callsubr
-12 -97 callgsubr
                </CharString>
                <CharString name="three.sup">
                    349 67 148 -20 192.5 -3 callgsubr
349 -97 callgsubr
                </CharString>
                <CharString name="threeeighths">
                    -244 56 194 -21 29 -21 166 56 93 24 callgsubr
-14 callsubr
71 -71 75 hintmask 1011111110010000
163 460 rmoveto
-68 callgsubr
228 -613 rmoveto
hintmask 1011111110001000
-43 callgsubr
hintmask 1011111101100000
-60 callgsubr
vhcurveto
hintmask 1101111101010000
16 callsubr
hintmask 1011111110010000
-23 callsubr
hintmask 1011111101100000
-83 callgsubr
hintmask 1011111110001000
-87 callgsubr
                </CharString>
                <CharString name="threefifths">
                    -245 68 183 -21 157 63 103 24 callgsubr
-1 callsubr
163 460 rmoveto
-68 callgsubr
-78 callgsubr
                </CharString>
                <CharString name="threequarters">
                    88 callgsubr
391 24 callgsubr
hstemhm
50 callgsubr
-37 71 hintmask 11111010
163 460 rmoveto
hintmask 11111001
-68 callgsubr
hintmask 11111110
426 -513 -93 callsubr
                </CharString>
                <CharString name="tilde">
                    -36 callsubr
                </CharString>
                <CharString name="tilde.cap">
                    -36 callsubr
                </CharString>
                <CharString name="trademark">
                    636 52 hstem
113 57 124 79 callsubr
vstem
170 636 rmoveto
77 52 -214 hlineto
-4 -52 rlineto
84 -312 57 hlineto
244 59 2 callgsubr
endchar
                </CharString>
                <CharString name="two">
                    0 79 533 85 hstem
429 90 vstem
541 hmoveto
79 -343 vlineto
204 165 117 111 142 vvcurveto
113 -89 90 -311 -3 vhcurveto
-8 -85 rlineto
249 -2 69 -50 -86 vvcurveto
-113 -119 -108 -220 -180 vhcurveto
9 -73 rlineto
endchar
                </CharString>
                <CharString name="two.den">
                    -233 26 callsubr
-233 -63 callgsubr
                </CharString>
                <CharString name="two.inf">
                    -167 26 callsubr
-167 -63 callgsubr
                </CharString>
                <CharString name="two.num">
                    472 64 320 64 hstem
392 74 vstem
-6 callsubr
endchar
                </CharString>
                <CharString name="two.small">
                    0 26 callsubr
hmoveto
-92 callsubr
endchar
                </CharString>
                <CharString name="two.sup">
                    361 26 callsubr
361 -63 callgsubr
                </CharString>
                <CharString name="twofifths">
                    51 callsubr
103 69 callsubr
hstemhm
178 0 callsubr
149.5 74 -59 69 hintmask 0111111100000000
-20 callgsubr
hintmask 1111111010000000
-78 callgsubr
                </CharString>
                <CharString name="twothirds">
                    67 callsubr
69 callsubr
hstemhm
392 74 -59 71 hintmask 11111100
-20 callgsubr
88 -614 rmoveto
hintmask 11111010
-106 callsubr
endchar
                </CharString>
                <CharString name="u">
                    -20 callsubr
hintmask 01000111
444 -2 -85 callsubr
                </CharString>
                <CharString name="uacute">
                    -20 callsubr
hintmask 10000111
199 663 -107 callgsubr
hintmask 01000111
245 -665 -85 callsubr
                </CharString>
                <CharString name="ubreve">
                    -51 callsubr
103 74 42 callsubr
314 630 -104 callgsubr
hintmask 0100011110000000
130 -632 -87 callsubr
                </CharString>
                <CharString name="ucircumflex">
                    -20 callsubr
hintmask 10000111
456 625 -100 callsubr
hintmask 01000111
135 -752 -85 callsubr
                </CharString>
                <CharString name="udieresis">
                    -51 callsubr
108 151 92 callgsubr
-39 -80 callsubr
-56.5 91 hintmask 1000011011000000
484 635 -89 callgsubr
hintmask 0100011100100000
295 -637 rmoveto
hintmask 0010101100100000
84 -59 callgsubr
hintmask 1000011100100000
-81 callsubr
hintmask 1001001100100000
-72 callgsubr
                </CharString>
                <CharString name="ugrave">
                    -51 callsubr
254 -20 42 callsubr
427 656 -94 callsubr
hintmask 0100011110000000
44 -618 -87 callsubr
                </CharString>
                <CharString name="uhungarumlaut">
                    -20 callsubr
hintmask 10000111
150 653 -88 callgsubr
hintmask 01000111
63 -654 -85 callsubr
                </CharString>
                <CharString name="umacron">
                    -51 callsubr
146 79 42 callsubr
501 752 -25 callsubr
hintmask 0100011110000000
-57 -675 -87 callsubr
                </CharString>
                <CharString name="underscore">
                    -129 73 hstem
44 536 vstem
580 -56 rmoveto
-536 -73 536 hlineto
endchar
                </CharString>
                <CharString name="underscore.alt">
                    -129 73 hstem
-4 633 vstem
629 -56 rmoveto
-633 -73 633 hlineto
endchar
                </CharString>
                <CharString name="uni00A0">
                    endchar
                </CharString>
                <CharString name="uogonek">
                    -236 73 150 77 -40 -31 callsubr
92 callgsubr
110 85 46 91 hintmask 1100011110000000
504 -236 rmoveto
8 73 rlineto
-94 9 -35 17 27 vvcurveto
hintmask 1010101110000000
26 32 34 113 53 vhcurveto
-53 callsubr
hintmask 1100011110000000
-175 2 -134 2 -95 vhcurveto
-46 -43 -45 -30 -53 hhcurveto
-65 -39 36 105 hvcurveto
342 vlineto
hintmask 1101001110000000
-22 callgsubr
62 -54 95 74 64 47 52 45 vhcurveto
6 -76 rlineto
-105 -55 -40 -44 -44 vvcurveto
hintmask 1100011110000000
-53 97 callsubr
                </CharString>
                <CharString name="uring">
                    -51 callsubr
84 235 42 callsubr
313 846 -62 callgsubr
hintmask 0100011110000000
131 -848 -87 callsubr
                </CharString>
                <CharString name="v">
                    -4 90 458 61 callgsubr
hstemhm
55 517 hintmask 10110000
319 86 rmoveto
-9 hlineto
-60 153 -54 155 -49 153 -92 -6 rcurveline
60 -181 67 -182 73 -182 rrcurveto
114 hlineto
hintmask 11010000
73 181 70 185 60 182 rrcurveto
-92 hlineto
hintmask 10110000
-48 -151 -54 -155 -59 -152 rrcurveto
endchar
                </CharString>
                <CharString name="w">
                    23 callgsubr
415 hmoveto
-77 callgsubr
                </CharString>
                <CharString name="wacute">
                    23 callgsubr
196 -68 callsubr
219 -660 rmoveto
-77 callgsubr
                </CharString>
                <CharString name="wcircumflex">
                    23 callgsubr
454 -35 callgsubr
108 -747 rmoveto
-77 callgsubr
                </CharString>
                <CharString name="wdieresis">
                    36 callgsubr
108 56 callsubr
71 90 -15 -80 callsubr
-14.5 86 hintmask 01110110
481 632 -89 callgsubr
269 -632 rmoveto
hintmask 01110101
-15 callgsubr
hintmask 10111001
-93 callgsubr
                </CharString>
                <CharString name="wgrave">
                    36 callgsubr
254 -20 hstemhm
71 90 307 86 hintmask 01111100
425 -24 callsubr
17 -613 rmoveto
-15 callgsubr
hintmask 10111100
-93 callgsubr
                </CharString>
                <CharString name="x">
                    19 -21 23 -21 24 -21 541 61 callgsubr
hstemhm
55 515 hintmask 10001100
467 -2 rmoveto
hintmask 00110100
101 5 -196 269 198 272 rlineto
-97 hlineto
-156 -220 rlineto
hintmask 01001100
-162 223 -100 -6 199 -271 -199 -270 rlineto
96 hlineto
157 219 rlineto
endchar
                </CharString>
                <CharString name="y">
                    32 callsubr
85 -197 -75 callgsubr
                </CharString>
                <CharString name="yacute">
                    32 callsubr
203 663 -107 callgsubr
-118 -860 -75 callgsubr
                </CharString>
                <CharString name="ycircumflex">
                    32 callsubr
461 625 -100 callsubr
-229 -947 -75 callgsubr
                </CharString>
                <CharString name="ydieresis">
                    36 callsubr
108 56 callsubr
153 -80 callsubr
hintmask 10111100
488 635 -89 callgsubr
-68 -832 15 callsubr
hintmask 11011100
-50 callsubr
hintmask 10111100
-71 callsubr
                </CharString>
                <CharString name="yen">
                    0 202 -68 68 103 67 316 -20 22 -20 hstemhm
266.5 90 hintmask 01101100
544 134 rmoveto
1 68 rlineto
-189 hlineto
-1 73 16 30 rlineto
174 67 -139 hlineto
hintmask 01110100
166 316 rlineto
-93 hlineto
-163 -336 rlineto
hintmask 01101100
-170 338 -97 -4 166 -314 rlineto
-138 -67 174 hlineto
17 -31 -1 -72 rlineto
-190 hlineto
-1 -68 rlineto
191 hlineto
hintmask 10101100
-1 -134 rlineto
91 hlineto
hintmask 01101100
-1 134 rlineto
endchar
                </CharString>
                <CharString name="ygrave">
                    36 callsubr
254 -20 hstemhm
54 515 hintmask 10111000
432 656 -94 callsubr
-320 -813 15 callsubr
hintmask 11011000
-50 callsubr
hintmask 10111000
-71 callsubr
                </CharString>
                <CharString name="z">
                    85 callsubr
hstem
88 458 vstem
539 hmoveto
-45 callsubr
                </CharString>
                <CharString name="zacute">
                    85 callsubr
hstem
88 458 vstem
206 -68 callsubr
333 -660 rmoveto
-45 callsubr
                </CharString>
                <CharString name="zcaron">
                    85 callsubr
160 60 callgsubr
88 458 hintmask 11101100
331 4 callgsubr
hintmask 11110100
-30 callsubr
rlineto
hintmask 11101100
-10 callsubr
213 -616 rmoveto
-45 callsubr
                </CharString>
                <CharString name="zdotaccent">
                    85 callsubr
88 83 callsubr
277.5 94 vstem
369 11 callsubr
263 -632 rmoveto
-45 callsubr
                </CharString>
                <CharString name="zero">
                    -7 callgsubr
-149 363 rmoveto
175 54 101 103 79 48 -63 -107 20 vhcurveto
-302 -158 rlineto
-1 17 -1 17 18 vvcurveto
156 -288 rmoveto
-77 -49 62 105 -20 hvcurveto
302 157 rlineto
1 -16 0 -16 -16 vvcurveto
-175 -52 -101 -105 vhcurveto
endchar
                </CharString>
                <CharString name="zero.alt">
                    -7 callgsubr
8 639 rmoveto
104 52 -110 -178 -175 -52 -101 -105 -103 -53 111 177 175 54 101 103 hvcurveto
endchar
                </CharString>
                <CharString name="zero.den">
                    -244 -14 callgsubr
-244 -88 callsubr
                </CharString>
                <CharString name="zero.inf">
                    -178 -14 callgsubr
-178 -88 callsubr
                </CharString>
                <CharString name="zero.num">
                    461 -14 callgsubr
461 -88 callsubr
                </CharString>
                <CharString name="zero.small">
                    -11 -14 callgsubr
-11 -88 callsubr
                </CharString>
                <CharString name="zero.sup">
                    350 -14 callgsubr
350 -88 callsubr
                </CharString>
                <CharString name="less_exclam_hyphen_hyphen.liga">
                    -24 693 -669 123 163 78 hstemhm
-1773 84 685 127 hintmask 01011000
-904 260 rmoveto
2 95 28 295 5 101 rrcurveto
-116 hlineto
2 -101 19 -295 -95 vvcurveto
hintmask 10011000
-443 409 rmoveto
-366 -306 rlineto
-77 vlineto
369 -310 52 64 rlineto
hintmask 01111000
-297 246 rlineto
540 hlineto
6 78 rlineto
-545 hlineto
291 241 rlineto
596 -319 rmoveto
1246 hlineto
6 78 rlineto
-1252 hlineto
-117 -364 rmoveto
3 123 rlineto
-127 hlineto
-3 -123 rlineto
endchar
                </CharString>
                <CharString name="equal_equal_equal.liga">
                    45 77 169 77 169 77 hstem
-1157 1688 vstem
531 614 rmoveto
-1688 -77 1687 hlineto
1 -169 rmoveto
-1688 -77 1687 hlineto
1 -169 rmoveto
-1688 -77 1687 hlineto
endchar
                </CharString>
                <CharString name="equal_equal_greater.liga">
                    -25 694 -501 77 169 77 hstemhm
440 84 hintmask 01010000
108 604 rmoveto
hintmask 01110000
137 -113 rlineto
-1402 -77 1495 hlineto
102 -84 rlineto
-11 vlineto
-89 -74 rlineto
-1508 -77 1415 hlineto
-155 -129 rlineto
hintmask 10010000
51 -64 370 311 rlineto
77 vlineto
-364 306 rlineto
endchar
                </CharString>
                <CharString name="equal_less_less.liga">
                    -24 693 -501 77 169 77 hstemhm
-1157 1680 -771 84 266 84 hintmask 01000100
168 605 rmoveto
hintmask 10000100
-50 64 rlineto
hintmask 01100100
-213 -178 rlineto
-1062 -77 970 hlineto
hintmask 01101100
-61 -51 rlineto
-77 vlineto
49 -41 rlineto
-958 -77 1049 hlineto
hintmask 10001100
229 -192 52 64 -337 279 rlineto
11 vlineto
350 hmoveto
332 275 -50 64 -366 -306 rlineto
-77 vlineto
369 -310 rlineto
hintmask 10010000
52 64 rlineto
hintmask 10000100
-337 279 rlineto
endchar
                </CharString>
                <CharString name="exclam_equal_equal.liga">
                    -210 1017 -762 77 169 77 169 77 hstemhm
-1157 1688 -1151 593 hintmask 01101000
531 368 rmoveto
-768 hlineto
hintmask 01111000
88 169 rlineto
679 hlineto
1 77 rlineto
-640 hlineto
hintmask 01110100
82 156 rlineto
hintmask 10000100
-78 37 rlineto
hintmask 01110100
-101 -193 rlineto
-951 -77 911 hlineto
-89 -169 rlineto
-822 -77 782 hlineto
-88 -169 rlineto
-694 -77 654 hlineto
-117 -223 rlineto
hintmask 10000100
80 -32 rlineto
hintmask 01100100
133 255 rlineto
937 hlineto
1 77 rlineto
-897 hlineto
88 169 rlineto
808 hlineto
endchar
                </CharString>
                <CharString name="greater_equal_greater.liga">
                    -25 694 -501 77 169 77 hstemhm
-1147 1671 -1334 84 1166 84 hintmask 01001100
108 604 rmoveto
hintmask 01101100
137 -113 rlineto
-1123 hlineto
hintmask 10001100
-212 178 -52 -65 332 -274 rlineto
-11 vlineto
hintmask 10010000
-337 -280 51 -64 rlineto
hintmask 01010000
230 193 rlineto
1124 hlineto
-155 -129 rlineto
hintmask 10010000
51 -64 rlineto
hintmask 10001100
370 311 rlineto
77 vlineto
-364 306 rlineto
hintmask 01001100
191 -424 rmoveto
-1126 hlineto
49 41 rlineto
77 vlineto
hintmask 01101100
-61 51 rlineto
1125 hlineto
102 -84 rlineto
-11 vlineto
endchar
                </CharString>
                <CharString name="greater_greater_equal.liga">
                    -25 694 -501 77 169 77 hstemhm
-1147 1679 -1342 84 260 84 hintmask 10000100
-1090 669 rmoveto
-52 -65 rlineto
hintmask 10001100
332 -274 rlineto
-11 vlineto
hintmask 10010000
-337 -280 51 -64 rlineto
hintmask 10001100
370 311 rlineto
77 vlineto
344 hmoveto
hintmask 01101100
-61 51 rlineto
973 hlineto
1 77 rlineto
-1065 hlineto
hintmask 10001100
-212 178 -52 -65 332 -274 rlineto
-11 vlineto
-337 -280 51 -64 rlineto
hintmask 01001100
230 193 rlineto
1052 hlineto
1 77 rlineto
-962 hlineto
49 41 rlineto
endchar
                </CharString>
                <CharString name="hyphen_hyphen_greater.liga">
                    -25 694 -383 78 hstemhm
440 84 hintmask 10100000
108 604 rmoveto
hintmask 01100000
291 -240 rlineto
-1510 -78 1511 hlineto
-297 -247 rlineto
hintmask 10100000
51 -64 370 311 rlineto
77 vlineto
-364 306 rlineto
endchar
                </CharString>
                <CharString name="less_equal_equal.liga">
                    -24 693 -501 77 169 77 hstemhm
-1148 84 -84 1680 hintmask 01010000
-1064 330 rmoveto
hintmask 01110000
101 84 rlineto
1493 hlineto
1 77 rlineto
-1401 hlineto
138 114 rlineto
hintmask 10010000
-50 64 rlineto
hintmask 10001000
-366 -306 rlineto
-77 vlineto
369 -310 52 64 rlineto
hintmask 01001000
-155 128 rlineto
1412 hlineto
1 77 rlineto
-1506 hlineto
hintmask 01010000
-89 74 rlineto
endchar
                </CharString>
                <CharString name="less_equal_greater.liga">
                    -24 693 -501 77 169 77 hstemhm
-1148 84 1504 84 hintmask 01111000
108 604 rmoveto
137 -113 rlineto
-1115 hlineto
138 114 rlineto
hintmask 10011000
-50 64 -366 -306 rlineto
-77 vlineto
369 -310 52 64 rlineto
hintmask 01111000
-155 128 rlineto
1140 hlineto
-155 -129 rlineto
hintmask 10011000
51 -64 370 311 rlineto
77 vlineto
-364 306 rlineto
hintmask 01111000
191 -424 rmoveto
-1326 hlineto
-89 74 rlineto
11 vlineto
101 84 rlineto
1301 hlineto
102 -84 rlineto
-11 vlineto
endchar
                </CharString>
                <CharString name="less_equal_less.liga">
                    -24 693 -501 77 169 77 hstemhm
-1148 84 -84 1671 -421 84 hintmask 01001000
523 40 rmoveto
hintmask 01000100
-337 279 rlineto
11 vlineto
332 275 rlineto
hintmask 10000100
-50 64 rlineto
hintmask 01100100
-213 -178 rlineto
-1125 hlineto
138 114 rlineto
hintmask 10000100
-50 64 rlineto
hintmask 10001000
-366 -306 rlineto
-77 vlineto
369 -310 52 64 rlineto
hintmask 01001000
-155 128 rlineto
1124 hlineto
hintmask 10001000
229 -192 rlineto
hintmask 10010100
-1535 343 rmoveto
11 vlineto
hintmask 01110100
101 84 rlineto
1126 hlineto
-61 -51 rlineto
-77 vlineto
49 -41 rlineto
-1126 hlineto
endchar
                </CharString>
                <CharString name="less_hyphen_greater.liga">
                    -25 694 -383 78 hstemhm
-1148 84 1504 84 hintmask 10110000
160 669 rmoveto
-52 -65 rlineto
hintmask 01110000
291 -240 rlineto
-1422 hlineto
291 241 rlineto
hintmask 10110000
-50 64 -366 -306 rlineto
-77 vlineto
369 -310 52 64 rlineto
hintmask 01110000
-297 246 rlineto
1424 hlineto
-297 -247 rlineto
hintmask 10110000
51 -64 370 311 rlineto
77 vlineto
endchar
                </CharString>
                <CharString name="less_hyphen_hyphen.liga">
                    -24 693 -383 78 hstemhm
-1148 84 hintmask 01100000
-1023 364 rmoveto
291 241 rlineto
hintmask 10100000
-50 64 -366 -306 rlineto
-77 vlineto
369 -310 52 64 rlineto
hintmask 01100000
-297 246 rlineto
1509 hlineto
6 78 rlineto
endchar
                </CharString>
                <CharString name="w_w_w.liga">
                    0 112 -112 114 430 -20 hstemhm
-1176 104 1526 100 hintmask 01111000
-1176 544 rmoveto
14 -204 27 -211 24 -129 rrcurveto
94 hlineto
107 339 122 -339 rlineto
52 hlineto
108 337 132 -337 rlineto
54 hlineto
117 335 122 -335 rlineto
53 hlineto
130 336 110 -336 rlineto
53 hlineto
118 339 132 -339 rlineto
97 hlineto
22 129 28 211 14 204 rrcurveto
-100 hlineto
hintmask 10111000
-9 -155 -8 -130 -10 -147 rrcurveto
-5 hlineto
-13 35 -99 256 -12 28 rrcurveto
-64 hlineto
hintmask 01111000
-111 -317 rlineto
-4 hlineto
-13 35 -76 251 -12 28 rrcurveto
-64 hlineto
hintmask 10111000
-123 -316 rlineto
-5 hlineto
-12 35 -89 252 -12 28 rrcurveto
-64 hlineto
hintmask 01111000
-111 -313 rlineto
-5 hlineto
-13 35 -99 252 -12 28 rrcurveto
-63 hlineto
-101 -315 rlineto
-5 hlineto
-12 35 -89 254 -12 28 rrcurveto
-64 hlineto
-100 -317 rlineto
-5 hlineto
-11 147 -11 129 -8 154 rrcurveto
endchar
                </CharString>
                <CharString name="ampersand_ampersand.liga">
                    -13 75 555 84 hstem
-495 88 340 79 380 79 vstem
374 188 rmoveto
37 65 35 89 25 98 -79 9 rcurveline
-16 -75 -22 -73 -26 -59 rrcurveto
-132 151 -60 64 58 vvcurveto
60 46 50 180 -8 vhcurveto
-6 84 rlineto
-236 4 -74 -100 -96 vvcurveto
-47 23 -44 44 -58 vhcurveto
-98 -62 -51 -71 -83 vvcurveto
-13 vlineto
-17 20 -16 19 -16 18 37 65 35 89 25 98 -79 9 rcurveline
-16 -75 -22 -73 -26 -59 rrcurveto
-132 151 -60 64 58 vvcurveto
60 46 50 180 -8 vhcurveto
-6 84 rlineto
-236 4 -74 -100 -96 vvcurveto
-47 23 -44 44 -58 vhcurveto
-98 -62 -51 -71 -83 vvcurveto
-88 56 -69 105 70 71 37 85 58 vhcurveto
-37 31 68 -85 161 hhcurveto
70 71 37 85 58 hvcurveto
31 -37 33 -41 36 -46 73 58 rcurveline
-45 55 -41 48 -37 42 rrcurveto
-689 -126 rmoveto
-61 -31 43 58 52 31 54 64 47 hvcurveto
134 -156 rlineto
-67 -43 -47 -31 -47 hhcurveto
459 hmoveto
-61 -31 43 58 52 31 54 64 47 hvcurveto
134 -156 rlineto
-67 -43 -47 -31 -47 hhcurveto
endchar
                </CharString>
                <CharString name="bar_bar.liga">
                    -265 85 360 85 vstem
-265 781 rmoveto
-983 85 991 vlineto
360 -8 rmoveto
-983 85 991 vlineto
endchar
                </CharString>
                <CharString name="bar_greater.liga">
                    -289 665 vstem
-289 781 rmoveto
-983 85 vlineto
580 488 rlineto
77 vlineto
-580 426 rlineto
-884 vmoveto
782 vlineto
496 -357 rlineto
-11 vlineto
endchar
                </CharString>
                <CharString name="colon_equal.liga">
                    0 129 39 77 169 77 hstem
-553 134 512 438 vstem
-268 388 rmoveto
2 130 rlineto
-133 hlineto
-2 -130 rlineto
782 103 rmoveto
-538 -77 537 hlineto
-648 -278 rmoveto
2 130 rlineto
-133 hlineto
-2 -130 rlineto
782 109 rmoveto
-538 -77 537 hlineto
endchar
                </CharString>
                <CharString name="equal_equal.liga">
                    168 77 169 77 hstem
-532 1063 vstem
531 491 rmoveto
-1063 -77 1062 hlineto
1 -169 rmoveto
-1063 -77 1062 hlineto
endchar
                </CharString>
                <CharString name="equal_greater.liga">
                    -25 694 -501 77 169 77 hstemhm
440 84 hintmask 01010000
108 604 rmoveto
hintmask 01110000
137 -113 rlineto
-777 -77 870 hlineto
102 -84 rlineto
-11 vlineto
-89 -74 rlineto
-883 -77 790 hlineto
-155 -129 rlineto
hintmask 10010000
51 -64 370 311 rlineto
77 vlineto
-364 306 rlineto
endchar
                </CharString>
                <CharString name="exclam_equal.liga">
                    -210 1017 -639 77 169 77 hstemhm
-532 1063 -818 593 hintmask 01110000
530 414 rmoveto
1 77 rlineto
-371 hlineto
hintmask 01101000
146 279 rlineto
hintmask 10001000
-78 37 rlineto
hintmask 01101000
-165 -316 rlineto
-595 -77 555 hlineto
-89 -169 rlineto
-466 -77 426 hlineto
-181 -346 rlineto
hintmask 10001000
80 -32 rlineto
hintmask 01001000
198 378 rlineto
539 hlineto
1 77 rlineto
-500 hlineto
hintmask 01101000
89 169 rlineto
endchar
                </CharString>
                <CharString name="greater_equal.liga">
                    -225 894 hstem
273 102 vstem
-395 -25 rmoveto
770 311 rlineto
77 vlineto
-764 306 -40 -70 702 -266 rlineto
-14 vlineto
-699 -272 rlineto
801 126 rmoveto
-87 vlineto
-770 -311 -31 72 rlineto
endchar
                </CharString>
                <CharString name="hyphen_greater.liga">
                    -25 694 -383 78 hstemhm
440 84 hintmask 10100000
108 604 rmoveto
hintmask 01100000
291 -240 rlineto
-885 -78 886 hlineto
-297 -247 rlineto
hintmask 10100000
51 -64 370 311 rlineto
77 vlineto
-364 306 rlineto
endchar
                </CharString>
                <CharString name="hyphen_hyphen.liga">
                    286 78 hstem
-440 352 176 352 vstem
-88 364 rmoveto
-352 -78 346 hlineto
534 78 rmoveto
-352 -78 346 hlineto
endchar
                </CharString>
                <CharString name="less_bar.liga">
                    102 84 vstem
-343 363 rmoveto
-77 vlineto
581 -488 rlineto
85 991 hlineto
-85 -8 rlineto
-497 -451 rmoveto
497 352 rlineto
-777 vlineto
-497 414 rlineto
endchar
                </CharString>
                <CharString name="less_equal.liga">
                    -225 894 hstem
-429 102 vstem
-327 319 rmoveto
14 vlineto
702 266 -40 70 -764 -306 rlineto
-77 vlineto
770 -311 31 72 rlineto
-31 -272 rmoveto
-770 311 rlineto
87 vlineto
801 -326 rlineto
endchar
                </CharString>
                <CharString name="less_hyphen.liga">
                    -24 693 -383 78 hstemhm
-523 84 hintmask 01100000
-398 364 rmoveto
291 241 rlineto
hintmask 10100000
-50 64 -366 -306 rlineto
-77 vlineto
369 -310 52 64 rlineto
hintmask 01100000
-297 246 rlineto
884 hlineto
6 78 rlineto
endchar
                </CharString>
                <CharString name="less_slash.liga">
                    -210 1017 -831 693 hstemhm
-523 84 204 593 hintmask 01110000
-115 51 rmoveto
-324 268 rlineto
11 vlineto
332 275 -50 64 -366 -306 rlineto
-77 vlineto
369 -310 -81 -154 rlineto
hintmask 10110000
80 -32 513 980 -78 37 rlineto
endchar
                </CharString>
                <CharString name="plus_equal.liga">
                    168 77 42 77 50 77 hstem
-273 81 205 438 vstem
-192 287 rmoveto
196 hlineto
1 77 rlineto
-197 207 -81 -207 -197 -77 197 -208 81 hlineto
642 335 rmoveto
1 77 rlineto
-438 -77 hlineto
437 -246 rmoveto
1 77 rlineto
-438 -77 hlineto
endchar
                </CharString>
                <CharString name="plus_plus.liga">
                    287 77 hstem
-278 81 394 81 vstem
278 571 rmoveto
-81 -207 -394 207 -81 -207 -197 -77 197 -208 81 208 394 -208 81 208 196 hlineto
1 77 rlineto
-197 hlineto
endchar
                </CharString>
                <CharString name="question_question.liga">
                    0 122 546 85 hstem
-317 124 121 96 99 124 121 96 vstem
-418 668 rmoveto
279 -18 67 -44 -53 vvcurveto
-79 -199 -61 -9 -158 vhcurveto
64 -2 rlineto
15 143 225 56 123 vvcurveto
87 -97 73 -335 18 vhcurveto
430 -85 rmoveto
279 -18 67 -44 -53 vvcurveto
-79 -199 -61 -9 -158 vhcurveto
64 -2 rlineto
15 143 225 56 123 vvcurveto
87 -97 73 -335 18 vhcurveto
-227 -753 rmoveto
3 122 rlineto
-124 hlineto
-2 -122 rlineto
563 hmoveto
3 122 rlineto
-124 hlineto
-2 -122 rlineto
endchar
                </CharString>
                <CharString name="slash_greater.liga">
                    -210 1017 -832 694 hstemhm
-382 593 229 84 hintmask 10110000
155 662 rmoveto
56 108 -78 37 -515 -985 80 -32 421 805 321 -265 rlineto
-11 vlineto
-337 -280 rlineto
hintmask 01110000
51 -64 370 311 rlineto
77 vlineto
-364 306 rlineto
endchar
                </CharString>
                <CharString name="underscore_underscore.liga">
                    -129 73 hstem
-629 1258 vstem
629 -56 rmoveto
-1258 -73 1258 hlineto
endchar
                </CharString>
                <CharString name="ampersand.spacer">
                    endchar
                </CharString>
                <CharString name="bar.spacer">
                    endchar
                </CharString>
                <CharString name="colon.spacer">
                    endchar
                </CharString>
                <CharString name="equal.spacer">
                    endchar
                </CharString>
                <CharString name="exclam.spacer">
                    endchar
                </CharString>
                <CharString name="greater.spacer">
                    endchar
                </CharString>
                <CharString name="hyphen.spacer">
                    endchar
                </CharString>
                <CharString name="less.spacer">
                    endchar
                </CharString>
                <CharString name="LIG">
                    endchar
                </CharString>
                <CharString name="percent.alt">
                    -61 72 200 72 138 72 200 72 hstem
32 73 132 72 5 73 132 72 vstem
166 421 rmoveto
87 56 72 106 102 -48 64 -85 -87 -57 -73 -104 -103 49 -64 85 hvcurveto
303 329 rmoveto
-403 -771 80 -32 401 766 rlineto
-377 -20 rmoveto
44 23 -38 -65 -60 -21 -37 -44 -44 -23 38 65 61 21 36 44 hvcurveto
278 -754 rmoveto
87 56 72 106 102 -48 64 -85 -87 -57 -73 -104 -103 49 -64 85 hvcurveto
4 272 rmoveto
44 23 -38 -65 -60 -21 -37 -44 -44 -23 38 65 61 21 36 44 hvcurveto
endchar
                </CharString>
                <CharString name="plus.spacer">
                    endchar
                </CharString>
                <CharString name="question.spacer">
                    endchar
                </CharString>
                <CharString name="slash.spacer">
                    endchar
                </CharString>
                <CharString name="underscore.spacer">
                    endchar
                </CharString>
                <CharString name="uniE0A0">
                    -136 63 193 127 320 64 64 64 hstemhm
0 64 0 128 0 64 128 64 0 128 0 64 hintmask 1111010101000000
512 631 rmoveto
-71 -57 -57 -71 hvcurveto
hintmask 1111010010000000
-47 26 -41 38 -22 vhcurveto
-18 vlineto
-64 -64 -64 -64 -53 -42 -11 -18 -33 vhcurveto
303 vlineto
hintmask 1111101101000000
38 22 26 41 47 vvcurveto
71 -57 57 -71 -71 -57 -57 -71 vhcurveto
hintmask 1111010101000000
-47 26 -41 38 -22 vhcurveto
-419 vlineto
hintmask 1111101010000000
-38 -22 -26 -41 -47 vvcurveto
-71 57 -57 71 71 57 57 71 34 -13 30 -21 23 vhcurveto
23 19 30 18 49 hhcurveto
128 128 128 128 hvcurveto
18 vlineto
hintmask 1111010101000000
38 22 26 41 47 vvcurveto
71 -57 57 -71 vhcurveto
hintmask 1111101101000000
-384 63 rmoveto
35 29 -29 -35 -35 -29 -29 -35 -35 -29 29 35 35 29 29 35 hvcurveto
384 -256 rmoveto
-35 -29 29 35 35 29 29 35 35 29 -29 -35 -35 -29 -29 -35 hvcurveto
-384 -512 rmoveto
-35 -29 29 35 35 29 29 35 35 29 -29 -35 -35 -29 -29 -35 hvcurveto
endchar
                </CharString>
                <CharString name="uniE0B0">
                    -205 1209 hstem
-20 692 vstem
-18 1004 rmoveto
-2 -1209 692 570 rlineto
endchar
                </CharString>
                <CharString name="uniE0B2">
                    -205 1209 hstem
-20 692 vstem
672 -205 rmoveto
-2 1209 -690 -639 rlineto
endchar
                </CharString>
                <CharString name="w.spacer">
                    endchar
                </CharString>
            <CharString index="0">
                rmoveto
25 -41 76 37 119 72 66 59 rlinecurve
-72 70 -54 -64 -97 -89 -63 -44 rlinecurve
return
            </CharString>
            <CharString index="1">
                -46 callgsubr
-71 callgsubr
-222 90 -124 153 hvcurveto
9 644 rmoveto
105 57 -99 -189 -183 -54 -95 -102 -105 -57 99 189 183 54 95 102 hvcurveto
endchar
            </CharString>
            <CharString index="2">
                -40 callsubr
175 -96 102 -136 -30 callgsubr
-176 97 -102 135 hvcurveto
15 75 rmoveto
-92 -63 78 142 133 62 72 89 92 63 -77 -142 -134 -62 -72 -89 hvcurveto
endchar
            </CharString>
            <CharString index="3">
                rmoveto
79 73 62 103 62 hvcurveto
-53 28 rlineto
-78 -53 -43 -41 -58 hhcurveto
-54 -40 35 88 -55 hvcurveto
-64 -38 rlineto
-107 61 68 -52 77 hhcurveto
return
            </CharString>
            <CharString index="4">
                -4 77 -4 78 113 vvcurveto
209 -85 66 -315 9 vhcurveto
-9 -78 243 -9 68 -33 7 -123 83 callgsubr
14 -111 -86 -112 vvcurveto
return
            </CharString>
            <CharString index="5">
                86 callsubr
-103 callgsubr
return
            </CharString>
            <CharString index="6">
                rmoveto
93 80 61 91 6 callgsubr
hvcurveto
-57 callsubr
-80 callgsubr
            </CharString>
            <CharString index="7">
                rmoveto
141 86 89 155 hvcurveto
-42 callgsubr
-81 -50 52 113 vhcurveto
459 -94 -466 vlineto
-154 82 -85 135 vhcurveto
endchar
            </CharString>
            <CharString index="8">
                rmoveto
-59 callsubr
-79 callsubr
            </CharString>
            <CharString index="9">
                -84 callsubr
hintmask 01011110
56 callgsubr
hintmask 00111110
-102 callgsubr
hintmask 10011110
-43 callsubr
hintmask 01011110
-25 callgsubr
            </CharString>
            <CharString index="10">
                -96 callgsubr
endchar
            </CharString>
            <CharString index="11">
                rmoveto
-106 callsubr
return
            </CharString>
            <CharString index="12">
                rmoveto
8 hlineto
32 -109 31 -111 30 -110 rrcurveto
-193 hlineto
30 110 31 22 callgsubr
rrcurveto
endchar
            </CharString>
            <CharString index="13">
                rmoveto
-97 callsubr
return
            </CharString>
            <CharString index="14">
                -8 -155 -7 -130 -9 -147 rrcurveto
-4 hlineto
-11 35 -77 220 -10 28 rrcurveto
-55 hlineto
-9 -27 -75 -219 -12 -35 rrcurveto
-4 hlineto
-10 147 -9 129 -7 154 rrcurveto
-90 hlineto
12 -204 23 -211 21 -129 rrcurveto
81 hlineto
102 303 rlineto
endchar
            </CharString>
            <CharString index="15">
                144 99 79 71 83 vvcurveto
74 -68 59 -232 -2 vhcurveto
-5 -64 rlineto
180 -4 51 -30 -52 vvcurveto
-66 -86 -66 -161 -107 vhcurveto
7 -59 rlineto
return
            </CharString>
            <CharString index="16">
                -56 callgsubr
-81 -164 -44 callgsubr
return
            </CharString>
            <CharString index="17">
                -73 callsubr
-30 callsubr
-10 callsubr
return
            </CharString>
            <CharString index="18">
                rmoveto
-86 callsubr
-73 callgsubr
return
            </CharString>
            <CharString index="19">
                rmoveto
44 -28 57 58 69 86 38 62 rlinecurve
-90 43 -27 -63 -49 -96 -42 -62 rlinecurve
231 -1 rmoveto
43 -28 59 58 68 86 39 62 rlinecurve
-94 39 -26 -66 -47 -90 -42 -61 rlinecurve
return
            </CharString>
            <CharString index="20">
                86 -292 rmoveto
-62 -34 29 38 35 30 29 51 20 hvcurveto
58 -28 53 -25 -38 vvcurveto
-33 -36 -27 -60 vhcurveto
endchar
            </CharString>
            <CharString index="21">
                -46 callsubr
-41 callgsubr
-1 -90 rlineto
70 hlineto
-1 90 rlineto
return
            </CharString>
            <CharString index="22">
                804 -107 callgsubr
return
            </CharString>
            <CharString index="23">
                -37 callsubr
-32 callgsubr
-57 callgsubr
            </CharString>
            <CharString index="24">
                -78 348 rmoveto
29 31 26 57 58 33 -26 -37 -33 -30 -28 -48 -20 vhcurveto
-54 26 -47 25 38 vvcurveto
return
            </CharString>
            <CharString index="25">
                rmoveto
hintmask 00111110
-66 callsubr
hintmask 01011110
-90 callsubr
hintmask 10011110
-10 callgsubr
hintmask 00111110
-98 callsubr
            </CharString>
            <CharString index="26">
                -76 callsubr
415 hlineto
endchar
            </CharString>
            <CharString index="27">
                -116 70 -61 101 vhcurveto
7 60 rmoveto
-62 -46 40 85 hvcurveto
5 vlineto
98 64 106 -21 -87 vvcurveto
-54 -42 -32 -54 vhcurveto
endchar
            </CharString>
            <CharString index="28">
                rmoveto
-36 callgsubr
-170 -74 432 hlineto
7 74 rlineto
-175 hlineto
endchar
            </CharString>
            <CharString index="29">
                401 -459 -104 callsubr
            </CharString>
            <CharString index="30">
                -15 callgsubr
hintmask 10111000
-93 callgsubr
            </CharString>
            <CharString index="31">
                rmoveto
-81 callgsubr
            </CharString>
            <CharString index="32">
                15 callsubr
hintmask 11010000
-50 callsubr
hintmask 10110000
-71 callsubr
            </CharString>
            <CharString index="33">
                -203 475 -287 hlineto
-7 -64 203 -9 rlineto
-402 -204 -69 vlineto
return
            </CharString>
            <CharString index="34">
                -153 hmoveto
-86 callsubr
return
            </CharString>
            <CharString index="35">
                -22 callgsubr
63 -54 98 77 58 35 38 45 vhcurveto
endchar
            </CharString>
            <CharString index="36">
                222 -1 -87 123 -154 -38 callgsubr
return
            </CharString>
            <CharString index="37">
                771 -104 callgsubr
return
            </CharString>
            <CharString index="38">
                -61 callsubr
7 callsubr
rlinecurve
return
            </CharString>
            <CharString index="39">
                -106 callsubr
-83 -219 -44 callgsubr
return
            </CharString>
            <CharString index="40">
                0 69 406.5 68.5 return
            </CharString>
            <CharString index="41">
                rmoveto
134 62 72 90 36 32 -12 -23 26 vhcurveto
-217 -312 rlineto
-19 36 -10 47 58 vvcurveto
156 -220 rmoveto
-36 -31 11 22 -25 hvcurveto
216 312 rlineto
19 -35 10 -47 -57 vvcurveto
-134 -63 -72 -90 vhcurveto
-15 -75 -40 callsubr
hvcurveto
hintmask 10011100
83 -21 66 -37 47 vhcurveto
47 67 rlineto
hintmask 01101100
-54 35 -41 -58 rlineto
24 -35 -43 13 -48 hhcurveto
-30 callgsubr
-85 22 -67 39 -47 hvcurveto
-47 -65 rlineto
hintmask 10101100
54 -36 40 58 rlineto
-24 35 42 -12 47 hhcurveto
endchar
            </CharString>
            <CharString index="42">
                10 76 rlineto
-266 -13 -77 73 144 vvcurveto
115 55 76 280 -1 vhcurveto
-6 86 rlineto
-317 -6 -102 -133 -150 vvcurveto
return
            </CharString>
            <CharString index="43">
                rmoveto
hintmask 00110111
-29 callsubr
hintmask 01011011
-55 callsubr
endchar
            </CharString>
            <CharString index="44">
                rmoveto
-92 callsubr
endchar
            </CharString>
            <CharString index="45">
                rmoveto
-89 -57 -51 -69 -64 60 -51 86 89 58 51 69 63 -60 52 -87 hvcurveto
return
            </CharString>
            <CharString index="46">
                7 69 rlineto
-72 callsubr
            </CharString>
            <CharString index="47">
                65 28 39 36 51 vvcurveto
65 -68 42 -88 -108 -59 -61 -56 return
            </CharString>
            <CharString index="48">
                5 rlineto
-53 callsubr
return
            </CharString>
            <CharString index="49">
                rmoveto
31 74 rlineto
-193 58 -85 44 59 64 98 47 69 vvcurveto
hintmask 10110000
42 -35 45 -91 24 vhcurveto
hintmask 10101000
93 26 35 45 41 vvcurveto
hintmask 11000000
63 -107 54 57 vvcurveto
50 87 44 200 57 vhcurveto
-29 75 rlineto
-255 -81 -90 -77 -77 vvcurveto
hintmask 10101000
1 -83 111 -48 -50 vvcurveto
-32 -40 -26 -138 -12 vhcurveto
-3 -66 rlineto
hintmask 10110000
121 -8 54 -34 -42 vvcurveto
hintmask 10100000
-52 -103 -48 -88 vvcurveto
-82 86 -51 252 -81 vhcurveto
endchar
            </CharString>
            <CharString index="50">
                10 257 rmoveto
54 43 34 53 63 45 -41 -85 -1 vhcurveto
-2 0 -2 -1 vvcurveto
-98 -64 -105 21 86 vvcurveto
endchar
            </CharString>
            <CharString index="51">
                487 472 -94 callgsubr
return
            </CharString>
            <CharString index="52">
                -10 79 -49 -21 317 66 238 44 callsubr
hintmask 10110110
563 358 rmoveto
hintmask 01101110
35 callgsubr
-307 -77 -66 77 -317 vlineto
hintmask 10110110
35 callsubr
-370 -284 rmoveto
242 141 vlineto
4 66 rlineto
-145 234 hlineto
54 callsubr
54 callgsubr
endchar
            </CharString>
            <CharString index="53">
                -14 73 -41 -21 26 -21 248 61 165 78 return
            </CharString>
            <CharString index="54">
                77 -45 -21 26 -31 callsubr
return
            </CharString>
            <CharString index="55">
                rmoveto
5 -13 callsubr
-95 hlineto
-3 -151 rlineto
return
            </CharString>
            <CharString index="56">
                760 -90 callgsubr
return
            </CharString>
            <CharString index="57">
                rmoveto
40 -14 66 98 19 88 -12 93 rlinecurve
-102 -2 21 -83 8 -81 -40 -99 rlinecurve
return
            </CharString>
            <CharString index="58">
                766 -100 callsubr
return
            </CharString>
            <CharString index="59">
                5 61 rlineto
-63 hlineto
2 151 -70 -6 2 -145 rlineto
return
            </CharString>
            <CharString index="60">
                -278 21 -94 -89 -86 -136 305 -16 -96 vvcurveto
-49 -67 -40 -238 19 vhcurveto
-3 -80 return
            </CharString>
            <CharString index="61">
                rmoveto
164 104 134 243 -1 hvcurveto
return
            </CharString>
            <CharString index="62">
                7 82 -365 -2 358 528 rlineto
80 -448 vlineto
-8 -82 357 2 -361 -528 rlineto
-80 vlineto
endchar
            </CharString>
            <CharString index="63">
                rmoveto
474 61 -474 hlineto
return
            </CharString>
            <CharString index="64">
                111 68 57 64 53 -54 34 -58 29 hvcurveto
return
            </CharString>
            <CharString index="65">
                461 -94 -476 vlineto
-104 -40 -44 -85 return
            </CharString>
            <CharString index="66">
                -36 -132 -20 -139 3 -86 224 1 rcurveline
return
            </CharString>
            <CharString index="67">
                -63 229 -65 227 -72 230 return
            </CharString>
            <CharString index="68">
                hintmask 11010000
490 hmoveto
-34 callgsubr
return
            </CharString>
            <CharString index="69">
                hhcurveto
-163 -105 -133 -243 return
            </CharString>
            <CharString index="70">
                -38 callsubr
vstem
487 return
            </CharString>
            <CharString index="71">
                169 73 -433 -73 170 -541 return
            </CharString>
            <CharString index="72">
                622 -100 callsubr
return
            </CharString>
            <CharString index="73">
                3 callsubr
hintmask 10110000
34 callgsubr
hintmask 11010000
-60 callsubr
return
            </CharString>
            <CharString index="74">
                75 callsubr
hintmask 10011100
-27 callsubr
hintmask 01101100
59 callsubr
            </CharString>
            <CharString index="75">
                -130 160 -36 108 89 vhcurveto
-15 -75 -56 -50 -138 -49 rrcurveto
return
            </CharString>
            <CharString index="76">
                0 79 234 70 226 79 return
            </CharString>
            <CharString index="77">
                -139 -118 -121 -176 return
            </CharString>
            <CharString index="78">
                -60 callgsubr
16 callsubr
return
            </CharString>
            <CharString index="79">
                627 -50 callgsubr
return
            </CharString>
            <CharString index="80">
                -6 62 -84 -5 rlineto
6 21 callgsubr
91 hlineto
return
            </CharString>
            <CharString index="81">
                621 250 hstem
148 440 vstem
148 650 -88 callgsubr
endchar
            </CharString>
            <CharString index="82">
                3 -24 4 -34 1 -11 rrcurveto
endchar
            </CharString>
            <CharString index="83">
                -54 callgsubr
16 callgsubr
hintmask 10011110
return
            </CharString>
            <CharString index="84">
                0 callsubr
164.5 69 return
            </CharString>
            <CharString index="85">
                -91 -6 rlineto
-366 vlineto
-134 return
            </CharString>
            <CharString index="86">
                -19 callgsubr
264 27 callsubr
hintmask 01011100
return
            </CharString>
            <CharString index="87">
                -6 callsubr
-77 -164 -44 callgsubr
return
            </CharString>
            <CharString index="88">
                -1 callgsubr
hstemhm
95 27 callsubr
return
            </CharString>
            <CharString index="89">
                476 615 -105 callsubr
return
            </CharString>
            <CharString index="90">
                73 -42 31 -33 -24 vvcurveto
-24 -37 -15 -93 -14 vhcurveto
return
            </CharString>
            <CharString index="91">
                10 -21 32 58 callgsubr
249 68 300 78 -12 -20 hstemhm
109 93 return
            </CharString>
            <CharString index="92">
                84 hlineto
19 129 23 211 13 204 rrcurveto
-86 hlineto
return
            </CharString>
            <CharString index="93">
                62 336 61 hstem
127 74 222 73 vstem
305 return
            </CharString>
            <CharString index="94">
                -13 78 188 56 173 75 return
            </CharString>
            <CharString index="95">
                -33 callsubr
-199 -55 -33 callsubr
endchar
            </CharString>
            <CharString index="96">
                704 60 callgsubr
114 396 hintmask 10110000
315 4 callgsubr
hintmask 11010000
-30 callsubr
rlineto
hintmask 10110000
-10 callsubr
endchar
            </CharString>
            <CharString index="97">
                19 -72 19 -71 19 -72 rrcurveto
return
            </CharString>
            <CharString index="98">
                rmoveto
68 53 -188 242 190 231 45 callgsubr
454 -246 rmoveto
68 53 -189 241 191 232 45 callgsubr
endchar
            </CharString>
            <CharString index="99">
                rmoveto
-240 -197 -96 -163 -161 vvcurveto
-157 95 -160 236 -196 vhcurveto
63 58 rlineto
-222 175 -82 143 140 vvcurveto
141 80 142 228 178 vhcurveto
endchar
            </CharString>
            <CharString index="100">
                -13 75 564 76 hstem
69 87 313 88 vstem
305 -13 rmoveto
154 98 146 221 217 -82 131 -155 -154 -97 -146 -222 -217 82 -130 154 hvcurveto
return
            </CharString>
            <CharString index="101">
                -36 -105 hvcurveto
-338 91 368 vlineto
return
            </CharString>
            <CharString index="102">
                21 -21 hstem
196 85 vstem
401 38 rmoveto
-150 -70 -55 -52 -52 74 callgsubr
8 73 rlineto
39 callsubr
endchar
            </CharString>
            <CharString index="103">
                -17 callgsubr
7 -71 rlineto
31 callsubr
return
            </CharString>
            <CharString index="104">
                91 callgsubr
407 71 vstem
163 return
            </CharString>
            <CharString index="105">
                38 callgsubr
8 callgsubr
return
            </CharString>
            <CharString index="106">
                0 166 -145 -21 532 156 0 -20 return
            </CharString>
            <CharString index="107">
                46 callsubr
hstem
50 callgsubr
vstem
501 return
            </CharString>
            <CharString index="108">
                rmoveto
9 76 rlineto
-181 3 -53 25 94 vvcurveto
285 222 70 -222 159 vlineto
return
            </CharString>
            <CharString index="109">
                rmoveto
31 hlineto
60 220 rlineto
3 hlineto
-1 -280 rlineto
57 365 -71 hlineto
-61 -222 rlineto
-3 hlineto
-64 222 rlineto
-71 -365 56 hlineto
-1 280 rlineto
3 hlineto
return
            </CharString>
            <CharString index="110">
                -67 callgsubr
20 -20 return
            </CharString>
            <CharString index="111">
                616 -73 callsubr
rlineto
return
            </CharString>
            <CharString index="112">
                0 69 637 69 -65 -20 hstemhm
270 91 return
            </CharString>
            <CharString index="113">
                131 -162 35 -109 -91 return
            </CharString>
            <CharString index="114">
                622 214 hstem
114 396 vstem
453 -35 callgsubr
endchar
            </CharString>
            <CharString index="115">
                hstem
57 96 318 96 vstem
return
            </CharString>
            <CharString index="116">
                hstem
90 94 256 94 vstem
return
            </CharString>
            <CharString index="117">
                56 347 20 callgsubr
hintmask 11100100
303 return
            </CharString>
            <CharString index="118">
                0 119 569 -20 hstem
63 92 320 87 vstem
return
            </CharString>
            <CharString index="119">
                608 235 hstem
175 293 vstem
321 843 -62 callgsubr
endchar
            </CharString>
            <CharString index="120">
                63 -1 callsubr
476 return
            </CharString>
            <CharString index="121">
                3 callgsubr
hstemhm
225 89 return
            </CharString>
            <CharString index="122">
                8 69 rlineto
-178 706 -251 hlineto
return
            </CharString>
            <CharString index="123">
                87 callsubr
262 90 return
            </CharString>
            <CharString index="124">
                -69 -27 -40 -39 -54 vvcurveto
return
            </CharString>
            <CharString index="125">
                -8 74 -73 76 178 59 -55 75 callgsubr
164.5 78 -74 76 hstemhm
45 85 136 78 149 83 hintmask 0101011110000000
return
            </CharString>
            <CharString index="126">
                hintmask 11010000
531 hmoveto
30 callsubr
return
            </CharString>
            <CharString index="127">
                56 -14 callsubr
75 return
            </CharString>
            <CharString index="128">
                -126 2 -177 -238 vvcurveto
return
            </CharString>
            <CharString index="129">
                110 31 110 return
            </CharString>
            <CharString index="130">
                36 callgsubr
hstemhm
71 90 307 86 hintmask 01111000
return
            </CharString>
            <CharString index="131">
                61 91 33 callgsubr
return
            </CharString>
            <CharString index="132">
                228 -613 rmoveto
-43 callgsubr
return
            </CharString>
            <CharString index="133">
                632 83 callsubr
264.5 94 vstem
356 11 callsubr
endchar
            </CharString>
            <CharString index="134">
                65 callsubr
609 -93 -688 hlineto
return
            </CharString>
            <CharString index="135">
                62.5 return
            </CharString>
            <CharString index="136">
                2 -16 -16 1 -17 hhcurveto
-165 -142 -114 -199 -161 87 -96 117 67 54 31 37 39 hvcurveto
endchar
            </CharString>
            <CharString index="137">
                -90 -8 rlineto
-151 -103 vlineto
-9 -70 rlineto
112 -300 hlineto
return
            </CharString>
            <CharString index="138">
                21 -21 479 78 -11 -20 return
            </CharString>
            <CharString index="139">
                52 103 49 87 vvcurveto
82 -86 52 -251 80 vhcurveto
-31 -74 rlineto
193 -58 85 -43 -60 -64 -99 -46 -70 vvcurveto
return
            </CharString>
            <CharString index="140">
                67 185 -20 155.5 28 callgsubr
return
            </CharString>
            <CharString index="141">
                60 37 80 26 108 8 -4 96 rcurveline
return
            </CharString>
            <CharString index="142">
                266 -127 112 -335 -47 vhcurveto
return
            </CharString>
            <CharString index="143">
                0 112 -91 -21 544 -20 return
            </CharString>
            <CharString index="144">
                -17 81 624 -20 return
            </CharString>
            <CharString index="145">
                -17 78 566 78 return
            </CharString>
            <CharString index="146">
                rmoveto
270 246 6 91 -270 245 -61 -62 258 -230 -263 -226 rlineto
endchar
            </CharString>
            <CharString index="147">
                5 callsubr
93 61 return
            </CharString>
            <CharString index="148">
                14 -21 28 -21 28 -21 236 67 230 7 0 -20 249 50 callsubr
118 91 return
            </CharString>
            <CharString index="149">
                68 162 51 106 13 callgsubr
return
            </CharString>
            <CharString index="150">
                -245 68 183 -21 157 63 return
            </CharString>
            <CharString index="151">
                -166 92 -124 331 23 vhcurveto
return
            </CharString>
            <CharString index="152">
                -66 55 -188 -244 -5 -91 rlineto
return
            </CharString>
            <CharString index="153">
                0 79 609 65 callgsubr
return
            </CharString>
            <CharString index="154">
                0 74 541 73 return
            </CharString>
            <CharString index="155">
                -13 75 -44 -21 26 -21 477 78 -3 -20 242 50 callsubr
69 90 266 90 return
            </CharString>
            <CharString index="156">
                670 79 hstem
127 371 vstem
498 749 -25 callsubr
endchar
            </CharString>
            <CharString index="157">
                152 62 162 68 return
            </CharString>
            <CharString index="158">
                rmoveto
-45 14 -61 -70 -22 -88 10 -74 rlinecurve
112 5 -24 64 -6 72 36 77 rlinecurve
return
            </CharString>
            <CharString index="159">
                -4 76 401 78 -3 -20 hstemhm
120 93 return
            </CharString>
            <CharString index="160">
                0 9 7 6 9 9 7 -6 57 callgsubr
return
            </CharString>
            <CharString index="161">
                -203 -84 -94 -192 28 vhcurveto
return
            </CharString>
            <CharString index="162">
                rmoveto
2 130 rlineto
-133 hlineto
return
            </CharString>
            <CharString index="163">
                166 -62 rmoveto
return
            </CharString>
            <CharString index="164">
                0 hflex1
return
            </CharString>
            <CharString index="165">
                -21 25 -21 return
            </CharString>
            <CharString index="166">
                0 81 526 81 hstem
81 467 vstem
return
            </CharString>
            <CharString index="167">
                -20 91 -20 29 -20 hstemhm
return
            </CharString>
            <CharString index="168">
                -20 23 -20 return
            </CharString>
            <CharString index="169">
                -10 79 -49 -21 621 44 callsubr
hintmask 10101100
return
            </CharString>
            <CharString index="170">
                -1 84 -111 47 50 vvcurveto
33 41 26 137 12 vhcurveto
3 65 rlineto
return
            </CharString>
            <CharString index="171">
                hintmask 000000000000000100000010000000000000000000000000
return
            </CharString>
            <CharString index="172">
                -20 hstem
133 93 return
            </CharString>
            <CharString index="173">
                hstem
290 91 vstem
return
            </CharString>
            <CharString index="174">
                hstem
265 94 vstem
return
            </CharString>
            <CharString index="175">
                145 124 129 212 211 -116 120 -146 return
            </CharString>
            <CharString index="176">
                17 -21 611 90 hstem
80 96 vstem
return
            </CharString>
            <CharString index="177">
                66 hstemhm
171 87 -84 91 12 86 -80 82 hintmask 10100000
512 return
            </CharString>
            <CharString index="178">
                14 -21 28 -21 27 -21 304 76 302 -20 hstemhm
107 94 return
            </CharString>
            <CharString index="179">
                376 632 rmoveto
10 -13 callsubr
-96 hlineto
-7 -151 rlineto
return
            </CharString>
            <CharString index="180">
                78 callgsubr
hstemhm
return
            </CharString>
            <CharString index="181">
                vvcurveto
-54 55 -38 151 -12 vhcurveto
return
            </CharString>
            <CharString index="182">
                55.5 return
            </CharString>
            <CharString index="183">
                133.5 return
            </CharString>
            <CharString index="184">
                -245 85 callgsubr
return
            </CharString>
            <CharString index="185">
                61 103 -52 callsubr
return
            </CharString>
            <CharString index="186">
                -91 -8 rlineto
-776 91 242 vlineto
81 2 rlineto
return
            </CharString>
            <CharString index="187">
                55 callsubr
246 96 vstem
return
            </CharString>
            <CharString index="188">
                hintmask 100000000000000000000000000000001000000000000000
return
            </CharString>
            <CharString index="189">
                rmoveto
-438 -77 437 hlineto
return
            </CharString>
            <CharString index="190">
                rlinecurve
-240 return
            </CharString>
            <CharString index="191">
                73 822 74 hstem
159 87 vstem
159 return
            </CharString>
            <CharString index="192">
                67 320.5 28 callgsubr
return
            </CharString>
            <CharString index="193">
                -10 77 540 90 return
            </CharString>
            <CharString index="194">
                123 94 return
            </CharString>
            <CharString index="195">
                -143.5 46 callsubr
return
            </CharString>
            <CharString index="196">
                -137 -206 vhcurveto
54 3 rmoveto
178 return
            </CharString>
            <CharString index="197">
                74 821 75 hstem
380 86 vstem
106 return
            </CharString>
            <CharString index="198">
                28 callgsubr
hstem
return
            </CharString>
            <CharString index="199">
                hstemhm
97 91 return
            </CharString>
            <CharString index="200">
                -194 3 2 176 -88 1 rlineto
return
            </CharString>
            <CharString index="201">
                1034 hstem
405 90 vstem
159 return
            </CharString>
            <CharString index="202">
                75 36 75 return
            </CharString>
            <CharString index="203">
                hstem
143 336 vstem
203 return
            </CharString>
            <CharString index="204">
                hstem
147 336 vstem
416 return
            </CharString>
            <CharString index="205">
                27 41 43 18 51 hhcurveto
endchar
            </CharString>
            <CharString index="206">
                71.5 return
            </CharString>
            <CharString index="207">
                481 -7 rmoveto
return
            </CharString>
</ttFont>
